<svg width="21" height="26" viewBox="0 0 21 26" fill="none" xmlns="http://www.w3.org/2000/svg">
<path d="M15.4719 0.0498645C15.4188 -0.00951052 13.5047 0.073302 11.8391 1.88111C10.1734 3.68736 10.4297 5.75924 10.4672 5.81236C10.5047 5.86549 12.8422 5.9483 14.3344 3.84674C15.8266 1.74518 15.525 0.110802 15.4719 0.0498645ZM20.65 18.3827C20.575 18.2327 17.0172 16.4546 17.3484 13.0358C17.6797 9.61549 19.9656 8.67799 20.0016 8.57643C20.0375 8.47486 19.0688 7.34205 18.0422 6.76861C17.2885 6.36432 16.4543 6.13269 15.6 6.09049C15.4313 6.0858 14.8453 5.94205 13.6406 6.27174C12.8469 6.48893 11.0578 7.19205 10.5656 7.22018C10.0719 7.2483 8.60313 6.40455 7.02344 6.18111C6.01251 5.9858 4.94063 6.3858 4.17344 6.69361C3.40782 6.99987 1.95157 7.87174 0.932819 10.1889C-0.0859313 12.5046 0.446881 16.1733 0.828131 17.3139C1.20938 18.453 1.80469 20.3202 2.81719 21.6827C3.71719 23.2202 4.91094 24.2874 5.40938 24.6499C5.90782 25.0124 7.31407 25.253 8.28907 24.7546C9.07344 24.2733 10.4891 23.9967 11.0484 24.0171C11.6063 24.0374 12.7063 24.2577 13.8328 24.8592C14.725 25.1671 15.5688 25.0389 16.4141 24.6952C17.2594 24.3499 18.4828 23.0405 19.9109 20.3858C20.4531 19.1514 20.7 18.4842 20.65 18.3827Z" fill="black"/>
</svg>
