<svg width="342" height="239" viewBox="0 0 342 239" fill="none" xmlns="http://www.w3.org/2000/svg">
<g clip-path="url(#clip0)">
<path opacity="0.1" d="M113.701 238.866C130.356 238.866 143.858 236.726 143.858 234.087C143.858 231.448 130.356 229.309 113.701 229.309C97.0457 229.309 83.544 231.448 83.544 234.087C83.544 236.726 97.0457 238.866 113.701 238.866Z" fill="#27B4EF"/>
<path opacity="0.1" d="M277.629 239C298.412 239 315.26 236.861 315.26 234.221C315.26 231.582 298.412 229.443 277.629 229.443C256.846 229.443 239.998 231.582 239.998 234.221C239.998 236.861 256.846 239 277.629 239Z" fill="#27B4EF"/>
<path opacity="0.1" d="M4.28339 103.265H35.6936V145.503H6.58291C6.50554 145.936 6.43126 146.373 6.35079 146.809H35.6936V180.873C35.641 180.858 35.5946 180.839 35.5451 180.821C34.7156 180.497 33.8924 180.155 33.0692 179.789L32.543 179.554C31.7177 179.169 30.8924 178.762 30.0671 178.332C29.7793 178.183 29.4914 178.027 29.2067 177.868C24.6249 175.336 20.4627 172.128 16.8642 168.354C16.759 168.253 16.6599 168.146 16.5547 168.049C16.0533 167.511 15.5612 166.968 15.0846 166.412L14.5585 165.801C13.9952 165.121 13.4505 164.421 12.9213 163.713C12.8439 163.609 12.7696 163.505 12.6892 163.408C10.5368 160.463 8.74966 157.275 7.36592 153.912C7.32259 153.811 7.28545 153.701 7.24522 153.606C6.82019 152.527 6.44364 151.438 6.11558 150.339C5.97321 149.878 5.83704 149.423 5.71943 148.944C5.6761 148.803 5.63896 148.666 5.60492 148.528C3.84701 141.759 3.63965 134.727 3.63965 127.744C3.63965 126.929 3.63965 126.111 3.63965 125.301C3.63965 122.477 3.67369 119.634 3.72321 116.795C3.72321 116.059 3.75416 115.326 3.76963 114.587C3.81296 112.712 3.87486 110.838 3.95533 108.963C3.9739 108.441 3.99866 107.922 4.02651 107.403C4.02651 107.103 4.04199 106.804 4.07294 106.505C4.14721 105.418 4.20911 104.34 4.28339 103.265Z" fill="#27B4EF"/>
<path opacity="0.1" d="M35.6936 56.2371H18.4642C21.265 51.9122 24.3251 47.7563 27.6283 43.7915C30.1877 40.6893 32.8896 37.6664 35.6936 34.7535V56.2371Z" fill="#27B4EF"/>
<path opacity="0.1" d="M35.6936 57.544V101.958H4.38239C4.38239 101.83 4.40405 101.699 4.41333 101.571C4.44119 101.219 4.46904 100.868 4.49999 100.52C4.53403 100.111 4.57117 99.6989 4.61141 99.2989C4.65164 98.8989 4.69497 98.4104 4.74139 97.9676C4.78782 97.5249 4.83115 97.076 4.88376 96.6333C4.93637 96.1905 4.9828 95.7478 5.03851 95.3081C5.09421 94.8684 5.14373 94.4226 5.20254 93.983C5.24896 93.6166 5.29848 93.2532 5.348 92.8868C5.41918 92.3708 5.49346 91.8517 5.57393 91.3387C5.57393 91.2624 5.59559 91.183 5.60797 91.1097C6.17285 87.3546 6.94253 83.6322 7.91368 79.9588C8.93023 76.1054 10.2283 72.3297 11.7978 68.6613C13.4658 64.8237 15.4189 61.113 17.641 57.5592L35.6936 57.544Z" fill="#27B4EF"/>
<path opacity="0.1" d="M43.1926 103.262V145.503H110.281V103.262H43.1926ZM43.1926 146.807V183.081C43.5763 183.16 43.957 183.237 44.3346 183.301C44.8483 183.398 45.359 183.487 45.882 183.563C45.9811 183.579 46.0832 183.594 46.1915 183.603C46.3958 183.637 46.6063 183.664 46.8105 183.691C47.3274 183.762 47.8411 183.82 48.358 183.866C48.6025 183.89 48.8501 183.911 49.0977 183.93L49.695 183.975C50.0199 184 50.3418 184.018 50.6606 184.027C50.8587 184.027 51.0567 184.046 51.261 184.052C51.4157 184.052 51.5705 184.052 51.7314 184.052C51.8924 184.052 52.1214 184.052 52.3164 184.052C52.5825 184.052 52.8487 184.052 53.1118 184.052H53.4677C53.7338 184.052 54 184.052 54.2631 184.027H54.2816C54.4642 184.027 54.6499 184.027 54.8356 184.003C54.8872 184.006 54.9388 184.006 54.9904 184.003C55.1451 184.003 55.2999 184.003 55.4484 183.982H55.5567L56.5935 183.902C56.934 183.872 57.2775 183.832 57.6241 183.795L58.3298 183.713C61.2005 183.316 64.0394 182.72 66.8253 181.93C73.0832 180.208 79.2049 177.798 85.4598 176.034C93.5468 173.759 102.482 172.641 110.296 175.423V146.807H43.1926ZM110.281 56.2374V0.00340653C102.936 -0.075103 95.6108 0.772454 88.4835 2.5255C71.4955 6.7361 56.2531 15.8688 43.1926 27.5327V56.2344H46.5598V57.5382H43.1926V101.959H110.281V57.5412H60.3848V56.2374H110.281ZM196.453 37.2424C192.25 37.0958 188.072 35.7829 184.293 33.7554C177.066 29.8776 171.294 23.89 164.844 18.8366C151.443 8.31164 134.824 1.96062 117.774 0.385079V56.2374H213.546L213.784 55.9901L196.453 37.2424ZM205.177 35.7157L214.428 45.7308V33.0898C211.33 33.4684 208.616 34.3692 205.189 35.7035L205.177 35.7157ZM214.428 192.088V146.807H194.716C194.664 146.614 194.611 146.419 194.549 146.224C194.608 146.419 194.657 146.614 194.713 146.807H117.786V179.554C118.516 180.089 119.238 180.65 119.953 181.221C120.723 181.832 121.485 182.476 122.249 183.108L123.02 183.737C123.388 184.043 123.759 184.348 124.134 184.635C124.877 185.229 125.627 185.816 126.384 186.394C126.758 186.699 127.142 186.974 127.523 187.261C133.566 191.819 139.941 195.933 146.597 199.569C148.088 200.383 149.594 201.178 151.112 201.954C152.124 202.464 153.142 202.971 154.164 203.462C155.699 204.201 157.246 204.913 158.806 205.599C173.187 211.968 188.394 216.339 203.992 218.585C207.456 219.09 210.934 219.487 214.425 219.776V192.085H214.734L214.428 192.088ZM117.786 57.5412V101.959H214.44V57.5412H117.786ZM117.786 103.262V145.503H214.44V103.262H117.786ZM221.942 33.0348V47.1353L233.749 34.3539C229.837 33.731 225.902 33.2862 221.942 33.0196V33.0348ZM221.942 103.278V145.503H315.95V103.262L221.942 103.278ZM315.607 195.441L315.938 146.807H221.942V220.262C227.997 220.513 234.062 220.441 240.109 220.048H240.215C243.103 219.869 245.978 219.608 248.84 219.266H248.905C264.172 217.513 279.101 213.583 293.224 207.599L315.607 195.441ZM334.077 110.218C333.724 109.397 333.356 108.581 332.981 107.775C332.282 106.249 331.542 104.765 330.781 103.281H323.446V145.503H341.991C341.981 133.546 338.914 121.332 334.086 110.203L334.077 110.218ZM323.446 146.822V188.653C328.67 183.713 333.084 178.061 336.262 171.6C340.084 163.82 341.833 155.396 341.975 146.816L323.446 146.822ZM323.446 90.9696V101.962H330.094C328.083 98.1778 325.867 94.5033 323.455 90.9543L323.446 90.9696ZM259.691 41.3217C259.202 41.1385 258.713 40.9522 258.221 40.7721C253.031 38.8812 247.727 37.3088 242.341 36.0638L224.273 55.6268L223.926 55.9901L224.158 56.2405H288.464C279.508 50.1583 269.853 45.1453 259.7 41.3064L259.691 41.3217ZM290.349 57.5565H223.261L221.942 58.7473V101.959H233.499H233.517H315.962V81.0278C308.504 72.129 299.896 64.2329 290.358 57.5412L290.349 57.5565Z" fill="#27B4EF"/>
<path opacity="0.1" d="M35.6936 79.9466V101.958H4.38239C4.38239 101.83 4.40405 101.699 4.41333 101.571C4.44119 101.219 4.46904 100.868 4.49999 100.52C4.53403 100.111 4.57117 99.6988 4.61141 99.2989C4.65164 98.8989 4.69497 98.4103 4.74139 97.9676C4.78782 97.5249 4.83115 97.076 4.88376 96.6333C4.93637 96.1905 4.9828 95.7478 5.03851 95.3081C5.09421 94.8684 5.14373 94.4226 5.20254 93.9829C5.24896 93.6165 5.29848 93.2532 5.348 92.8868C5.41918 92.3707 5.49346 91.8517 5.57393 91.3387C5.57393 91.2624 5.59559 91.183 5.60797 91.1097C6.17285 87.3545 6.94253 83.6322 7.91368 79.9588L35.6936 79.9466Z" fill="#27B4EF"/>
<path opacity="0.1" d="M4.28339 103.265H35.6936V145.503H6.58291C6.50554 145.936 6.43126 146.373 6.35079 146.809H35.6936V180.873C35.641 180.858 35.5946 180.839 35.5451 180.821C34.7156 180.497 33.8924 180.155 33.0692 179.789L32.543 179.554C31.7177 179.169 30.8924 178.762 30.0671 178.332C29.7793 178.183 29.4914 178.027 29.2067 177.868C24.6249 175.336 20.4627 172.128 16.8642 168.354C16.759 168.253 16.6599 168.146 16.5547 168.049C16.0533 167.511 15.5612 166.968 15.0846 166.412L14.5585 165.801C13.9952 165.121 13.4505 164.421 12.9213 163.713C12.8439 163.609 12.7696 163.505 12.6892 163.408C10.5368 160.463 8.74966 157.275 7.36592 153.912C7.32259 153.811 7.28545 153.701 7.24522 153.606C6.82019 152.527 6.44364 151.438 6.11558 150.339C5.97321 149.878 5.83704 149.423 5.71943 148.944C5.6761 148.803 5.63896 148.666 5.60492 148.528C3.84701 141.759 3.63965 134.727 3.63965 127.744C3.63965 126.929 3.63965 126.111 3.63965 125.301C3.63965 122.477 3.67369 119.634 3.72321 116.795C3.72321 116.059 3.75416 115.326 3.76963 114.587C3.81296 112.712 3.87486 110.838 3.95533 108.963C3.9739 108.441 3.99866 107.922 4.02651 107.403C4.02651 107.103 4.04199 106.804 4.07294 106.505C4.14721 105.418 4.20911 104.34 4.28339 103.265Z" fill="#27B4EF"/>
<path opacity="0.1" d="M66.8098 63.9011V101.958H43.1926V63.9011H46.5598V51.0158H60.3817V63.9011H66.8098Z" fill="#27B4EF"/>
<path opacity="0.1" d="M66.8098 103.262H43.1957V145.5H66.8098V103.262Z" fill="#27B4EF"/>
<path opacity="0.1" d="M43.1926 146.809H66.8098V181.923C64.0239 182.713 61.1851 183.308 58.3143 183.703L57.6087 183.789C57.262 183.829 56.9185 183.862 56.5781 183.896C56.2376 183.929 55.8848 183.954 55.5413 183.975H55.4329C55.2844 183.975 55.1234 183.993 54.978 183.996H54.8201C54.6344 183.996 54.4488 184.015 54.2631 184.021C54 184.036 53.7369 184.039 53.4677 184.042C53.3532 184.042 53.2448 184.042 53.1303 184.042C52.8642 184.042 52.6011 184.042 52.3349 184.042H51.75C51.5921 184.042 51.4405 184.042 51.2765 184.042L50.6792 184.021C50.3697 184.021 50.0354 183.987 49.7135 183.966L49.1193 183.923L48.3796 183.856C47.8597 183.81 47.3428 183.752 46.8322 183.682L46.2132 183.596L45.9037 183.554C45.3869 183.474 44.8762 183.389 44.3563 183.291C43.9756 183.227 43.598 183.148 43.2142 183.071L43.1926 146.809Z" fill="#27B4EF"/>
<path opacity="0.1" d="M214.44 59.4065H194.967V101.955H214.44V59.4065Z" fill="#27B4EF"/>
<path opacity="0.1" d="M214.443 103.262V145.503H117.786V127.283H169.27V138.031H194.967V103.262H214.443Z" fill="#27B4EF"/>
<path opacity="0.1" d="M214.75 192.097H214.44V219.806C210.953 219.515 207.477 219.119 204.01 218.619C188.405 216.365 173.191 211.985 158.806 205.605C154.653 203.761 150.584 201.748 146.6 199.566C139.945 195.928 133.568 191.814 127.523 187.257C126.004 186.109 124.505 184.935 123.026 183.734C122.001 182.9 120.983 182.045 119.953 181.215C119.238 180.644 118.517 180.082 117.786 179.545V146.809H194.71C194.658 146.614 194.605 146.419 194.549 146.226C194.608 146.419 194.664 146.614 194.716 146.809H214.44V192.079C214.545 192.082 214.648 192.091 214.75 192.097Z" fill="#27B4EF"/>
<path opacity="0.1" d="M265.228 56.2371H252.539V52.3471H258.227V40.7595C258.72 40.9366 259.211 41.1188 259.7 41.3061V52.3471H265.228V56.2371Z" fill="#27B4EF"/>
<path opacity="0.1" d="M295.799 101.958H233.505C233.505 101.958 233.505 101.958 233.526 101.974L233.499 101.958H221.942V59.4096H225.217V90.8594H240.181V72.2338H252.542V57.544H265.231V72.246H277.592V90.8716H295.799V101.958Z" fill="#27B4EF"/>
<path opacity="0.1" d="M221.942 103.262V145.503H295.799V103.262H221.942ZM315.848 195.224L315.95 161.789H295.799V146.828H221.942V220.261C227.997 220.512 234.062 220.441 240.109 220.048H240.215C243.103 219.869 245.978 219.608 248.84 219.266H248.905C264.172 217.513 279.101 213.583 293.224 207.599" fill="#27B4EF"/>
<path opacity="0.1" d="M324.758 146.809H341.988C341.836 155.386 340.09 163.811 336.271 171.591C333.093 178.055 328.676 183.706 323.458 188.644V161.774H324.758V146.809Z" fill="#27B4EF"/>
<path opacity="0.1" d="M341.997 145.503H324.758V110.202H334.086C338.914 121.332 341.981 133.546 341.997 145.503Z" fill="#27B4EF"/>
<path opacity="0.1" d="M214.443 71.2353H204.01V84.5755H214.443V71.2353Z" fill="#27B4EF"/>
<path opacity="0.1" d="M214.443 98.8867H204.01V101.958H214.443V98.8867Z" fill="#27B4EF"/>
<path opacity="0.1" d="M214.443 103.262H204.01V112.224H214.443V103.262Z" fill="#27B4EF"/>
<path opacity="0.1" d="M214.443 126.538H204.01V139.878H214.443V126.538Z" fill="#27B4EF"/>
<path opacity="0.1" d="M214.443 154.189H204.01V167.53H214.443V154.189Z" fill="#27B4EF"/>
<path opacity="0.1" d="M214.44 192.079C214.545 192.079 214.648 192.079 214.75 192.097H214.44V195.196H204.01V181.841H214.44V192.079Z" fill="#27B4EF"/>
<path opacity="0.1" d="M214.44 209.486V219.791C210.953 219.5 207.477 219.104 204.01 218.603V209.486H214.44Z" fill="#27B4EF"/>
<path opacity="0.1" d="M162.498 144.522H117.786V145.503H162.498V144.522Z" fill="#27B4EF"/>
<path opacity="0.1" d="M162.498 146.806H117.786V150.562H162.498V146.806Z" fill="#27B4EF"/>
<path opacity="0.1" d="M162.498 162.873H117.786V168.913H162.498V162.873Z" fill="#27B4EF"/>
<path opacity="0.1" d="M162.495 181.224V187.264H127.523C126.004 186.12 124.504 184.945 123.023 183.74C121.998 182.906 120.983 182.051 119.949 181.224H162.495Z" fill="#27B4EF"/>
<path opacity="0.1" d="M162.495 199.572V205.605H158.803C154.654 203.759 150.586 201.745 146.6 199.563L162.495 199.572Z" fill="#27B4EF"/>
<path opacity="0.1" d="M248.914 107.357H240.112V116.041H248.914V107.357Z" fill="#27B4EF"/>
<path opacity="0.1" d="M58.336 66.8965H49.5341V75.5803H58.336V66.8965Z" fill="#27B4EF"/>
<path opacity="0.1" d="M58.336 87.067H49.5341V95.7508H58.336V87.067Z" fill="#27B4EF"/>
<path opacity="0.1" d="M58.336 107.238H49.5341V115.921H58.336V107.238Z" fill="#27B4EF"/>
<path opacity="0.1" d="M58.336 127.405H49.5341V136.089H58.336V127.405Z" fill="#27B4EF"/>
<path opacity="0.1" d="M58.336 147.576H49.5341V156.26H58.336V147.576Z" fill="#27B4EF"/>
<path opacity="0.1" d="M58.336 167.746H49.5341V176.43H58.336V167.746Z" fill="#27B4EF"/>
<path opacity="0.1" d="M282.516 107.357H273.714V116.041H282.516V107.357Z" fill="#27B4EF"/>
<path opacity="0.1" d="M248.914 128.776H240.112V137.46H248.914V128.776Z" fill="#27B4EF"/>
<path opacity="0.1" d="M282.516 128.776H273.714V137.46H282.516V128.776Z" fill="#27B4EF"/>
<path opacity="0.1" d="M248.914 150.193H240.112V158.876H248.914V150.193Z" fill="#27B4EF"/>
<path opacity="0.1" d="M282.516 150.193H273.714V158.876H282.516V150.193Z" fill="#27B4EF"/>
<path opacity="0.1" d="M248.914 171.612H240.112V180.296H248.914V171.612Z" fill="#27B4EF"/>
<path opacity="0.1" d="M282.516 171.612H273.714V180.296H282.516V171.612Z" fill="#27B4EF"/>
<path opacity="0.1" d="M248.914 193.031H240.112V201.715H248.914V193.031Z" fill="#27B4EF"/>
<path opacity="0.1" d="M282.516 193.031H273.714V201.715H282.516V193.031Z" fill="#27B4EF"/>
<path opacity="0.1" d="M240.112 220.048V214.448H248.911V219.251L240.112 220.048Z" fill="#27B4EF"/>
<path opacity="0.1" d="M5.57086 91.1036V96.0714H35.6936V91.1036H5.57086ZM8.57293 95.76H6.11557V91.4089H8.59149L8.57293 95.76ZM11.5719 95.76H9.09596V91.4089H11.5719V95.76ZM14.5647 95.76H12.0887V91.4089H14.5647V95.76ZM17.5636 95.76H15.0908V91.4089H17.5667L17.5636 95.76ZM20.5595 95.76H18.0836V91.4089H20.5595V95.76ZM23.5585 95.76H21.0826V91.4089H23.5585V95.76ZM26.5574 95.76H24.0815V91.4089H26.5574V95.76ZM29.5533 95.76H27.0774V91.4089H29.5533V95.76ZM32.5492 95.76H30.0733V91.4089H32.5492V95.76ZM35.5451 95.76H33.0691V91.4089H35.5451V95.76Z" fill="#27B4EF"/>
<path opacity="0.1" d="M5.57086 105.558V110.526H35.6936V105.558H5.57086ZM8.57293 110.212H6.11557V105.873H8.59149L8.57293 110.212ZM11.5719 110.212H9.09596V105.873H11.5719V110.212ZM14.5647 110.212H12.0887V105.873H14.5647V110.212ZM17.5636 110.212H15.0908V105.873H17.5667L17.5636 110.212ZM20.5595 110.212H18.0836V105.873H20.5595V110.212ZM23.5585 110.212H21.0826V105.873H23.5585V110.212ZM26.5574 110.212H24.0815V105.873H26.5574V110.212ZM29.5533 110.212H27.0774V105.873H29.5533V110.212ZM32.5492 110.212H30.0733V105.873H32.5492V110.212ZM35.5451 110.212H33.0691V105.873H35.5451V110.212Z" fill="#27B4EF"/>
<path opacity="0.1" d="M5.57086 120.019V124.996H35.6936V120.019H5.57086ZM8.57293 124.672H6.11557V120.331H8.59149L8.57293 124.672ZM11.5719 124.672H9.09596V120.331H11.5719V124.672ZM14.5647 124.672H12.0887V120.331H14.5647V124.672ZM17.5636 124.672H15.0908V120.331H17.5667L17.5636 124.672ZM20.5595 124.672H18.0836V120.331H20.5595V124.672ZM23.5585 124.672H21.0826V120.331H23.5585V124.672ZM26.5574 124.672H24.0815V120.331H26.5574V124.672ZM29.5533 124.672H27.0774V120.331H29.5533V124.672ZM32.5492 124.672H30.0733V120.331H32.5492V124.672ZM35.5451 124.672H33.0691V120.331H35.5451V124.672Z" fill="#27B4EF"/>
<path opacity="0.1" d="M5.57086 134.48V139.442H35.6936V134.48H5.57086ZM8.57293 139.133H6.11557V134.788H8.59149L8.57293 139.133ZM11.5719 139.133H9.09596V134.788H11.5719V139.133ZM14.5647 139.133H12.0887V134.788H14.5647V139.133ZM17.5636 139.133H15.0908V134.788H17.5667L17.5636 139.133ZM20.5595 139.133H18.0836V134.788H20.5595V139.133ZM23.5585 139.133H21.0826V134.788H23.5585V139.133ZM26.5574 139.133H24.0815V134.788H26.5574V139.133ZM29.5533 139.133H27.0774V134.788H29.5533V139.133ZM32.5492 139.133H30.0733V134.788H32.5492V139.133ZM35.5451 139.133H33.0691V134.788H35.5451V139.133Z" fill="#27B4EF"/>
<path opacity="0.1" d="M5.70081 148.938C5.82151 149.405 5.95768 149.872 6.10005 150.333V149.249H8.57598V153.591H7.25135C7.29159 153.692 7.33182 153.802 7.37206 153.896H35.6936V148.938H5.70081ZM11.5811 153.591H9.10521V149.249H11.5811V153.591ZM14.5739 153.591H12.098V149.249H14.5739V153.591ZM17.5729 153.591H15.0908V149.249H17.5667L17.5729 153.591ZM20.5688 153.591H18.0928V149.249H20.5688V153.591ZM23.5677 153.591H21.0918V149.249H23.5677V153.591ZM26.5667 153.591H24.0908V149.249H26.5667V153.591ZM29.5626 153.591H27.0866V149.249H29.5626V153.591ZM32.5584 153.591H30.0825V149.249H32.5584V153.591ZM35.5543 153.591H33.0784V149.249H35.5543V153.591Z" fill="#27B4EF"/>
<path opacity="0.1" d="M12.6953 163.398C12.7727 163.496 12.847 163.606 12.9274 163.704H14.5646V165.789C14.741 165.997 14.9144 166.204 15.0939 166.4V163.692H17.5698V168.049H16.567C16.6661 168.149 16.762 168.256 16.8765 168.354H35.7029V163.398H12.6953ZM20.5595 168.049H18.0836V163.71H20.5595V168.049ZM23.5584 168.049H21.0825V163.71H23.5584V168.049ZM26.5574 168.049H24.0815V163.71H26.5574V168.049ZM29.5533 168.049H27.0774V163.71H29.5533V168.049ZM32.5492 168.049H30.0732V163.71H32.5492V168.049ZM35.545 168.049H33.0691V163.71H35.545V168.049Z" fill="#27B4EF"/>
<path opacity="0.1" d="M29.2191 177.856C29.5007 178.015 29.7885 178.161 30.0794 178.32V178.168H32.5554V179.542L33.0815 179.783V178.168H35.5574V180.809C35.6049 180.832 35.6547 180.85 35.706 180.864V177.856H29.2191Z" fill="#27B4EF"/>
<path opacity="0.1" d="M233.505 101.958H233.523H233.505ZM214.44 192.076H214.75H214.44ZM194.549 146.223C194.608 146.419 194.658 146.614 194.713 146.806C194.664 146.614 194.611 146.419 194.549 146.223ZM233.505 101.949H233.523H233.505ZM46.5722 56.2279V57.5317H60.3972V56.2279H46.5722ZM214.44 192.076H214.75H214.44ZM194.549 146.223C194.608 146.419 194.658 146.614 194.713 146.806C194.664 146.614 194.611 146.419 194.549 146.223ZM233.505 101.949H233.523H233.505ZM214.44 192.067H214.75H214.44ZM194.549 146.223C194.608 146.419 194.658 146.614 194.713 146.806C194.664 146.614 194.611 146.419 194.549 146.223Z" fill="#27B4EF"/>
<path d="M142.861 115.928C142.861 115.928 141.642 115.76 141.642 114.007C141.642 112.254 140.769 108.981 140.769 108.981C140.769 108.966 140.014 103.28 138.971 102.377C137.928 101.473 136.588 96.1661 136.588 96.1661C136.588 96.1661 136.359 93.2868 135.891 92.667C135.424 92.0471 134.793 90.5296 133.861 88.3647C132.93 86.1999 129.045 84.7007 129.045 84.7007C129.045 84.7007 122.023 80.6824 120.033 79.3725C119.852 79.2649 119.683 79.1391 119.529 78.997C119.182 78.5481 117.672 78.539 117.672 78.539C117.514 77.5558 117.362 76.426 117.313 75.4032C117.313 75.2932 117.313 75.1833 117.297 75.0734C119.516 73.7793 121.188 71.739 122.004 69.3269C122.042 69.2109 122.073 69.0888 122.107 68.9727C122.24 68.9295 122.362 68.8594 122.466 68.7669C122.57 68.6744 122.653 68.5614 122.71 68.4354C122.89 68.0415 122.893 67.5804 123.116 67.214C123.376 66.7804 123.871 66.5484 124.261 66.2217C125.245 65.3972 125.499 64.008 125.452 62.7439C125.421 61.721 125.254 60.6889 125.319 59.6722L125.338 59.4157C125.356 59.263 125.378 59.1103 125.406 58.9638C125.557 58.2065 125.889 57.4921 126.074 56.7409C126.26 55.9898 126.279 55.144 125.845 54.4967C125.211 53.5471 123.889 53.3578 122.729 53.2601C121.413 53.1502 120.237 53.2937 119.395 52.2158C119.001 51.6525 118.558 51.1243 118.071 50.6372C117.898 50.4784 116.214 49.4647 116.214 49.3976C114.571 48.6467 112.708 48.5058 110.968 49.0006C110.095 49.251 109.272 49.6601 108.387 49.8647C106.477 50.3105 104.28 49.8281 102.658 50.9059C101.754 51.5166 101.213 52.4876 100.705 53.4341C100.293 54.2137 99.8738 54.9924 99.4488 55.7699C98.7648 57.0493 98.0684 58.3501 97.7806 59.7668C97.7201 60.0751 97.6829 60.3874 97.6692 60.7012V60.7164C97.6692 60.8294 97.6692 60.9424 97.6692 61.0553V61.1989C97.6692 61.3057 97.6692 61.4095 97.6878 61.5042C97.7063 61.5988 97.7032 61.6294 97.7125 61.6935C97.7218 61.7576 97.7373 61.9011 97.7559 61.9988C97.7744 62.0965 97.8116 62.2675 97.8487 62.4019C97.8642 62.4599 97.8858 62.5149 97.9044 62.5698C97.9354 62.6736 97.9725 62.7744 98.0127 62.8752C98.0344 62.9271 98.0561 62.982 98.0808 63.0339C98.1272 63.1408 98.183 63.2446 98.2387 63.3393C98.2634 63.382 98.282 63.4217 98.3068 63.4614C98.3931 63.6034 98.4882 63.74 98.5915 63.8706C99.2538 64.6858 100.229 65.2049 100.95 65.9682C100.95 65.9988 100.95 66.0293 100.95 66.0568C100.95 66.1423 100.95 66.2247 100.95 66.3102C100.988 68.0126 101.447 69.68 102.288 71.1674C103.128 72.6548 104.324 73.917 105.772 74.8444C105.772 74.9604 105.787 75.0795 105.793 75.1955C105.854 76.1019 105.842 77.0115 105.759 77.9161C105.633 77.7696 105.476 77.653 105.298 77.5748C105.12 77.4966 104.926 77.4588 104.732 77.4642C104.599 77.4578 104.466 77.4691 104.336 77.4978L104.308 77.4764V77.5039C103.627 77.6688 102.788 78.368 101.987 80.3557C101.987 80.3557 99.5478 83.0671 97.6909 82.9542C95.8339 82.8412 91.1328 85.7755 91.1328 85.7755C91.1328 85.7755 86.5461 88.7128 85.5619 91.7051C85.0118 93.4019 84.3523 95.0623 83.5874 96.676L77.9175 108.203L76.8714 117.347C76.8714 117.347 77.4501 121.414 77.3356 122.034C77.2211 122.654 79.7156 128.245 79.7156 128.245C79.7156 128.245 87.9574 142.532 91.3246 143.264L91.566 143.097C91.7101 143.171 91.8629 143.227 92.021 143.264L92.7142 142.782C92.7559 143.32 92.7382 143.86 92.6616 144.394C92.1974 145.805 92.835 155.011 93.6458 156.815C94.4567 158.62 94.1689 182.281 94.1689 182.281L94.0543 184.369C94.0543 184.369 94.0543 184.436 94.0822 184.552L94.0543 185.047L94.1379 185.09C94.2247 185.752 94.1964 186.424 94.0543 187.077C93.7634 187.993 93.6458 190.583 93.6458 190.583C93.6458 190.583 91.3277 205.202 92.4264 208.14C93.5251 211.077 94.4598 214.295 94.4598 214.295C94.4598 214.295 95.6204 217.959 94.5155 218.585C93.4106 219.211 90.2693 220.261 90.9161 221.788C91.5041 223.199 93.7356 226.979 94.0667 227.532L94.0389 227.822L93.5839 232.686C93.6576 233.328 93.8341 233.954 94.107 234.542C94.6052 235.602 95.5739 236.701 97.4154 236.582C97.7249 236.56 98.0839 236.524 98.4305 236.478C101.801 236.032 105.951 234.548 105.951 234.548C105.736 234.413 105.538 234.252 105.363 234.069C105.197 233.911 105.066 233.721 104.977 233.511C104.889 233.301 104.844 233.075 104.846 232.847C104.896 231.962 103.215 227.742 102.797 226.704C102.732 226.554 102.698 226.469 102.698 226.469C102.698 226.469 106.53 222.518 105.892 219.016C105.892 219.016 101.652 216.573 103.048 215.233C104.444 213.892 106.938 210.042 106.938 210.042C106.938 210.042 107.053 195.645 106.938 193.496C106.819 192.004 106.891 190.503 107.152 189.028C107.198 188.806 107.254 188.589 107.313 188.375C109.243 188.659 111.192 188.805 113.144 188.812C113.856 188.812 114.58 188.812 115.31 188.769C115.31 188.972 115.319 189.192 115.338 189.428C115.499 192.995 115.799 199.248 116.044 201.572C116.39 204.903 118.306 213.88 118.306 213.88C118.306 213.88 114.651 216.194 118.944 221.898C118.944 221.898 118.944 223.965 118.659 224.264C118.355 225.243 118.11 226.238 117.925 227.245C117.746 228.319 117.672 229.406 117.963 229.971C118.659 231.321 122.837 231.211 122.837 231.211L122.939 231.193C123.728 231.112 124.525 231.187 125.284 231.413C126.043 231.639 126.75 232.011 127.362 232.509C128.949 233.767 134.975 233.214 138.237 232.814C139.515 232.655 140.37 232.509 140.37 232.509C140.411 232.366 140.426 232.217 140.413 232.069C140.379 231.278 139.751 229.544 135.492 227.996C135.492 227.996 131.487 225.339 131.543 223.025H131.459H130.995C131.333 223.006 131.549 223.025 131.549 223.025C131.549 223.025 129.98 217.376 130.621 216.918C131.261 216.46 129.343 210.201 129.343 210.201C129.343 210.201 128.244 199.697 128.185 198.961C128.187 198.33 128.284 197.702 128.473 197.099L128.185 191.34C128.185 191.34 128.129 189.425 128.185 188.803C128.176 188.262 128.131 187.722 128.052 187.187C128.024 186.974 127.996 186.751 127.965 186.531C129.466 186.155 130.441 185.807 130.441 185.807L130.268 165.762C131.543 163.319 131.778 157.96 131.772 154.159C131.772 151.716 131.661 149.909 131.661 149.909L133.403 147.103C133.403 147.103 133.805 143.744 133.168 143.008C132.886 142.675 133.013 142.33 133.245 142.046C133.366 141.952 133.493 141.866 133.626 141.79C133.626 141.79 133.607 141.762 133.586 141.723C133.707 141.622 133.837 141.531 133.972 141.451C133.972 141.451 133.354 140.504 133.908 140.104C134.427 140.452 134.892 140.715 135.245 140.929C135.22 141.152 135.195 141.28 135.195 141.28L135.344 140.974C135.684 141.164 135.891 141.28 135.891 141.28C135.891 141.28 138.621 135.915 138.562 135.124C138.503 134.333 140.419 131.002 140.419 131.002C140.419 131.002 140.651 129.253 141.697 128.52C142.743 127.787 142.508 122.477 142.508 122.477C142.508 122.477 142.799 119.711 143.496 118.581C144.192 117.451 142.861 115.928 142.861 115.928ZM90.6314 113.573L90.684 114.853C90.3745 114.361 90.1517 114.007 90.1517 114.007L90.6314 113.573Z" fill="url(#paint0_linear)"/>
<path d="M136.04 138.962L135.371 141.771C135.371 141.771 130.017 139.075 129.052 135.649C128.086 132.223 130.667 130.923 130.667 130.923L135.656 133.008L136.04 138.962Z" fill="white"/>
<path opacity="0.1" d="M136.04 138.962L135.371 141.771C135.371 141.771 130.017 139.075 129.052 135.649C128.086 132.223 130.667 130.923 130.667 130.923L135.656 133.008L136.04 138.962Z" fill="black"/>
<path d="M105.991 234.566C105.991 234.566 101.04 236.362 97.6351 236.588C95.8277 236.707 94.8776 235.614 94.3886 234.56C94.1215 233.975 93.9491 233.351 93.8779 232.713L94.3205 227.874L94.5557 225.296L101.789 223.443L102.813 226.533L102.909 226.768C103.321 227.8 104.97 231.999 104.921 232.875C104.919 233.099 104.962 233.322 105.05 233.529C105.137 233.736 105.266 233.924 105.428 234.081C105.594 234.266 105.783 234.429 105.991 234.566Z" fill="white"/>
<path d="M139.816 232.106C139.828 232.252 139.813 232.4 139.772 232.542C139.772 232.542 129.182 234.286 127.015 232.542C126.404 232.033 125.692 231.655 124.925 231.433C124.157 231.211 123.351 231.15 122.558 231.254C122.558 231.254 118.461 231.364 117.777 230.032C117.492 229.473 117.566 228.39 117.743 227.321C117.923 226.319 118.163 225.329 118.461 224.356L118.625 224.228L119.6 223.455L131.014 223.122H131.1C131.045 225.425 134.975 228.066 134.975 228.066C139.15 229.593 139.766 231.318 139.816 232.106Z" fill="white"/>
<path opacity="0.1" d="M139.816 232.105C139.827 232.253 139.811 232.4 139.769 232.542C139.769 232.542 129.182 234.286 127.015 232.542C126.405 232.033 125.693 231.656 124.926 231.434C124.159 231.212 123.354 231.151 122.562 231.254C122.562 231.254 118.461 231.364 117.78 230.032C117.495 229.47 117.566 228.39 117.743 227.321C119.321 227.477 121.813 227.864 122.791 228.79C124.27 230.197 126.777 231.602 128.315 231.712C129.519 231.788 136.721 232.014 139.816 232.105Z" fill="black"/>
<path opacity="0.1" d="M105.991 234.566C105.991 234.566 101.04 236.362 97.6351 236.588C95.8277 236.707 94.8776 235.614 94.3917 234.557C95.6513 234.976 97.3999 235.415 98.3191 235.012C99.4085 234.536 103.271 234.228 105.437 234.096C105.602 234.274 105.788 234.432 105.991 234.566Z" fill="black"/>
<path d="M113.339 89.8822C109.253 88.3159 103.998 83.1404 105.31 80.7221C105.602 80.1119 105.775 79.4532 105.821 78.7802C105.906 77.8665 105.918 76.9477 105.858 76.0321C105.766 74.5326 105.583 73.0399 105.31 71.562C105.31 71.562 118.065 71.8459 117.322 73.6993C117.105 74.2428 117.071 75.1863 117.13 76.2428C117.189 77.2993 117.344 78.4931 117.504 79.5038C117.727 80.89 117.95 81.9465 117.95 81.9465C117.95 81.9465 117.17 83.0244 116.712 83.0824C116.254 83.1404 119.2 92.1143 113.339 89.8822Z" fill="#CF6F80"/>
<path opacity="0.1" d="M102.9 226.768L102.804 226.872C98.9907 222.322 94.3793 227.993 94.3793 227.993L94.3112 227.873L94.5464 225.296L101.779 223.443L102.804 226.533L102.9 226.768Z" fill="black"/>
<path opacity="0.1" d="M131.103 223.443C131.103 223.443 128.318 223.385 126.833 224.68C125.347 225.974 118.167 224.961 118.476 224.68C118.568 224.54 118.623 224.381 118.637 224.216L119.612 223.443L131.026 223.11C131.069 223.315 131.103 223.443 131.103 223.443Z" fill="black"/>
<path d="M107.644 187.715C107.437 188.221 107.279 188.746 107.174 189.282C106.916 190.749 106.844 192.243 106.96 193.728C107.075 195.865 106.96 210.188 106.96 210.188C106.96 210.188 104.512 214.008 103.147 215.355C101.782 216.701 105.933 219.119 105.933 219.119C106.552 222.6 102.801 226.533 102.801 226.533C98.9876 221.984 94.3762 227.657 94.3762 227.657C94.3762 227.657 91.8693 223.382 91.2442 221.855C90.619 220.329 93.6922 219.272 94.7723 218.652C95.8525 218.032 94.7197 214.378 94.7197 214.378C94.7197 214.378 93.8067 211.175 92.7235 208.252C91.6403 205.33 93.9182 190.784 93.9182 190.784C93.9182 190.784 94.0358 188.201 94.3174 187.3C94.4595 186.65 94.4878 185.981 94.401 185.322C94.3824 185.099 94.3607 184.912 94.3452 184.787C94.3298 184.662 94.3174 184.604 94.3174 184.604L94.3607 184.531L95.9082 181.685C95.9082 181.685 108.387 185.923 107.644 187.715Z" fill="#27B4EF"/>
<path d="M131.103 223.107C131.103 223.107 128.318 223.049 126.833 224.329C125.347 225.608 118.167 224.609 118.476 224.329C118.786 224.048 118.761 221.968 118.761 221.968C114.549 216.295 118.142 213.993 118.142 213.993C118.142 213.993 116.26 205.062 115.92 201.749C115.682 199.434 115.388 193.215 115.23 189.664C115.162 188.137 115.121 187.086 115.121 187.086L118.563 186.403L119.006 186.314L127.306 184.671C127.306 184.671 127.535 186.198 127.69 187.447C127.767 187.98 127.81 188.517 127.82 189.056C127.764 189.667 127.82 191.578 127.82 191.578L128.101 197.309C127.917 197.91 127.823 198.535 127.82 199.163C127.875 199.892 128.956 210.341 128.956 210.341C128.956 210.341 130.834 216.576 130.194 217.025C129.553 217.474 131.103 223.107 131.103 223.107Z" fill="#27B4EF"/>
<path opacity="0.1" d="M117.322 73.6993C117.105 74.2429 117.071 75.1863 117.13 76.2428C115.422 77.2578 113.458 77.7767 111.464 77.7399C109.47 77.7032 107.527 77.1123 105.858 76.0352C105.766 74.5347 105.584 73.0409 105.311 71.562C105.311 71.562 118.065 71.8398 117.322 73.6993Z" fill="black"/>
<path d="M122.252 66.9514C122.255 68.0517 122.079 69.1453 121.732 70.1911C120.957 72.5341 119.367 74.5313 117.243 75.8296C115.12 77.128 112.599 77.6439 110.127 77.2862C107.655 76.9284 105.391 75.7201 103.735 73.8748C102.079 72.0294 101.137 69.6658 101.077 67.2018C101.077 67.1163 101.077 67.0369 101.077 66.9514C101.053 65.5645 101.309 64.1867 101.83 62.8984C102.352 61.6101 103.128 60.4371 104.113 59.4479C105.099 58.4587 106.275 57.673 107.571 57.1367C108.868 56.6004 110.26 56.3241 111.666 56.3241C113.072 56.3241 114.464 56.6004 115.761 57.1367C117.057 57.673 118.233 58.4587 119.218 59.4479C120.204 60.4371 120.98 61.6101 121.502 62.8984C122.023 64.1867 122.279 65.5645 122.255 66.9514H122.252Z" fill="#CF6F80"/>
<path opacity="0.1" d="M113.339 89.8823C109.253 88.3159 103.998 83.1404 105.31 80.7221C105.602 80.1119 105.775 79.4532 105.821 78.7802L111.414 83.3144L114.874 86.1144L117.504 79.5069C117.727 80.8931 117.95 81.9496 117.95 81.9496C117.95 81.9496 117.17 83.0274 116.712 83.0854C116.254 83.1434 119.2 92.1143 113.339 89.8823Z" fill="black"/>
<path d="M127.801 109.922L123.131 187.325L117.04 187.719L101.269 142.837L103.856 89.5525L104.401 78.2947L111.414 83.977L114.877 86.777L117.585 79.9771L122.62 84.3068L127.801 109.922Z" fill="#27B4EF"/>
<path opacity="0.1" d="M107.644 187.715C107.437 188.221 107.279 188.746 107.174 189.282C102.742 188.607 98.4374 187.28 94.4041 185.346L94.3205 185.303L94.3483 184.812L94.3638 184.555L95.9113 181.709C95.9113 181.709 108.387 185.923 107.644 187.715Z" fill="black"/>
<path opacity="0.1" d="M118.634 189.294C117.501 189.484 116.358 189.613 115.211 189.679C115.143 188.152 115.103 187.102 115.103 187.102L118.544 186.418L118.634 189.294Z" fill="black"/>
<path opacity="0.1" d="M127.671 187.462C125.471 188.027 122.073 188.662 119.03 188.265L118.987 186.329L127.287 184.687C127.287 184.687 127.517 186.198 127.671 187.462Z" fill="black"/>
<path opacity="0.1" d="M118.975 188.619C106.285 190.757 94.664 184.629 94.664 184.629L94.7755 182.552C94.7755 182.552 95.0633 159.014 94.2648 157.209C93.4663 155.405 92.8442 146.254 93.2961 144.849C93.7479 143.445 91.6465 122.382 91.6465 122.382L91.3061 113.833L78.8459 108.853L84.4168 97.3966C85.1692 95.7904 85.8164 94.1382 86.3542 92.4501C87.3229 89.4761 91.8198 86.5541 91.8198 86.5541C91.8198 86.5541 96.4312 83.635 98.2541 83.7449C100.077 83.8549 102.466 81.1618 102.466 81.1618C104.23 76.7252 105.827 78.7344 105.827 78.7344C105.827 78.945 105.827 78.7344 105.741 79.3908C105.122 84.261 115.75 99.65 115.901 99.9217L116.913 124.245L117.938 155.026L118.975 188.619Z" fill="black"/>
<path d="M118.634 188.619C105.945 190.757 94.3205 184.629 94.3205 184.629L94.435 182.552C94.435 182.552 94.7228 159.014 93.9212 157.209C93.1197 155.405 92.5007 146.254 92.9556 144.849C93.4106 143.445 91.3061 122.382 91.3061 122.382L90.9625 113.833L78.4962 108.835L84.0671 97.3783C84.8179 95.7714 85.465 94.1193 86.0045 92.4318C86.9701 89.4578 91.4701 86.5357 91.4701 86.5357C91.4701 86.5357 96.0815 83.6167 97.9013 83.7266C99.7211 83.8366 102.113 81.1435 102.113 81.1435C103.881 76.7069 105.827 78.716 105.827 78.716C105.827 78.9267 105.642 79.0214 105.741 79.3725C107.102 84.0961 115.409 99.6317 115.561 99.9034L116.585 124.227L117.61 155.008L118.634 188.619Z" fill="white"/>
<path opacity="0.1" d="M115.214 100.597C113.849 100.035 106.62 91.8914 106.62 91.8914V90.038C106.357 89.4273 104.794 89.7998 103.525 90.2273L104.069 78.9695L104.688 79.4763C106.044 84.1969 115.056 100.325 115.214 100.597Z" fill="black"/>
<path d="M115.558 99.9217C114.19 99.3599 106.96 91.2166 106.96 91.2166V89.3632C106.697 88.7525 105.134 89.125 103.865 89.5525L104.413 78.2947L105.032 78.8015C106.391 83.5221 115.406 99.653 115.558 99.9217Z" fill="white"/>
<path opacity="0.1" d="M94.664 140.535C94.8342 140.535 103.488 139.637 103.488 139.637C103.488 139.637 108.727 149.802 108.384 152.275C108.04 154.748 107.418 156.937 105.31 156.55C103.203 156.162 93.9677 156.855 93.9677 156.855L94.664 140.535Z" fill="black"/>
<path d="M94.3205 139.86C94.4907 139.86 103.144 138.962 103.144 138.962C103.144 138.962 108.381 149.13 108.04 151.6C107.7 154.07 107.072 156.263 104.967 155.875C102.862 155.487 93.6241 156.18 93.6241 156.18L94.3205 139.86Z" fill="white"/>
<path d="M100.841 135.087C100.841 135.087 108.783 139.298 108.953 140.584C109.123 141.869 104.911 140.022 104.001 139.799C103.403 139.656 102.793 139.563 102.179 139.518L96.1094 139.68L100.841 135.087Z" fill="#CF6F80"/>
<path opacity="0.1" d="M112.998 101.122C113.46 101.122 113.834 100.753 113.834 100.297C113.834 99.842 113.46 99.4729 112.998 99.4729C112.537 99.4729 112.163 99.842 112.163 100.297C112.163 100.753 112.537 101.122 112.998 101.122Z" fill="black"/>
<path d="M112.998 100.786C113.46 100.786 113.834 100.417 113.834 99.9614C113.834 99.5061 113.46 99.137 112.998 99.137C112.537 99.137 112.163 99.5061 112.163 99.9614C112.163 100.417 112.537 100.786 112.998 100.786Z" fill="#3F3D56"/>
<path opacity="0.1" d="M114.536 136.81C114.998 136.81 115.372 136.44 115.372 135.985C115.372 135.53 114.998 135.161 114.536 135.161C114.075 135.161 113.701 135.53 113.701 135.985C113.701 136.44 114.075 136.81 114.536 136.81Z" fill="black"/>
<path d="M114.536 136.471C114.998 136.471 115.372 136.102 115.372 135.646C115.372 135.191 114.998 134.822 114.536 134.822C114.075 134.822 113.701 135.191 113.701 135.646C113.701 136.102 114.075 136.471 114.536 136.471Z" fill="#3F3D56"/>
<path opacity="0.1" d="M113.831 118.966C114.292 118.966 114.666 118.597 114.666 118.141C114.666 117.686 114.292 117.317 113.831 117.317C113.369 117.317 112.995 117.686 112.995 118.141C112.995 118.597 113.369 118.966 113.831 118.966Z" fill="black"/>
<path d="M113.831 118.63C114.292 118.63 114.666 118.261 114.666 117.805C114.666 117.35 114.292 116.981 113.831 116.981C113.369 116.981 112.995 117.35 112.995 117.805C112.995 118.261 113.369 118.63 113.831 118.63Z" fill="#3F3D56"/>
<path d="M133.094 139.347C133.094 139.347 133.663 140.19 133.094 140.584C132.524 140.977 133.149 141.93 133.149 141.93C133.149 141.93 131.729 142.751 132.354 143.49C132.979 144.229 132.583 147.567 132.583 147.567L130.874 150.357C130.874 150.357 130.977 152.156 130.983 154.586C130.983 158.379 130.757 163.71 129.507 166.14L129.68 186.082C129.68 186.082 123.697 188.238 118.69 187.581L117.947 155.582C117.947 155.582 119.03 137.436 119.429 133.955C119.663 132.148 119.758 130.326 119.714 128.504C119.714 128.504 119.544 123.057 118.971 120.529C118.971 120.529 118.352 109.577 118.291 106.545C118.263 105.094 118.34 100.862 118.427 96.8378C118.523 92.4379 118.631 88.2884 118.631 88.2884L117.501 79.4702C117.501 79.4702 118.631 79.3573 118.971 79.8061C119.124 79.9466 119.29 80.0724 119.467 80.1817C121.416 81.4824 128.306 85.4823 128.306 85.4823C128.306 85.4823 132.119 86.9785 133.032 89.122C133.945 91.2654 134.579 92.786 135.022 93.3967C135.464 94.0074 135.706 96.8775 135.706 96.8775C135.706 96.8775 137.018 102.16 138.042 103.055C139.067 103.949 139.816 109.641 139.816 109.641L130.763 116.663C130.763 116.663 129.968 128.346 129.797 128.798C129.627 129.249 133.094 139.347 133.094 139.347Z" fill="white"/>
<path d="M133.437 139.347C133.437 139.347 134.003 140.19 133.437 140.584C132.871 140.977 133.49 141.93 133.49 141.93C133.49 141.93 132.078 142.761 132.697 143.5C133.316 144.238 132.926 147.576 132.926 147.576L131.218 150.367C131.218 150.367 131.32 152.165 131.329 154.595C131.329 158.388 131.104 163.719 129.853 166.149L130.023 186.091C130.023 186.091 124.032 188.247 119.03 187.59L118.291 155.591C118.291 155.591 119.374 137.445 119.773 133.964C120.007 132.157 120.101 130.335 120.055 128.514C120.055 128.514 119.884 123.066 119.315 120.538C119.315 120.538 118.696 109.586 118.631 106.554C118.603 105.103 118.684 100.871 118.767 96.847C118.863 92.4471 118.971 88.2975 118.971 88.2975L117.48 79.3603C117.48 79.3603 118.971 79.3603 119.315 79.8153C119.466 79.9575 119.632 80.0834 119.81 80.1908C121.76 81.4916 128.652 85.4915 128.652 85.4915C128.652 85.4915 132.462 86.9876 133.375 89.1311C134.288 91.2746 134.923 92.7952 135.368 93.4058C135.814 94.0165 136.049 96.8867 136.049 96.8867C136.049 96.8867 137.361 102.169 138.386 103.064C139.41 103.958 140.15 109.638 140.15 109.638L131.097 116.66C131.097 116.66 130.302 128.343 130.129 128.794C129.955 129.246 133.437 139.347 133.437 139.347Z" fill="white"/>
<path opacity="0.1" d="M122.596 90.8899L123.413 93.241L119.111 97.5157C119.207 93.1188 119.315 88.9662 119.315 88.9662L117.823 80.029C117.823 80.029 119.315 80.029 119.659 80.484C119.809 80.6258 119.975 80.7507 120.154 80.8565L123.812 91.2685L122.596 90.8899Z" fill="black"/>
<path d="M122.252 90.2151L123.072 92.5662L118.77 96.8409C118.866 92.441 118.975 88.2915 118.975 88.2915L117.48 79.3542C117.48 79.3542 118.975 79.3542 119.315 79.8092C119.467 79.9505 119.633 80.0763 119.81 80.1847L123.471 90.5937L122.252 90.2151Z" fill="white"/>
<path opacity="0.1" d="M122.252 66.9514C122.255 68.0517 122.079 69.1453 121.732 70.191C121.674 70.2001 121.614 70.1974 121.557 70.1832C121.499 70.1691 121.445 70.1437 121.398 70.1086C121.317 67.3606 119.946 64.7805 118.26 62.5851C117.786 61.9222 117.212 61.3352 116.557 60.8447C115.896 60.3543 115.073 60.1247 114.249 60.2004C113.32 60.3256 112.5 60.9485 111.562 61.0279C110.324 61.1286 109.216 60.2828 107.988 60.2401C107.488 60.2448 106.995 60.3545 106.542 60.5619C106.089 60.7694 105.686 61.0698 105.36 61.4431C104.715 62.1965 104.235 63.0741 103.952 64.0202C103.465 65.4548 103.2 66.9535 103.166 68.4659C103.15 69.3208 103.067 70.3926 102.262 70.704C102.323 70.0753 102.25 69.4409 102.049 68.8412C101.848 68.2415 101.524 67.6895 101.095 67.2201L101.077 67.2018C101.077 67.1163 101.077 67.0369 101.077 66.9514C101.053 65.5644 101.309 64.1866 101.83 62.8984C102.352 61.6101 103.128 60.4371 104.113 59.4479C105.099 58.4587 106.275 57.673 107.571 57.1367C108.868 56.6004 110.26 56.3241 111.666 56.3241C113.072 56.3241 114.464 56.6004 115.761 57.1367C117.057 57.673 118.233 58.4587 119.218 59.4479C120.204 60.4371 120.98 61.6101 121.502 62.8984C122.023 64.1866 122.279 65.5644 122.255 66.9514H122.252Z" fill="black"/>
<path d="M116.05 50.3624C114.442 49.616 112.612 49.4749 110.906 49.9655C110.049 50.2158 109.241 50.6219 108.371 50.8265C106.514 51.2692 104.348 50.7899 102.754 51.8616C101.869 52.4723 101.337 53.4371 100.841 54.3745L99.6035 56.7012C98.9288 57.9745 98.2479 59.2691 97.9663 60.6706C97.6847 62.0721 97.8549 63.6415 98.7555 64.7682C99.4116 65.5896 100.38 66.1056 101.092 66.8781C101.519 67.348 101.842 67.8997 102.042 68.4987C102.243 69.0976 102.315 69.731 102.256 70.359C103.064 70.0536 103.141 68.9788 103.16 68.1239C103.194 66.6115 103.459 65.1128 103.946 63.6782C104.228 62.7318 104.708 61.8541 105.354 61.1011C105.68 60.7281 106.083 60.4279 106.536 60.2205C106.989 60.0131 107.482 59.9032 107.981 59.8981C109.219 59.9408 110.33 60.7836 111.556 60.6828C112.485 60.6065 113.308 59.9805 114.242 59.8584C115.067 59.7815 115.89 60.0113 116.551 60.5027C117.206 60.9925 117.779 61.5796 118.25 62.2431C119.94 64.4385 121.311 67.0125 121.392 69.7666C121.741 70.02 122.246 69.6903 122.419 69.2994C122.593 68.9086 122.599 68.4506 122.818 68.0781C123.072 67.6476 123.558 67.4185 123.939 67.0949C124.904 66.2735 125.146 64.8904 125.109 63.6354C125.072 62.3805 124.824 61.1072 125.065 59.8737C125.211 59.1164 125.539 58.408 125.718 57.66C125.898 56.9119 125.92 56.0722 125.496 55.4279C124.877 54.4814 123.574 54.2951 122.438 54.2066C121.147 54.0967 119.993 54.2371 119.17 53.1654C118.783 52.6061 118.348 52.081 117.87 51.596C117.706 51.4372 116.05 50.4296 116.05 50.3624Z" fill="#512E4E"/>
<path opacity="0.1" d="M82.4113 114.752L79.1771 108.853L78.1527 117.955C78.1527 117.955 78.7222 121.998 78.6077 122.617C78.4932 123.237 80.9412 128.794 80.9412 128.794C80.9412 128.794 89.0282 143.005 92.3305 143.738L103.488 135.872L100.529 132.165C100.529 132.165 99.5045 131.772 99.2476 132.165C99.2476 132.165 93.7542 122.84 93.1847 122.166C92.6152 121.491 92.7267 120.144 92.7267 120.144C92.7267 120.144 91.8725 119.247 92.1572 118.404C92.4419 117.561 90.5076 114.639 90.5076 114.639L92.2717 113.012L82.4113 114.752Z" fill="black"/>
<path d="M79.3473 108.181L78.4931 108.853L77.4687 117.955C77.4687 117.955 78.0382 121.998 77.9236 122.617C77.8091 123.237 80.2603 128.794 80.2603 128.794C80.2603 128.794 88.3442 143.005 91.6465 143.738L102.807 135.872L99.8449 132.165C99.8449 132.165 98.8205 131.772 98.5636 132.165C98.5636 132.165 93.0701 122.84 92.5007 122.166C91.9312 121.491 92.0457 120.144 92.0457 120.144C92.0457 120.144 91.1915 119.247 91.4763 118.404C91.761 117.561 89.8236 114.639 89.8236 114.639L91.5877 113.012L79.3473 108.181Z" fill="white"/>
<path opacity="0.1" d="M132.354 143.838C132.973 144.58 132.583 147.912 132.583 147.912L130.874 150.702C130.874 150.702 130.977 152.504 130.983 154.931L128.111 155.817C127.851 155.897 127.576 155.914 127.308 155.868C127.04 155.822 126.788 155.713 126.571 155.551C126.354 155.389 126.18 155.177 126.063 154.935C125.946 154.693 125.889 154.427 125.898 154.159L126.393 138.4L133.094 140.929C132.524 141.319 133.149 142.278 133.149 142.278C133.149 142.278 131.729 143.096 132.354 143.838Z" fill="black"/>
<path d="M132.697 143.5C133.316 144.242 132.926 147.576 132.926 147.576L131.218 150.367C131.218 150.367 131.32 152.165 131.329 154.595L128.405 155.496C128.151 155.574 127.881 155.591 127.619 155.546C127.357 155.5 127.109 155.393 126.898 155.234C126.686 155.076 126.515 154.869 126.401 154.632C126.286 154.395 126.23 154.134 126.238 153.872L126.737 138.065L133.44 140.593C132.868 140.984 133.493 141.939 133.493 141.939C133.493 141.939 132.078 142.761 132.697 143.5Z" fill="white"/>
<path d="M134.916 135.988C134.916 135.988 134.461 138.855 133.323 139.023C132.184 139.191 131.673 143.661 130.537 143.503C129.401 143.344 130.153 139.347 130.194 138.571C130.234 137.796 128.956 134.584 129.912 133.854C130.868 133.124 133.895 133.854 133.895 133.854L134.916 135.988Z" fill="#CF6F80"/>
<path opacity="0.1" d="M137.34 113.909L139.488 109.635C139.488 109.635 140.342 112.893 140.342 114.633C140.342 116.373 141.536 116.544 141.536 116.544C141.536 116.544 142.846 118.071 142.155 119.182C141.465 120.294 141.187 123.06 141.187 123.06C141.187 123.06 141.413 128.34 140.388 129.069C139.364 129.799 139.15 131.543 139.15 131.543C139.15 131.543 137.269 134.855 137.327 135.643C137.386 136.431 134.709 141.765 134.709 141.765C134.709 141.765 136.018 135.136 128.389 132.272C128.389 132.272 128.33 130.022 128.9 129.405C129.469 128.788 130.358 128.507 129.801 125.39C129.244 122.272 129.64 118.547 129.64 117.799C129.64 117.051 131.348 112.386 131.348 112.386L137.34 113.909Z" fill="black"/>
<path d="M138.268 109.024L140.144 109.635C140.144 109.635 141.001 112.892 141.001 114.633C141.001 116.373 142.196 116.544 142.196 116.544C142.196 116.544 143.505 118.071 142.815 119.182C142.124 120.294 141.849 123.06 141.849 123.06C141.849 123.06 142.075 128.34 141.051 129.069C140.026 129.799 139.797 131.543 139.797 131.543C139.797 131.543 137.918 134.855 137.977 135.643C138.036 136.431 135.356 141.765 135.356 141.765C135.356 141.765 136.668 135.136 129.036 132.272C129.036 132.272 128.98 130.022 129.55 129.405C130.119 128.788 131.008 128.507 130.45 125.39C129.893 122.272 130.29 118.547 130.29 117.799C130.29 117.051 131.998 112.386 131.998 112.386L138.268 109.024Z" fill="white"/>
<path opacity="0.1" d="M96.8428 219.822C96.8428 219.822 99.8325 217.968 101.795 219.315C103.757 220.661 96.8428 219.822 96.8428 219.822Z" fill="black"/>
<path opacity="0.1" d="M120.073 214.091C120.073 214.091 122.719 213.755 124.942 216.115C127.164 218.475 120.073 214.091 120.073 214.091Z" fill="black"/>
<g opacity="0.1">
<path opacity="0.1" d="M123.945 66.4262C123.564 66.7499 123.075 66.9819 122.822 67.4125C122.605 67.7819 122.599 68.2369 122.425 68.6338C122.252 69.0308 121.748 69.3544 121.398 69.104C121.317 66.356 119.943 63.7759 118.257 61.5775C117.785 60.914 117.212 60.3269 116.557 59.8371C115.895 59.3457 115.071 59.116 114.246 59.1928C113.317 59.318 112.5 59.9409 111.562 60.0172C110.324 60.121 109.213 59.2752 107.985 59.2325C107.485 59.2374 106.993 59.3475 106.54 59.5555C106.087 59.7636 105.685 60.0646 105.36 60.4386C104.714 61.1904 104.234 62.0671 103.952 63.0126C103.466 64.4472 103.201 65.9459 103.166 67.4583C103.147 68.3102 103.067 69.3727 102.268 69.6903C102.287 69.9159 102.287 70.1426 102.268 70.3681C103.073 70.0628 103.153 68.988 103.172 68.1331C103.206 66.6206 103.471 65.122 103.958 63.6874C104.241 62.741 104.72 61.8633 105.366 61.1103C105.692 60.7374 106.095 60.4372 106.547 60.2298C107 60.0223 107.492 59.9124 107.991 59.9073C109.229 59.95 110.343 60.7928 111.568 60.692C112.497 60.6157 113.32 59.9897 114.252 59.8676C115.077 59.7908 115.901 60.0205 116.564 60.5118C117.218 61.0017 117.791 61.5888 118.263 62.2523C119.949 64.4477 121.324 67.0216 121.404 69.7758C121.754 70.0292 122.258 69.6994 122.432 69.3086C122.605 68.9178 122.611 68.4598 122.828 68.0873C123.082 67.6567 123.571 67.4277 123.951 67.1041C124.917 66.2827 125.158 64.8995 125.121 63.6446C125.121 63.6049 125.121 63.5652 125.121 63.5286C125.062 64.6156 124.768 65.724 123.945 66.4262Z" fill="black"/>
<path opacity="0.1" d="M101.098 66.2094C100.387 65.4369 99.4147 64.9209 98.7617 64.1026C98.2118 63.3782 97.8978 62.5062 97.8611 61.6019C97.7637 62.7319 98.0835 63.8586 98.7617 64.7743C99.4147 65.5957 100.387 66.1117 101.098 66.8842C101.782 67.6398 102.192 68.5977 102.265 69.6078C102.313 68.993 102.234 68.3752 102.033 67.7912C101.833 67.2072 101.515 66.6692 101.098 66.2094Z" fill="black"/>
<path opacity="0.1" d="M125.725 56.9913C125.542 57.7394 125.217 58.4508 125.068 59.205C124.98 59.7089 124.948 60.2208 124.973 60.7317C124.983 60.4407 125.015 60.1508 125.068 59.8645C125.217 59.1073 125.542 58.3989 125.725 57.6508C125.831 57.2382 125.866 56.8107 125.827 56.3867C125.807 56.5904 125.773 56.7925 125.725 56.9913Z" fill="black"/>
</g>
<path opacity="0.1" d="M41.0787 232.237C57.7339 232.237 71.2355 230.097 71.2355 227.458C71.2355 224.819 57.7339 222.68 41.0787 222.68C24.4236 222.68 10.9219 224.819 10.9219 227.458C10.9219 230.097 24.4236 232.237 41.0787 232.237Z" fill="#27B4EF"/>
<path d="M42.0506 135.918H40.11V179.023H42.0506V135.918Z" fill="#535461"/>
<path d="M54.2445 178.891L54.1238 180.833L53.9505 183.581L53.8793 184.723L53.7091 187.471L53.6348 188.613L53.4615 191.361L51.5055 222.527C51.4205 223.868 50.8207 225.127 49.8283 226.047C48.836 226.967 47.5255 227.479 46.1637 227.48H35.9938C34.6323 227.479 33.3222 226.967 32.3303 226.046C31.3384 225.126 30.7393 223.868 30.6551 222.527L28.7084 191.34L28.5351 188.592L28.4639 187.45L28.2906 184.702L28.2194 183.56L28.0461 180.812L27.9223 178.87C27.9008 178.496 27.9569 178.122 28.0872 177.77C28.2175 177.419 28.4193 177.097 28.6801 176.825C28.9409 176.553 29.2553 176.337 29.604 176.189C29.9526 176.041 30.3282 175.965 30.7077 175.966H51.5086C51.8866 175.969 52.2599 176.049 52.6056 176.2C52.9512 176.351 53.2618 176.57 53.5182 176.845C53.7745 177.119 53.9712 177.442 54.0962 177.794C54.2211 178.146 54.2716 178.519 54.2445 178.891Z" fill="#3F3D56"/>
<path d="M54.1238 180.833L53.9505 183.572H28.207L28.0337 180.833H54.1238Z" fill="#9D9CB5"/>
<path d="M53.8793 184.714L53.7091 187.456H28.4515L28.2782 184.714H53.8793Z" fill="#9D9CB5"/>
<path d="M53.6348 188.601L53.4646 191.34H28.696L28.5227 188.601H53.6348Z" fill="#9D9CB5"/>
<path d="M25.0719 152.073C36.3714 160.14 41.088 172.757 41.088 172.757C41.088 172.757 27.4704 172.296 16.1678 164.229C4.8652 156.162 0.157837 143.548 0.157837 143.548C0.157837 143.548 13.7693 144.006 25.0719 152.073Z" fill="#27B4EF"/>
<path d="M0.14856 143.548C0.14856 143.548 14.2861 151.289 18.8202 157.698C23.3542 164.107 41.088 172.757 41.088 172.757" stroke="#535461" stroke-width="2" stroke-miterlimit="10"/>
<path d="M32.3666 135.823C38.5162 140.211 41.088 147.078 41.088 147.078C41.088 147.078 33.6757 146.828 27.5231 142.44C21.3704 138.052 18.8047 131.182 18.8047 131.182C18.8047 131.182 26.2139 131.433 32.3666 135.823Z" fill="#27B4EF"/>
<path d="M18.8047 131.182C18.8047 131.182 26.4986 135.396 28.9653 138.883C31.4319 142.37 41.088 147.078 41.088 147.078" stroke="#535461" stroke-width="2" stroke-miterlimit="10"/>
<path d="M50.0168 146.73C42.9511 154.391 41.4563 164.403 41.4563 164.403C41.4563 164.403 51.4188 161.991 58.4783 154.327C65.5378 146.663 67.0388 136.654 67.0388 136.654C67.0388 136.654 57.0825 139.069 50.0168 146.73Z" fill="#27B4EF"/>
<path d="M67.045 136.657C67.045 136.657 57.8408 144.51 55.501 149.921C53.1613 155.331 41.4563 164.403 41.4563 164.403" stroke="#535461" stroke-width="2" stroke-miterlimit="10"/>
<path d="M309.389 144.034C309.389 144.034 304.279 118.953 306.235 115.833C306.235 115.833 306.306 112.932 306.189 109.235C306.189 109.094 306.189 108.954 306.189 108.81C306.533 109.036 306.892 109.24 307.263 109.421C309.065 110.334 311.134 110.598 313.112 110.166L311.565 108.465C311.193 108.059 310.806 107.619 310.726 107.082C310.645 106.545 310.868 106.065 311.06 105.586C312.53 101.922 312.608 97.3142 309.776 94.5173C307.383 92.1662 306.802 89.1311 304.205 86.9846C302.308 85.4121 301.265 83.1068 300.281 80.8778C299.448 78.9939 298.609 77.0947 298.133 75.0978C297.761 73.5375 297.613 71.9223 297.102 70.3987C296.591 68.875 295.635 67.3941 294.14 66.7132C293.608 66.472 293.017 66.3346 292.531 66.014C291.893 65.5896 291.51 64.8995 291.049 64.295C288.706 61.2416 280.86 63.04 277.146 64.2797C276.136 64.5919 275.202 65.1029 274.398 65.7819L274.432 65.727C274.46 65.6812 274.494 65.6354 274.525 65.5896C274.118 65.9139 273.767 66.3005 273.485 66.7346C272.943 67.5804 272.717 68.5666 272.265 69.4826C271.721 70.5666 268.691 73.5925 269.994 74.8108C270.085 74.8926 270.19 74.9587 270.303 75.0062C270.792 75.207 271.331 75.2602 271.851 75.1589L271.795 75.2902C271.35 76.365 271.122 77.5153 271.123 78.6763C271.123 83.693 275.317 87.7601 280.495 87.7601C281.468 87.7611 282.436 87.6138 283.364 87.3235C283.386 87.4395 283.404 87.5556 283.426 87.6716C283.426 87.7174 283.441 87.7632 283.447 87.809L283.283 88.035C283.275 88.021 283.266 88.0077 283.256 87.9953L278.397 94.6944C277.654 95.2104 273.377 98.2638 273.135 100.554C272.881 103.061 272.628 105.995 272.628 105.995L272.594 106.624C272.381 106.799 272.133 106.926 271.866 106.998C271.599 107.069 271.319 107.082 271.046 107.036C269.53 106.792 269.53 112.532 269.53 112.532C269.53 112.532 268.521 113.448 267.827 112.654C267.134 111.86 265.302 114.55 265.302 114.55L253.82 115.039L253.557 115.054L252.938 113.164C252.871 112.965 252.728 112.799 252.538 112.704C252.349 112.609 252.128 112.591 251.926 112.654C251.878 112.67 251.831 112.689 251.786 112.712L251.743 112.737L251.663 112.792L251.622 112.828C251.6 112.848 251.58 112.87 251.561 112.892L251.523 112.935L251.505 112.954C251.433 113.051 251.386 113.164 251.367 113.282C251.347 113.401 251.356 113.523 251.393 113.638L251.926 115.259C249.71 115.699 247.444 116.938 249.292 120.352L239.927 118.645L242.957 121.155L258.598 124.34C258.391 124.706 258.527 125.237 259.174 125.985C261.959 129.213 267.035 130.089 269.078 130.315C269.617 131.506 270.291 132.632 271.086 133.674L270.91 136.889C270.91 136.889 265.738 161.395 264.791 162.638C265.269 162.104 265.707 161.535 266.1 160.937C264.599 165.972 262.501 172.864 261.95 173.896C261.065 175.545 260.245 182.216 261.254 182.644C261.563 182.775 262.448 182.711 263.711 182.616V183.169L263.655 204.112C263.655 204.112 263.909 216.958 263.213 218.182C262.517 219.406 262.331 221.974 262.331 221.974C262.331 221.974 259.545 227.04 257.339 229.076C257.324 229.092 257.307 229.107 257.289 229.119L257.221 228.643C257.221 228.643 254.569 231.947 248.701 231.76C248.701 231.76 245.17 234.026 250.406 234.148C255.643 234.27 262.331 233.965 262.331 233.965C262.331 233.965 267.001 226.942 270.913 227.858V233.18H272.111V227.773C272.666 227.412 273.142 226.944 273.508 226.396C273.875 225.849 274.125 225.234 274.243 224.588C274.346 223.923 274.271 223.242 274.025 222.614C273.78 221.986 273.373 221.432 272.844 221.006C272.607 220.795 272.416 220.537 272.285 220.249C272.153 219.961 272.083 219.649 272.08 219.333L272.036 219.37C272.036 219.263 272.009 219.153 271.996 219.04C271.653 216.292 271.223 210.622 272.742 206.427C274.825 200.674 275.456 192.662 273.94 187.893C273.451 186.368 273.049 184.818 272.736 183.248C272.699 183.05 272.665 182.861 272.634 182.683C273.67 182.822 274.697 183.026 275.707 183.294C279.22 184.25 286.904 184.427 293.466 184.375C293.481 184.552 293.5 184.738 293.521 184.925C293.638 186.219 293.883 187.5 294.252 188.747C295.075 191.19 295.453 201.959 295.453 201.959C295.453 201.959 296.514 210.814 295.935 214.417C295.626 216.42 295.316 218.432 295.14 220.454V220.493C295.14 220.493 293.401 225.379 292.129 228.032C292.098 228.099 292.064 228.167 292.033 228.231C291.694 228.261 291.36 228.334 291.039 228.447C291.039 228.447 289.334 231.806 287.635 232.362C285.936 232.918 286.499 234.747 290.346 234.075C294.193 233.403 300.002 232.854 300.002 232.854L300.253 229.428L301.435 227.968L301.126 231.385L302.385 231.141L302.218 226.985L304.152 224.597C304.152 224.597 306.489 222.545 303.017 218.509V218.597C302.979 218.539 302.945 218.478 302.905 218.42V218.402C302.329 217.523 301.871 215.883 302.71 212.973C304.227 207.715 305.109 202.943 305.109 202.943C305.109 202.943 308.495 190.158 304.425 184.109H304.604C304.187 183.258 303.892 182.354 303.728 181.422C303.708 181.313 303.689 181.2 303.673 181.084C306.684 180.913 309.64 180.375 312.051 179.215C312.041 179.203 310.59 148.864 309.389 144.034ZM271.158 122.874V122.935L270.539 122.966L271.158 122.874ZM269.034 123.164C268.933 123.186 268.837 123.231 268.756 123.295C268.49 123.667 268.323 124.098 268.27 124.55L267.304 124.337C267.304 124.337 266.627 124.193 265.652 124.031L265.191 123.573C266.459 123.469 267.778 123.317 269.034 123.164Z" fill="url(#paint1_linear)"/>
<path d="M300.983 227.028L300.615 231.354L301.85 231.11L301.664 226.417L300.983 227.028Z" fill="#1D2366"/>
<path d="M272.81 206.485C271.322 210.668 271.742 216.313 272.077 219.055C272.2 220.069 272.315 220.686 272.315 220.686C272.315 220.686 270.09 225.687 269.904 225.877C269.718 226.066 263.355 229.898 263.355 229.898L258.908 232.46C258.908 232.46 254.395 230.509 256.559 229.837C257.001 229.662 257.399 229.394 257.726 229.052C259.892 227.022 262.612 221.974 262.612 221.974C262.612 221.974 262.798 219.413 263.479 218.194C264.16 216.976 263.912 204.173 263.912 204.173L263.965 183.303V180.583L272.429 180.644C272.483 181.567 272.605 182.486 272.795 183.392C273.099 184.956 273.492 186.501 273.974 188.021C275.466 192.781 274.847 200.753 272.81 206.485Z" fill="#FFB0B1"/>
<path opacity="0.1" d="M272.315 220.686C272.315 220.686 270.09 225.687 269.904 225.877C269.718 226.066 263.355 229.898 263.355 229.898L258.908 232.46C258.908 232.46 254.395 230.509 256.559 229.837C257.001 229.662 257.399 229.394 257.726 229.052L257.917 230.386L259.4 230.325L272.089 219.061C272.201 220.069 272.315 220.686 272.315 220.686Z" fill="black"/>
<path d="M272.16 219.345L259.4 230.686L257.917 230.747L257.608 228.609C257.608 228.609 255.014 231.901 249.252 231.718C249.252 231.718 245.792 233.974 250.92 234.096C256.048 234.218 262.597 233.913 262.597 233.913C262.597 233.913 267.171 226.89 271 227.806V233.11H272.176V227.757C272.723 227.394 273.189 226.926 273.548 226.38C273.906 225.834 274.149 225.223 274.262 224.582C274.364 223.922 274.291 223.247 274.052 222.623C273.813 221.998 273.415 221.445 272.897 221.016C272.665 220.801 272.48 220.543 272.354 220.256C272.227 219.968 272.161 219.659 272.16 219.345Z" fill="#1D2366"/>
<path d="M302.159 213.007C301.336 215.907 301.785 217.541 302.348 218.417V218.436C303.07 219.518 303.573 220.728 303.827 221.999L303.877 222.274L298.071 230.625L294.92 231.846C294.92 231.846 289.854 230.139 290.779 229.651C291.011 229.531 291.373 228.896 291.788 228.02C293.026 225.379 294.735 220.506 294.735 220.506V220.466C294.914 218.454 295.199 216.448 295.514 214.451C296.081 210.857 295.041 202.036 295.041 202.036C295.041 202.036 294.67 191.309 293.865 188.87C293.502 187.629 293.26 186.357 293.144 185.071C292.977 183.545 292.939 182.287 292.939 182.287C292.939 182.287 296.276 177.707 302.391 182.653C302.88 183.048 303.311 183.508 303.67 184.021C307.894 189.951 304.493 203.013 304.493 203.013C304.493 203.013 303.642 207.764 302.159 213.007Z" fill="#FFB0B1"/>
<path opacity="0.1" d="M303.886 222.274L298.08 230.625L294.929 231.846C294.929 231.846 289.863 230.139 290.789 229.651C291.021 229.531 291.383 228.896 291.797 228.02C293.942 228.002 295.053 230.017 295.053 230.017L297.771 229.59C297.771 229.59 301.355 222.64 302.159 222.216C302.964 221.791 302.283 219.043 302.283 219.043V218.344C302.305 218.368 302.323 218.396 302.348 218.42V218.439C303.07 219.521 303.573 220.731 303.827 222.002L303.886 222.274Z" fill="black"/>
<path d="M295.239 230.197C295.239 230.197 293.692 227.394 290.727 228.429C290.727 228.429 289.058 231.788 287.39 232.331C285.722 232.875 286.279 234.707 290.049 234.038C293.818 233.37 299.501 232.817 299.501 232.817L299.748 229.4L303.58 224.585C303.58 224.585 305.864 222.542 302.466 218.521V219.22C302.466 219.22 303.147 221.968 302.342 222.393C301.537 222.817 297.966 229.77 297.966 229.77L295.239 230.197Z" fill="#1D2366"/>
<path opacity="0.1" d="M272.439 180.638C272.492 181.561 272.614 182.48 272.804 183.386C269.319 182.882 266.085 183.132 263.965 183.297V180.577L272.439 180.638Z" fill="black"/>
<path opacity="0.1" d="M304.013 184.781C304.013 184.781 299.061 185.019 293.156 185.068C292.989 183.542 292.952 182.284 292.952 182.284C292.952 182.284 296.288 177.703 302.404 182.65C302.893 183.044 303.323 183.505 303.682 184.018C303.778 184.278 303.888 184.533 304.013 184.781Z" fill="black"/>
<path d="M304.013 184.232C304.013 184.232 282.324 185.267 275.713 183.438C269.102 181.609 262.551 183.193 261.563 182.769C260.576 182.345 261.378 175.697 262.244 174.052C263.111 172.406 267.864 155.762 267.864 155.762L272.439 132.233L277.258 130.923L277.598 130.828L285.994 128.544L292.147 126.868C292.147 126.868 304.381 173.991 303.332 177.465C302.951 178.796 302.89 180.196 303.153 181.554C303.313 182.481 303.602 183.382 304.013 184.232Z" fill="#1D2366"/>
<path d="M256.494 116.141C256.494 116.141 252.161 120.721 255.442 123.274C258.722 125.827 260.879 123.518 260.879 123.518L256.494 116.141Z" fill="#C7DAF5"/>
<path opacity="0.1" d="M256.494 116.141C256.494 116.141 252.161 120.721 255.442 123.274C258.722 125.827 260.879 123.518 260.879 123.518L256.494 116.141Z" fill="black"/>
<path d="M291.5 86.0289C291.5 86.0289 290.993 86.5052 290.228 87.2075C289.139 88.212 287.526 89.6807 286.097 90.9112C284.116 92.612 282.482 93.8608 283.067 92.7952C283.652 91.7295 283.54 89.8731 283.249 88.1357C283.228 88.0197 283.209 87.9037 283.187 87.7907C282.947 86.5147 282.627 85.2544 282.231 84.0167C282.231 84.0167 285.431 79.9374 287.202 78.3283C287.861 77.7176 288.322 77.4672 288.35 77.8916C288.381 78.4626 288.814 79.7237 289.352 81.061C289.368 81.1038 289.383 81.1435 289.402 81.1862C289.761 82.1022 290.166 83.0427 290.522 83.8549C291.067 85.1007 291.5 86.0289 291.5 86.0289Z" fill="#FFB0B1"/>
<path opacity="0.1" d="M289.402 81.1862C289.101 82.7821 288.372 84.2689 287.289 85.4914C286.207 86.7139 284.812 87.6271 283.249 88.1357C283.003 86.7419 282.663 85.3658 282.231 84.0167C282.231 84.0167 288.257 76.3375 288.35 77.8917C288.371 78.481 288.842 79.7878 289.402 81.1862Z" fill="black"/>
<path opacity="0.1" d="M282.649 90.1876L283.429 89.1036C283.429 89.1036 283.946 92.212 285.846 90.841C287.746 89.47 287.839 101.158 287.839 101.158L285.799 131.243L271.062 130.373L271.479 115.836L273.147 108.508L277.273 97.8546L279.727 94.3341L282.649 90.1876Z" fill="black"/>
<path d="M287.839 101.345L285.982 128.547L285.787 131.43L277.57 130.944L277.261 130.926L271.071 130.559L271.489 116.019L273.157 108.691L277.282 98.0378L279.737 94.5173L282.658 90.3555L283.438 89.2746C283.438 89.2746 283.955 92.383 285.855 91.012L285.895 90.9845C287.752 89.8242 287.839 101.345 287.839 101.345Z" fill="#1D2366"/>
<path d="M273.364 106.145C273.364 106.145 272.624 107.671 271.139 107.424C269.653 107.177 269.656 112.92 269.656 112.92C269.656 112.92 268.669 113.836 267.988 113.042C267.307 112.248 265.512 114.932 265.512 114.932L254.265 115.421C254.265 115.421 259.27 117.677 258.289 124.504C258.289 124.504 275.28 123.466 275.837 121.882C276.394 120.297 273.364 106.145 273.364 106.145Z" fill="white"/>
<path opacity="0.03" d="M273.364 106.145C273.364 106.145 272.624 107.671 271.139 107.424C269.653 107.177 269.656 112.92 269.656 112.92C269.656 112.92 268.669 113.836 267.988 113.042C267.307 112.248 265.512 114.932 265.512 114.932L254.265 115.421C254.265 115.421 259.27 117.677 258.289 124.504C258.289 124.504 275.28 123.466 275.837 121.882C276.394 120.297 273.364 106.145 273.364 106.145Z" fill="black"/>
<path d="M240.679 119.008L243.644 121.506L268.05 126.566L265.023 123.518L240.679 119.008Z" fill="white"/>
<path d="M282.695 91.1494C282.29 91.7601 281.129 94.8867 280.161 97.6165C279.353 99.8912 278.678 101.891 278.678 101.891C278.678 101.891 277.103 112.01 276.298 113.839C275.493 115.668 275.93 122.801 275.93 122.801L272.931 140.416C272.931 140.416 271.572 149.499 269.474 154.925C267.403 160.266 265.098 162.769 265.026 162.849C265.955 161.609 271.015 137.2 271.015 137.2L272.686 106.416C272.686 106.416 272.931 103.491 273.178 100.99C273.426 98.4897 278.44 95.0761 278.44 95.0761L283.274 88.2945C283.76 88.9357 283.435 90.0532 282.695 91.1494Z" fill="white"/>
<path d="M270.09 130.712C270.09 130.712 262.971 130.407 259.524 126.321C256.076 122.236 267.493 124.691 267.493 124.691L270.461 125.362L270.09 130.712Z" fill="#FFB0B1"/>
<path opacity="0.1" d="M303.332 177.468C302.951 178.799 302.89 180.199 303.153 181.557C295.388 182.1 287.081 180.03 287.081 180.03C285.533 181.435 281.457 183.505 281.457 183.505L279.235 156.33C277.815 152.666 277.258 133.469 277.258 133.469C277.258 133.469 277.384 132.465 277.567 130.959C277.567 130.923 277.567 130.883 277.583 130.846C278.137 126.642 279.235 118.749 279.774 117.683C280.516 116.218 277.49 112.318 277.49 112.318L278.867 100.731L279.034 99.3324C281.937 98.0531 284.162 93.9677 284.162 93.9677L285.871 91.015C287.728 89.8395 287.824 101.36 287.824 101.36L285.967 128.562L292.119 126.886C292.119 126.886 304.381 173.994 303.332 177.468Z" fill="black"/>
<path d="M311.302 179.346C302.837 183.493 287.452 179.652 287.452 179.652C285.905 181.056 281.829 183.126 281.829 183.126L279.603 155.951C278.186 152.287 277.629 133.091 277.629 133.091C277.629 133.091 279.418 118.767 280.161 117.305C280.377 116.877 280.272 116.242 280.015 115.558C278.752 112.303 278.288 108.799 278.66 105.332L279.254 100.352L279.418 98.9569C282.324 97.6745 284.549 93.589 284.549 93.589L286.097 90.9143L288.944 85.9861L290.293 83.6534L290.522 83.8579L292.271 85.4213C292.271 85.4213 293.014 86.0319 294.128 86.9479C296.551 88.9632 300.739 92.5112 302.899 94.6821C304.799 96.5936 305.4 104.029 305.573 109.625C305.687 113.311 305.619 116.199 305.619 116.199C303.704 119.311 308.714 144.29 308.714 144.29C309.881 149.118 311.302 179.346 311.302 179.346Z" fill="white"/>
<path opacity="0.03" d="M295.053 93.528C295.053 93.528 289.244 104.438 289.919 108.584C290.594 112.731 292.512 117.424 291.587 118.52C291.269 118.935 290.858 119.272 290.386 119.505C289.914 119.737 289.394 119.859 288.867 119.86C287.938 119.921 285.462 121.628 285.462 121.811C285.462 121.995 283.175 121.995 281.129 122.85C279.084 123.705 276.063 124.19 276.063 124.19C276.063 124.19 270.183 124.007 269.635 124.556C269.087 125.106 268.524 128.394 269.697 131.017C270.87 133.64 272.173 135.597 273.157 135.955C274.141 136.312 280.387 134.248 285.453 133.759C290.519 133.271 296.019 129.311 296.019 129.311C296.019 129.311 302.076 127.173 303.137 123.579C304.199 119.985 301.84 100.233 301.84 100.233C301.84 100.233 300.058 91.0272 295.053 93.528Z" fill="black"/>
<path opacity="0.03" d="M294.311 92.612C294.311 92.612 288.501 103.525 289.182 107.668C289.863 111.812 291.776 116.508 290.847 117.607C290.531 118.023 290.12 118.36 289.649 118.593C289.177 118.825 288.657 118.947 288.13 118.947C287.202 119.008 284.726 120.715 284.726 120.898C284.726 121.082 282.438 121.082 280.393 121.934C278.347 122.785 275.326 123.274 275.326 123.274C275.326 123.274 269.446 123.091 268.901 123.64C268.357 124.19 267.787 127.482 268.963 130.101C270.139 132.721 271.439 134.681 272.423 135.039C273.407 135.396 279.653 133.332 284.719 132.846C289.786 132.361 295.285 128.394 295.285 128.394C295.285 128.394 301.339 126.257 302.388 122.666C303.437 119.076 301.091 99.3172 301.091 99.3172C301.091 99.3172 299.315 90.1143 294.311 92.612Z" fill="black"/>
<path d="M294.871 92.9784C294.871 92.9784 289.062 103.891 289.742 108.035C290.423 112.178 292.336 116.874 291.411 117.97C291.094 118.387 290.683 118.725 290.211 118.958C289.739 119.192 289.218 119.313 288.69 119.314C287.762 119.375 285.286 121.082 285.286 121.262C285.286 121.442 283.002 121.445 280.953 122.3C278.904 123.155 275.886 123.64 275.886 123.64C275.886 123.64 270.006 123.457 269.458 124.007C268.911 124.556 268.347 127.848 269.52 130.468C270.693 133.088 271.996 135.048 272.98 135.405C273.965 135.762 280.21 133.698 285.276 133.21C290.343 132.721 295.842 128.761 295.842 128.761C295.842 128.761 301.899 126.624 302.961 123.03C304.022 119.436 301.679 99.6836 301.679 99.6836C301.679 99.6836 299.872 90.4929 294.871 92.9784Z" fill="white"/>
<path opacity="0.1" d="M294.744 122.248C294.744 122.248 290.101 121.332 291.717 122.859C293.333 124.385 293.323 125.723 295.301 125.662C297.279 125.601 294.744 122.248 294.744 122.248Z" fill="black"/>
<path opacity="0.1" d="M302.589 155.096C302.589 155.096 300.491 156.498 304.505 159.728C308.519 162.959 302.589 155.096 302.589 155.096Z" fill="black"/>
<path opacity="0.1" d="M298.585 166.617C298.585 166.8 297.842 173.334 300.621 174.968C303.4 176.601 298.585 166.617 298.585 166.617Z" fill="black"/>
<path d="M254.457 115.405C252.217 115.482 247.376 116.157 249.886 120.776C252.105 124.865 255.835 122.132 257.933 120.059C257.421 118.126 256.177 116.46 254.457 115.405Z" fill="#FFB0B1"/>
<path d="M257.961 120.021L258.054 119.927L257.961 120.021Z" fill="#FFB0B1"/>
<path opacity="0.1" d="M294.128 87.1342C291.751 88.7372 289.758 90.0899 289.368 90.3708C288.303 91.1494 286.273 95.7203 284.964 98.0531C283.921 99.9309 280.532 100.413 279.254 100.532L279.418 99.137C282.324 97.8546 284.549 93.7692 284.549 93.7692L290.293 83.8335L292.271 85.6075C292.271 85.6075 293.014 86.2182 294.128 87.1342Z" fill="black"/>
<path d="M294.128 86.951C291.751 88.554 289.758 89.9067 289.368 90.1906C288.303 90.9662 286.273 95.5371 284.964 97.8699C283.921 99.7477 280.532 100.23 279.254 100.349L279.418 98.9538C282.324 97.6714 284.549 93.586 284.549 93.586L290.293 83.6503L292.271 85.4182C292.271 85.4182 293.014 86.0228 294.128 86.951Z" fill="#DCE7FF"/>
<path d="M289.554 79.171C289.555 81.0039 288.992 82.7939 287.938 84.3037C286.694 86.0888 284.843 87.3748 282.72 87.9283C280.597 88.4818 278.343 88.2662 276.367 87.3205C274.392 86.3749 272.825 84.7619 271.952 82.7741C271.079 80.7864 270.956 78.5558 271.608 76.4868C272.259 74.4179 273.64 72.6478 275.501 71.4978C277.362 70.3477 279.579 69.8939 281.75 70.2186C283.921 70.5433 285.902 71.6251 287.334 73.2676C288.766 74.9101 289.553 77.0046 289.554 79.171Z" fill="#FFB0B1"/>
<path opacity="0.1" d="M305.573 109.628C304.316 108.866 303.292 107.781 302.611 106.49C302.094 105.482 301.751 104.319 300.869 103.604C300.073 102.963 299.012 102.807 298.021 102.52C294.765 101.571 292.036 98.6393 291.934 95.2928C291.884 93.7173 292.382 92.1448 292.156 90.5845C292.028 89.7015 291.672 88.8657 291.123 88.1571C290.85 87.8182 290.551 87.5007 290.228 87.2075C289.795 86.8044 289.34 86.4136 288.944 85.9861C288.694 85.7215 288.476 85.4295 288.294 85.1159C288.147 84.8593 288.028 84.5881 287.938 84.3068C287.319 82.4381 287.882 80.2214 287.201 78.3313L287.164 78.2275C286.907 77.5558 286.384 76.884 285.657 76.8321C284.93 76.7802 284.308 77.3756 283.615 77.6413C282.163 78.197 280.597 77.2504 279.387 76.2856C278.177 75.3207 276.812 74.2184 275.274 74.4322C274.255 74.5757 273.451 75.2596 272.513 75.6138C272.301 75.6947 272.083 75.757 271.86 75.8001C272.654 73.8475 274.112 72.2285 275.984 71.2213C277.856 70.2141 280.025 69.8815 282.119 70.2807C284.212 70.68 286.1 71.786 287.456 73.409C288.813 75.0319 289.555 77.0703 289.554 79.1741C289.555 79.8093 289.487 80.4429 289.352 81.0641C289.368 81.1068 289.383 81.1465 289.402 81.1893C289.761 82.1053 290.166 83.0457 290.522 83.8579L292.271 85.4213C292.271 85.4213 293.014 86.0319 294.128 86.948C296.551 88.9632 300.739 92.5112 302.899 94.6822C304.799 96.5997 305.393 104.032 305.573 109.628Z" fill="black"/>
<path d="M272.405 70.0353C272.847 69.1467 273.067 68.1513 273.596 67.3086C274.373 66.0873 275.729 65.3056 277.121 64.8323C280.758 63.5957 288.443 61.8003 290.739 64.8323C291.191 65.443 291.565 66.1208 292.191 66.5422C292.667 66.8628 293.243 67.0002 293.766 67.2414C295.23 67.9193 296.164 69.3971 296.663 70.9055C297.161 72.4139 297.31 74.0321 297.675 75.5863C298.142 77.5802 298.962 79.4702 299.779 81.348C300.742 83.5648 301.763 85.864 303.62 87.4304C306.155 89.5677 306.715 92.5936 309.067 94.9386C311.852 97.7233 311.763 102.319 310.327 105.967C310.138 106.447 309.924 106.948 309.999 107.457C310.073 107.967 310.457 108.431 310.819 108.838L312.341 110.532C308.739 111.39 304.663 109.534 302.986 106.276C302.469 105.268 302.125 104.108 301.24 103.39C300.448 102.749 299.383 102.596 298.396 102.309C295.14 101.357 292.41 98.4225 292.308 95.076C292.259 93.5035 292.757 91.931 292.531 90.3738C292.405 89.4848 292.048 88.6432 291.494 87.9311C290.643 86.8349 289.359 86.0991 288.665 84.8777C287.492 82.835 288.384 80.1816 287.539 77.9893C287.279 77.3176 286.759 76.6458 286.032 76.5939C285.304 76.542 284.682 77.1374 283.986 77.4031C282.538 77.9588 280.971 77.0153 279.761 76.0474C278.551 75.0795 277.186 73.9802 275.645 74.197C274.627 74.3375 273.825 75.0214 272.888 75.3787C272.194 75.6413 270.789 75.8764 270.183 75.2993C268.901 74.136 271.869 71.1223 272.405 70.0353Z" fill="#591D4B"/>
<path opacity="0.1" d="M303.846 105.268C303.326 104.261 302.986 103.1 302.1 102.386C301.308 101.745 300.243 101.589 299.253 101.302C296 100.352 293.271 97.418 293.165 94.0715C293.116 92.499 293.614 90.9235 293.391 89.3662C293.262 88.483 292.905 87.6472 292.355 86.9388C291.5 85.8426 290.216 85.1068 289.526 83.8854C288.353 81.8458 289.244 79.1924 288.396 76.997C288.139 76.3283 287.616 75.6566 286.892 75.6016C286.168 75.5467 285.54 76.1482 284.846 76.4138C283.398 76.9695 281.829 76.023 280.622 75.0581C279.415 74.0933 278.044 72.991 276.506 73.2047C275.487 73.3482 274.683 74.0322 273.748 74.3864C273.055 74.649 271.647 74.8871 271.04 74.31C269.765 73.0887 272.733 70.0811 273.265 69.0002C273.708 68.1086 273.928 67.1163 274.46 66.2736C274.488 66.2277 274.519 66.182 274.55 66.1362C274.151 66.4616 273.808 66.847 273.531 67.2781C273.002 68.1208 272.782 69.1101 272.34 70.0048C271.804 71.0857 268.836 74.1024 270.115 75.3146C270.734 75.8947 272.126 75.6566 272.82 75.394C273.748 75.0367 274.559 74.3528 275.577 74.2123C277.125 73.9955 278.486 75.0978 279.693 76.0627C280.9 77.0275 282.479 77.9741 283.921 77.4184C284.614 77.1527 285.221 76.5543 285.964 76.6092C286.706 76.6642 287.202 77.3329 287.471 78.0046C288.316 80.197 287.424 82.8503 288.597 84.8931C289.291 86.093 290.575 86.8442 291.426 87.9464C291.98 88.6585 292.337 89.5002 292.463 90.3891C292.689 91.9464 292.191 93.5188 292.24 95.0913C292.342 98.45 295.072 101.372 298.328 102.325C299.309 102.612 300.38 102.764 301.172 103.406C302.06 104.123 302.41 105.284 302.918 106.291C304.595 109.549 308.671 111.406 312.273 110.548L311.555 109.748C308.433 109.793 305.273 108.041 303.846 105.268Z" fill="black"/>
<path opacity="0.1" d="M282.51 91.3326C282.104 91.9433 280.944 95.0699 279.975 97.7997C279.068 97.4516 278.245 95.2318 278.245 95.2318L283.079 88.4471C283.574 89.1189 283.249 90.2334 282.51 91.3326Z" fill="black"/>
<path d="M282.695 91.1494C282.29 91.7601 281.129 94.8867 280.161 97.6165C279.254 97.2714 278.431 95.0486 278.431 95.0486L283.265 88.267C283.76 88.9357 283.435 90.0533 282.695 91.1494Z" fill="#DCE7FF"/>
<path d="M254.587 122.343L251.907 114.004C251.875 113.906 251.864 113.803 251.872 113.701C251.881 113.599 251.91 113.5 251.958 113.409C252.005 113.317 252.071 113.237 252.15 113.171C252.23 113.105 252.322 113.055 252.421 113.024C252.62 112.962 252.836 112.981 253.022 113.076C253.207 113.171 253.347 113.334 253.411 113.531L256.091 121.86L255.825 123.604L254.587 122.343Z" fill="#BE8B87"/>
<path opacity="0.1" d="M252.161 113.271C252.361 113.209 252.578 113.227 252.764 113.322C252.95 113.417 253.09 113.581 253.154 113.778L255.835 122.108L255.633 123.414L255.828 123.616L256.095 121.872L253.399 113.543C253.335 113.347 253.195 113.183 253.009 113.088C252.824 112.993 252.608 112.975 252.409 113.036C252.241 113.09 252.096 113.197 251.997 113.341C252.049 113.313 252.104 113.29 252.161 113.271Z" fill="white"/>
<path d="M254.587 122.343L256.091 121.872L255.872 123.301L255.825 123.616L255.386 123.164L254.587 122.343Z" fill="#EFC8C4"/>
<path d="M255.386 123.164C255.412 123.131 255.445 123.104 255.482 123.085C255.504 123.071 255.529 123.064 255.555 123.064C255.58 123.064 255.606 123.071 255.627 123.085C255.648 123.11 255.666 123.138 255.68 123.167C255.7 123.201 255.728 123.23 255.761 123.251C255.795 123.273 255.832 123.287 255.872 123.292L255.825 123.598L255.386 123.164Z" fill="#727A9C"/>
<path d="M251.892 116.966C251.892 116.966 257.267 116.935 256.002 119.192C254.736 121.448 252.758 121.72 252.758 121.72L251.892 116.966Z" fill="#FFB0B1"/>
<path d="M218.457 15.7005H218.225C208.99 15.7005 200.823 20.5218 196.125 27.6361C191.426 20.5218 183.259 15.7005 174.024 15.7005H173.792C166.861 15.7656 160.236 18.5267 155.357 23.3836C150.478 28.2405 147.739 34.8008 147.736 41.6389C147.736 50.1303 151.505 62.179 158.856 72.0933C172.86 90.9845 196.125 107.512 196.125 107.512C196.125 107.512 219.389 90.9876 233.39 72.0933C240.744 62.179 244.51 50.1303 244.51 41.6389C244.507 34.8014 241.768 28.2415 236.89 23.3847C232.011 18.5278 225.388 15.7664 218.457 15.7005ZM215.137 73.5467C214.085 73.5427 213.059 73.2251 212.193 72.6355C211.328 72.0459 210.663 71.2119 210.287 70.2429H204.765C204.402 70.2407 204.048 70.1265 203.753 69.9163C203.459 69.7061 203.238 69.4104 203.122 69.0704L201.426 64.0293L196.06 82.5297C195.955 82.8859 195.736 83.1989 195.436 83.4219C195.136 83.6449 194.77 83.7658 194.394 83.7663H194.286C193.894 83.7477 193.52 83.5968 193.227 83.3389C192.934 83.081 192.74 82.7318 192.677 82.3496L187.146 49.5319L183.104 68.9514C183.012 69.3203 182.796 69.6479 182.493 69.882C182.189 70.1161 181.815 70.2432 181.43 70.2429H173.652C173.419 70.2527 173.186 70.2158 172.968 70.1345C172.75 70.0532 172.55 69.9291 172.382 69.7698C172.214 69.6105 172.08 69.4192 171.988 69.2075C171.896 68.9957 171.849 68.7679 171.849 68.5376C171.849 68.3074 171.896 68.0796 171.988 67.8678C172.08 67.6561 172.214 67.4648 172.382 67.3055C172.55 67.1461 172.75 67.0221 172.968 66.9408C173.186 66.8595 173.419 66.8226 173.652 66.8323H180.068L185.794 40.7229C185.888 40.3369 186.115 39.995 186.436 39.7559C186.757 39.5167 187.152 39.395 187.554 39.4115C187.957 39.4281 188.34 39.582 188.64 39.8468C188.94 40.1116 189.137 40.4709 189.198 40.8633L194.846 74.3406L199.656 57.7882C199.756 57.4396 199.968 57.1323 200.259 56.9122C200.551 56.6921 200.907 56.5709 201.274 56.5669H201.308C201.672 56.567 202.027 56.6804 202.321 56.8909C202.616 57.1015 202.835 57.3984 202.949 57.7394L206.016 66.8415H210.219C210.518 65.9458 211.061 65.149 211.79 64.539C212.519 63.929 213.405 63.5296 214.349 63.3847C215.293 63.2399 216.26 63.3553 217.142 63.7182C218.024 64.0811 218.788 64.6775 219.348 65.4414C219.908 66.2053 220.244 67.1071 220.317 68.0472C220.391 68.9873 220.2 69.9293 219.765 70.769C219.331 71.6088 218.669 72.3137 217.854 72.806C217.039 73.2984 216.102 73.5589 215.146 73.5589L215.137 73.5467Z" fill="#27B4EF"/>
</g>
<defs>
<linearGradient id="paint0_linear" x1="110.281" y1="236.597" x2="110.281" y2="48.7105" gradientUnits="userSpaceOnUse">
<stop stop-color="#808080" stop-opacity="0.25"/>
<stop offset="0.54" stop-color="#808080" stop-opacity="0.12"/>
<stop offset="1" stop-color="#808080" stop-opacity="0.1"/>
</linearGradient>
<linearGradient id="paint1_linear" x1="69083.2" y1="141763" x2="69083.2" y2="45319.1" gradientUnits="userSpaceOnUse">
<stop stop-color="#808080" stop-opacity="0.25"/>
<stop offset="0.54" stop-color="#808080" stop-opacity="0.12"/>
<stop offset="1" stop-color="#808080" stop-opacity="0.1"/>
</linearGradient>
<clipPath id="clip0">
<rect width="342" height="239" fill="white"/>
</clipPath>
</defs>
</svg>
