<svg width="21" height="21" viewBox="0 0 21 21" fill="none" xmlns="http://www.w3.org/2000/svg">
<path d="M10.4167 0C4.66667 0 0 4.66667 0 10.4167C0 16.1667 4.66667 20.8333 10.4167 20.8333H15.625V18.75H10.4167C5.89583 18.75 2.08333 14.9375 2.08333 10.4167C2.08333 5.89583 5.89583 2.08333 10.4167 2.08333C14.9375 2.08333 18.75 5.89583 18.75 10.4167V11.9063C18.75 12.7292 18.0104 13.5417 17.1875 13.5417C16.3646 13.5417 15.625 12.7292 15.625 11.9063V10.4167C15.625 7.54167 13.2917 5.20833 10.4167 5.20833C7.54167 5.20833 5.20833 7.54167 5.20833 10.4167C5.20833 13.2917 7.54167 15.625 10.4167 15.625C11.8542 15.625 13.1667 15.0417 14.1042 14.0938C14.7812 15.0208 15.9479 15.625 17.1875 15.625C19.2396 15.625 20.8333 13.9583 20.8333 11.9063V10.4167C20.8333 4.66667 16.1667 0 10.4167 0ZM10.4167 13.5417C8.6875 13.5417 7.29167 12.1458 7.29167 10.4167C7.29167 8.6875 8.6875 7.29167 10.4167 7.29167C12.1458 7.29167 13.5417 8.6875 13.5417 10.4167C13.5417 12.1458 12.1458 13.5417 10.4167 13.5417Z" fill="#27B4EF"/>
</svg>
