<svg width="26" height="26" viewBox="0 0 26 26" fill="none" xmlns="http://www.w3.org/2000/svg">
<path d="M21.9375 9.75V11.375H22.75V14.625C22.75 15.2715 22.4932 15.8915 22.0361 16.3486C21.579 16.8057 20.959 17.0625 20.3125 17.0625C19.666 17.0625 19.0461 16.8057 18.5889 16.3486C18.1318 15.8915 17.875 15.2715 17.875 14.625V11.375H18.6875V9.75H16.25V14.625C16.2512 15.5611 16.5751 16.4681 17.1672 17.1932C17.7592 17.9182 18.5831 18.417 19.5 18.6054V19.5C19.5 20.362 19.1576 21.1886 18.5481 21.7981C17.9386 22.4076 17.112 22.75 16.25 22.75C15.3881 22.75 14.5614 22.4076 13.9519 21.7981C13.3424 21.1886 13 20.362 13 19.5V17.7255C13.5421 17.5338 13.999 17.1567 14.29 16.6607C14.5809 16.1648 14.6871 15.5819 14.5899 15.0152C14.4927 14.4485 14.1982 13.9344 13.7586 13.5638C13.319 13.1932 12.7625 12.9899 12.1875 12.9899C11.6125 12.9899 11.056 13.1932 10.6164 13.5638C10.1768 13.9344 9.88234 14.4485 9.78511 15.0152C9.68788 15.5819 9.79412 16.1648 10.0851 16.6607C10.376 17.1567 10.8329 17.5338 11.375 17.7255V19.5C11.375 20.7929 11.8886 22.0329 12.8029 22.9471C13.7171 23.8614 14.9571 24.375 16.25 24.375C17.5429 24.375 18.7829 23.8614 19.6972 22.9471C20.6114 22.0329 21.125 20.7929 21.125 19.5V18.6054C22.0419 18.417 22.8658 17.9182 23.4578 17.1932C24.0499 16.4681 24.3738 15.5611 24.375 14.625V9.75H21.9375ZM12.1875 14.625C12.3482 14.625 12.5053 14.6727 12.6389 14.7619C12.7725 14.8512 12.8767 14.9781 12.9382 15.1266C12.9997 15.275 13.0157 15.4384 12.9844 15.596C12.953 15.7536 12.8757 15.8984 12.762 16.012C12.6484 16.1257 12.5036 16.203 12.346 16.2344C12.1884 16.2657 12.025 16.2496 11.8766 16.1882C11.7281 16.1267 11.6012 16.0225 11.5119 15.8889C11.4227 15.7553 11.375 15.5982 11.375 15.4375C11.375 15.222 11.4606 15.0153 11.613 14.863C11.7654 14.7106 11.972 14.625 12.1875 14.625Z" fill="#27B4EF"/>
<path d="M21.125 3.25H17.875V1.625H16.25V3.25H9.75V1.625H8.125V3.25H4.875C4.44402 3.25 4.0307 3.4212 3.72595 3.72595C3.4212 4.0307 3.25 4.44402 3.25 4.875V21.125C3.25 21.556 3.4212 21.9693 3.72595 22.274C4.0307 22.5788 4.44402 22.75 4.875 22.75H8.125V21.125H4.875V4.875H8.125V6.5H9.75V4.875H16.25V6.5H17.875V4.875H21.125V8.125H22.75V4.875C22.75 4.44402 22.5788 4.0307 22.274 3.72595C21.9693 3.4212 21.556 3.25 21.125 3.25Z" fill="#27B4EF"/>
</svg>
