<svg width="25" height="26" viewBox="0 0 25 26" fill="none" xmlns="http://www.w3.org/2000/svg">
<g clip-path="url(#clip0)">
<path d="M25 12.6134C25 5.71028 19.4031 0.113403 12.5 0.113403C5.59687 0.113403 0 5.71028 0 12.6134C0 18.853 4.57083 24.0238 10.5469 24.9613V16.2269H7.37292V12.6124H10.5469V9.86028C10.5469 6.72799 12.4135 4.99674 15.2687 4.99674C16.6354 4.99674 18.0667 5.24153 18.0667 5.24153V8.31757H16.4896C14.9365 8.31757 14.4521 9.28111 14.4521 10.2697V12.6134H17.9187L17.3646 16.228H14.4521V24.9624C20.4292 24.0238 25 18.8519 25 12.6134Z" fill="#4267B2"/>
</g>
<defs>
<clipPath id="clip0">
<rect width="25" height="25" fill="white" transform="translate(0 0.0373535)"/>
</clipPath>
</defs>
</svg>
