<svg width="20" height="20" viewBox="0 0 20 20" fill="none" xmlns="http://www.w3.org/2000/svg">
<path d="M9.70331 0C8.6732 0 7.66622 0.305463 6.80971 0.877762C5.95321 1.45006 5.28564 2.26349 4.89144 3.21519C4.49723 4.16689 4.39409 5.21411 4.59505 6.22443C4.79602 7.23475 5.29206 8.16278 6.02046 8.89118C6.74886 9.61958 7.67689 10.1156 8.68721 10.3166C9.69753 10.5176 10.7448 10.4144 11.6965 10.0202C12.6481 9.626 13.4616 8.95843 14.0339 8.10193C14.6062 7.24542 14.9116 6.23844 14.9116 5.20833C14.9116 3.827 14.3629 2.50224 13.3862 1.52549C12.4094 0.548733 11.0846 0 9.70331 0ZM9.70331 8.33333C9.08524 8.33333 8.48105 8.15005 7.96715 7.80668C7.45325 7.4633 7.05271 6.97524 6.81618 6.40422C6.57966 5.8332 6.51777 5.20487 6.63835 4.59868C6.75893 3.99249 7.05656 3.43566 7.4936 2.99862C7.93064 2.56159 8.48746 2.26396 9.09365 2.14338C9.69984 2.0228 10.3282 2.08469 10.8992 2.32121C11.4702 2.55773 11.9583 2.95827 12.3017 3.47218C12.645 3.98608 12.8283 4.59027 12.8283 5.20833C12.8283 6.03713 12.4991 6.83199 11.913 7.41804C11.327 8.00409 10.5321 8.33333 9.70331 8.33333ZM19.0783 19.7917V18.75C19.0783 16.8161 18.3101 14.9615 16.9426 13.594C15.5752 12.2266 13.7205 11.4583 11.7866 11.4583H7.61997C5.6861 11.4583 3.83144 12.2266 2.46399 13.594C1.09653 14.9615 0.328308 16.8161 0.328308 18.75V19.7917H2.41164V18.75C2.41164 17.3687 2.96037 16.0439 3.93713 15.0672C4.91388 14.0904 6.23864 13.5417 7.61997 13.5417H11.7866C13.168 13.5417 14.4927 14.0904 15.4695 15.0672C16.4462 16.0439 16.995 17.3687 16.995 18.75V19.7917H19.0783Z" fill="#27B4EF"/>
</svg>
