<svg width="25" height="26" viewBox="0 0 25 26" fill="none" xmlns="http://www.w3.org/2000/svg">
<path d="M22.714 10.4973H21.875V10.454H12.5V14.6207H18.387C17.5281 17.0462 15.2203 18.7874 12.5 18.7874C9.04842 18.7874 6.24998 15.9889 6.24998 12.5374C6.24998 9.0858 9.04842 6.28736 12.5 6.28736C14.0932 6.28736 15.5427 6.8884 16.6463 7.87018L19.5927 4.92382C17.7323 3.18997 15.2437 2.1207 12.5 2.1207C6.74738 2.1207 2.08331 6.78476 2.08331 12.5374C2.08331 18.29 6.74738 22.954 12.5 22.954C18.2526 22.954 22.9166 18.29 22.9166 12.5374C22.9166 11.8389 22.8448 11.1572 22.714 10.4973Z" fill="#FFC107"/>
<path d="M3.28436 7.68893L6.70676 10.1988C7.6328 7.90611 9.87551 6.28736 12.5 6.28736C14.0932 6.28736 15.5427 6.8884 16.6463 7.87018L19.5927 4.92382C17.7323 3.18997 15.2437 2.1207 12.5 2.1207C8.49895 2.1207 5.02915 4.37955 3.28436 7.68893Z" fill="#FF3D00"/>
<path d="M12.5 22.954C15.1906 22.954 17.6354 21.9243 19.4839 20.2499L16.2599 17.5217C15.1789 18.3438 13.8581 18.7884 12.5 18.7874C9.79062 18.7874 7.4901 17.0598 6.62344 14.6488L3.22656 17.266C4.95052 20.6394 8.45156 22.954 12.5 22.954Z" fill="#4CAF50"/>
<path d="M22.7141 10.4972H21.875V10.454H12.5V14.6207H18.387C17.9761 15.7751 17.2361 16.7838 16.2583 17.5222L16.2599 17.5212L19.4839 20.2493C19.2557 20.4566 22.9167 17.7457 22.9167 12.5373C22.9167 11.8389 22.8448 11.1571 22.7141 10.4972Z" fill="#1976D2"/>
</svg>
