<svg width="342" height="239" viewBox="0 0 342 239" fill="none" xmlns="http://www.w3.org/2000/svg">
<g clip-path="url(#clip0)">
<path opacity="0.1" d="M198.707 42.1496C176.782 41.4106 155.884 34.546 135.958 27.037C116.032 19.5281 96.2831 11.2069 74.8713 7.22802C61.1048 4.66601 45.3608 4.30568 34.2708 11.4634C23.5964 18.3494 20.1484 30.2373 18.2938 41.2671C16.8989 49.5669 16.0896 58.3003 19.9028 66.0719C22.5573 71.4646 27.2679 75.9993 30.5269 81.166C41.8625 99.1429 33.8488 121.312 21.5622 138.88C15.7999 147.125 9.11505 154.97 4.66896 163.737C0.222859 172.504 -1.83645 182.547 2.05546 191.488C5.91273 200.344 15.1009 207.007 25.0574 211.688C45.279 221.188 69.1059 223.906 92.3409 225.463C143.773 228.874 195.483 227.396 247.051 225.918C266.135 225.369 285.305 224.816 304.078 221.948C314.504 220.357 325.27 217.835 332.839 211.746C342.446 204.014 344.83 190.926 338.391 181.231C327.59 164.973 297.73 160.933 290.18 143.485C286.026 133.881 290.293 123.181 296.332 114.274C309.283 95.167 330.997 78.4025 332.14 56.5597C332.928 41.5572 322.489 26.5362 306.349 19.4365C289.433 11.9887 265.975 12.9292 253.496 25.2384C240.646 37.9203 218.063 42.8 198.707 42.1496Z" fill="#27B4EF"/>
<path d="M76.2795 221.402C76.2795 221.402 58.9612 208.705 55.6896 192.554C54.3628 185.771 50.8042 179.587 45.5473 174.931C43.0325 172.741 40.3164 170.779 37.4329 169.068" stroke="#535461" stroke-width="2" stroke-miterlimit="10"/>
<path d="M35.3137 158.894C36.8314 160.885 37.5178 169.322 37.5178 169.322C37.5178 169.322 29.4034 166.222 27.8825 164.234C27.1522 163.279 26.8433 162.081 27.0237 160.904C27.2041 159.728 27.8591 158.669 28.8445 157.961C29.8299 157.252 31.0651 156.953 32.2783 157.128C33.4915 157.303 34.5834 157.938 35.3137 158.894Z" fill="#27B4EF"/>
<path d="M49.8675 165.514C50.0249 167.984 45.8779 175.429 45.8779 175.429C45.8779 175.429 40.7989 168.546 40.6383 166.076C40.5773 164.898 40.9972 163.744 41.8071 162.865C42.617 161.985 43.7517 161.451 44.9652 161.377C46.1788 161.303 47.3735 161.696 48.2905 162.47C49.2076 163.244 49.773 164.338 49.8643 165.514H49.8675Z" fill="#27B4EF"/>
<path d="M63.974 184.544C62.8279 186.755 55.3684 191.152 55.3684 191.152C55.3684 191.152 54.5717 182.724 55.7179 180.513C56.2821 179.474 57.2446 178.69 58.3984 178.332C59.5521 177.974 60.8049 178.069 61.887 178.597C62.969 179.125 63.794 180.045 64.1844 181.157C64.5747 182.269 64.4991 183.485 63.974 184.544Z" fill="#27B4EF"/>
<path d="M71.3076 201.266C70.5613 203.633 63.9772 209.187 63.9772 209.187C63.9772 209.187 61.7195 201.013 62.4658 198.643C62.8245 197.506 63.6342 196.554 64.7169 195.996C65.7996 195.437 67.0666 195.319 68.2391 195.667C69.4116 196.015 70.3936 196.8 70.969 197.85C71.5445 198.9 71.6663 200.129 71.3076 201.266Z" fill="#27B4EF"/>
<path d="M38.3712 181.414C40.8903 181.744 48.8536 178.257 48.8536 178.257C48.8536 178.257 42.134 172.858 39.6024 172.528C38.3873 172.37 37.1571 172.686 36.1825 173.407C35.2079 174.129 34.5686 175.196 34.4053 176.374C34.2421 177.553 34.5682 178.746 35.3119 179.691C36.0557 180.636 37.1561 181.256 38.3712 181.414Z" fill="#27B4EF"/>
<path d="M47.2036 200.869C49.7226 200.451 56.2312 194.817 56.2312 194.817C56.2312 194.817 48.1514 191.617 45.6355 192.035C45.0331 192.131 44.4563 192.341 43.9383 192.654C43.4203 192.967 42.9713 193.377 42.6174 193.859C42.2634 194.341 42.0114 194.887 41.876 195.464C41.7406 196.041 41.7244 196.639 41.8283 197.222C41.9323 197.805 42.1543 198.363 42.4817 198.863C42.809 199.362 43.2351 199.794 43.7355 200.133C44.2358 200.472 44.8004 200.712 45.3968 200.838C45.9931 200.964 46.6093 200.975 47.2099 200.869H47.2036Z" fill="#27B4EF"/>
<path d="M58.4605 218.638C61.0142 218.638 68.4139 214.152 68.4139 214.152C68.4139 214.152 61.0111 209.673 58.4574 209.673C57.2314 209.673 56.0557 210.145 55.1888 210.986C54.322 211.826 53.835 212.967 53.835 214.155C53.835 215.344 54.322 216.485 55.1888 217.325C56.0557 218.166 57.2314 218.638 58.4574 218.638H58.4605Z" fill="#27B4EF"/>
<path d="M244.52 111.583C244.52 111.583 255.194 93.2462 271.284 87.9634C278.041 85.7874 283.888 81.5455 287.948 75.874C289.852 73.1626 291.495 70.2872 292.857 67.2841" stroke="#535461" stroke-width="2" stroke-miterlimit="10"/>
<path d="M302.958 63.9251C301.126 65.6474 292.595 67.4307 292.595 67.4307C292.595 67.4307 294.689 59.2164 296.522 57.4911C297.407 56.6879 298.581 56.2537 299.792 56.282C301.004 56.3102 302.155 56.7987 302.999 57.6421C303.843 58.4856 304.311 59.6166 304.304 60.7917C304.296 61.9668 303.813 63.0921 302.958 63.9251Z" fill="#27B4EF"/>
<path d="M298.134 78.775C295.615 79.2575 287.469 76.2588 287.469 76.2588C287.469 76.2588 293.83 70.4569 296.333 69.9835C296.934 69.8542 297.556 69.8426 298.162 69.9494C298.767 70.0562 299.345 70.2793 299.861 70.6056C300.376 70.9319 300.819 71.3548 301.164 71.8495C301.509 72.3441 301.748 72.9006 301.868 73.4863C301.988 74.0719 301.986 74.6749 301.863 75.2598C301.739 75.8447 301.496 76.3998 301.149 76.8925C300.801 77.3851 300.355 77.8054 299.837 78.1287C299.32 78.452 298.741 78.6717 298.134 78.775Z" fill="#27B4EF"/>
<path d="M280.576 94.8616C278.165 94.0524 272.682 87.4687 272.682 87.4687C272.682 87.4687 281.184 85.5816 283.602 86.3908C284.183 86.5777 284.72 86.8747 285.182 87.2645C285.644 87.6543 286.021 88.1291 286.292 88.6615C286.563 89.1938 286.722 89.773 286.761 90.3655C286.799 90.958 286.715 91.552 286.515 92.1129C286.314 92.6739 286.001 93.1907 285.593 93.6332C285.185 94.0758 284.691 94.4354 284.138 94.6911C283.586 94.9468 282.986 95.0936 282.375 95.1228C281.764 95.1521 281.152 95.0633 280.576 94.8616Z" fill="#27B4EF"/>
<path d="M264.442 104.132C261.923 103.729 255.386 98.1259 255.386 98.1259C255.386 98.1259 263.444 94.8707 265.96 95.2738C267.171 95.467 268.253 96.1187 268.968 97.0857C269.684 98.0526 269.974 99.2556 269.775 100.43C269.575 101.604 268.903 102.654 267.906 103.348C266.909 104.041 265.669 104.323 264.458 104.129L264.442 104.132Z" fill="#27B4EF"/>
<path d="M280.356 69.837C280.353 72.3135 284.985 79.4987 284.985 79.4987C284.985 79.4987 289.61 72.3227 289.61 69.8492C289.627 69.2509 289.519 68.6555 289.294 68.0981C289.069 67.5408 288.731 67.0328 288.3 66.6041C287.87 66.1753 287.355 65.8346 286.786 65.602C286.218 65.3693 285.607 65.2495 284.99 65.2495C284.372 65.2495 283.761 65.3693 283.193 65.602C282.624 65.8346 282.109 66.1753 281.679 66.6041C281.248 67.0328 280.91 67.5408 280.685 68.0981C280.46 68.6555 280.353 69.2509 280.369 69.8492L280.356 69.837Z" fill="#27B4EF"/>
<path d="M261.643 80.9095C262.405 83.273 269.03 88.7849 269.03 88.7849C269.03 88.7849 271.234 80.595 270.466 78.2314C270.067 77.1364 269.246 76.234 268.175 75.7143C267.105 75.1946 265.868 75.0981 264.725 75.4452C263.582 75.7923 262.623 76.5559 262.049 77.5751C261.476 78.5943 261.332 79.7897 261.649 80.9095H261.643Z" fill="#27B4EF"/>
<path d="M244.995 94.0921C245.335 96.535 250.902 103.061 250.902 103.061C250.902 103.061 254.495 95.3502 254.155 92.8981C254.087 92.304 253.898 91.729 253.598 91.2069C253.298 90.6847 252.894 90.2261 252.408 89.8578C251.923 89.4896 251.366 89.2192 250.771 89.0626C250.176 88.906 249.555 88.8664 248.945 88.946C248.334 89.0256 247.745 89.2229 247.214 89.5263C246.683 89.8296 246.22 90.2329 245.852 90.7124C245.484 91.1919 245.219 91.7379 245.072 92.3183C244.924 92.8987 244.898 93.5018 244.995 94.0921Z" fill="#27B4EF"/>
<path opacity="0.25" d="M302.958 63.9251C301.126 65.6474 292.595 67.4307 292.595 67.4307C292.595 67.4307 294.689 59.2164 296.522 57.4911C297.407 56.6879 298.581 56.2537 299.792 56.282C301.004 56.3102 302.155 56.7987 302.999 57.6421C303.843 58.4856 304.311 59.6166 304.304 60.7917C304.296 61.9668 303.813 63.0921 302.958 63.9251Z" fill="black"/>
<path opacity="0.25" d="M298.134 78.775C295.615 79.2575 287.469 76.2588 287.469 76.2588C287.469 76.2588 293.83 70.4569 296.333 69.9835C296.934 69.8542 297.556 69.8426 298.162 69.9494C298.767 70.0562 299.345 70.2793 299.861 70.6056C300.376 70.9319 300.819 71.3548 301.164 71.8495C301.509 72.3441 301.748 72.9006 301.868 73.4863C301.988 74.0719 301.986 74.6749 301.863 75.2598C301.739 75.8447 301.496 76.3998 301.149 76.8925C300.801 77.3851 300.355 77.8054 299.837 78.1287C299.32 78.452 298.741 78.6717 298.134 78.775Z" fill="black"/>
<path opacity="0.25" d="M280.576 94.8616C278.165 94.0524 272.682 87.4687 272.682 87.4687C272.682 87.4687 281.184 85.5816 283.602 86.3908C284.183 86.5777 284.72 86.8747 285.182 87.2645C285.644 87.6543 286.021 88.1291 286.292 88.6615C286.563 89.1938 286.722 89.773 286.761 90.3655C286.799 90.958 286.715 91.552 286.515 92.1129C286.314 92.6739 286.001 93.1907 285.593 93.6332C285.185 94.0758 284.691 94.4354 284.138 94.6911C283.586 94.9468 282.986 95.0936 282.375 95.1228C281.764 95.1521 281.152 95.0633 280.576 94.8616Z" fill="black"/>
<path opacity="0.25" d="M264.442 104.132C261.923 103.729 255.386 98.1259 255.386 98.1259C255.386 98.1259 263.444 94.8707 265.96 95.2738C267.171 95.467 268.253 96.1187 268.968 97.0857C269.684 98.0526 269.974 99.2556 269.775 100.43C269.575 101.604 268.903 102.654 267.906 103.348C266.909 104.041 265.669 104.323 264.458 104.129L264.442 104.132Z" fill="black"/>
<path opacity="0.25" d="M280.356 69.837C280.353 72.3135 284.985 79.4987 284.985 79.4987C284.985 79.4987 289.61 72.3227 289.61 69.8492C289.627 69.2509 289.519 68.6555 289.294 68.0981C289.069 67.5408 288.731 67.0328 288.3 66.6041C287.87 66.1753 287.355 65.8346 286.786 65.602C286.218 65.3693 285.607 65.2495 284.99 65.2495C284.372 65.2495 283.761 65.3693 283.193 65.602C282.624 65.8346 282.109 66.1753 281.679 66.6041C281.248 67.0328 280.91 67.5408 280.685 68.0981C280.46 68.6555 280.353 69.2509 280.369 69.8492L280.356 69.837Z" fill="black"/>
<path opacity="0.25" d="M261.643 80.9095C262.405 83.273 269.03 88.7849 269.03 88.7849C269.03 88.7849 271.234 80.595 270.466 78.2314C270.067 77.1364 269.246 76.234 268.175 75.7143C267.105 75.1946 265.868 75.0981 264.725 75.4452C263.582 75.7923 262.623 76.5559 262.049 77.5751C261.476 78.5943 261.332 79.7897 261.649 80.9095H261.643Z" fill="black"/>
<path opacity="0.25" d="M244.995 94.0921C245.335 96.535 250.902 103.061 250.902 103.061C250.902 103.061 254.495 95.3502 254.155 92.8981C254.087 92.304 253.898 91.729 253.598 91.2069C253.298 90.6847 252.894 90.2261 252.408 89.8578C251.923 89.4896 251.366 89.2192 250.771 89.0626C250.176 88.906 249.555 88.8664 248.945 88.946C248.334 89.0256 247.745 89.2229 247.214 89.5263C246.683 89.8296 246.22 90.2329 245.852 90.7124C245.484 91.1919 245.219 91.7379 245.072 92.3183C244.924 92.8987 244.898 93.5018 244.995 94.0921Z" fill="black"/>
<path d="M245.134 111.22C245.134 111.22 247.231 90.2598 259.719 79.1139C264.986 74.4688 268.559 68.2931 269.902 61.5127C270.513 58.2894 270.818 55.0184 270.812 51.741" stroke="#535461" stroke-width="2" stroke-miterlimit="10"/>
<path d="M278.64 44.6688C277.695 46.9651 270.629 51.9487 270.629 51.9487C270.629 51.9487 269.112 43.6153 270.066 41.3189C270.525 40.2163 271.417 39.3357 272.546 38.871C273.675 38.4063 274.948 38.3954 276.085 38.8409C277.222 39.2863 278.13 40.1515 278.609 41.2462C279.088 42.3409 279.099 43.5753 278.64 44.6779V44.6688Z" fill="#27B4EF"/>
<path d="M280.438 60.1569C278.35 61.5799 269.638 62.0472 269.638 62.0472C269.638 62.0472 273.032 54.2481 275.12 52.8251C275.615 52.4658 276.179 52.2064 276.779 52.0624C277.38 51.9184 278.004 51.8927 278.614 51.9868C279.225 52.0809 279.81 52.2928 280.335 52.6102C280.86 52.9275 281.314 53.3437 281.669 53.8341C282.025 54.3246 282.276 54.8793 282.407 55.4654C282.538 56.0516 282.546 56.6572 282.431 57.2465C282.316 57.8358 282.081 58.3967 281.738 58.8961C281.396 59.3955 280.954 59.8232 280.438 60.1539V60.1569Z" fill="#27B4EF"/>
<path d="M271.099 81.7706C268.554 81.9782 260.789 78.1062 260.789 78.1062C260.789 78.1062 267.78 73.0371 270.324 72.8295C271.546 72.7299 272.758 73.105 273.695 73.8724C274.631 74.6398 275.215 75.7365 275.318 76.9214C275.421 78.1062 275.034 79.2821 274.243 80.1904C273.451 81.0986 272.32 81.6649 271.099 81.7645V81.7706Z" fill="#27B4EF"/>
<path d="M260.232 96.5777C257.76 97.1885 249.435 94.6631 249.435 94.6631C249.435 94.6631 255.44 88.5222 257.912 87.8993C259.098 87.6008 260.359 87.7718 261.415 88.3745C262.472 88.9773 263.239 89.9624 263.546 91.1132C263.854 92.2641 263.678 93.4863 263.056 94.5111C262.435 95.5359 261.419 96.2793 260.232 96.5777Z" fill="#27B4EF"/>
<path d="M260.453 58.9721C261.485 61.2348 268.709 65.9955 268.709 65.9955C268.709 65.9955 269.937 57.6162 268.904 55.3535C268.389 54.2948 267.468 53.4734 266.337 53.0646C265.206 52.6558 263.955 52.6922 262.852 53.1659C261.748 53.6396 260.879 54.5131 260.431 55.5997C259.983 56.6864 259.99 57.9 260.453 58.9812V58.9721Z" fill="#27B4EF"/>
<path d="M247.971 76.445C249.655 78.3047 258.012 80.7415 258.012 80.7415C258.012 80.7415 256.602 72.3898 254.917 70.5301C254.519 70.0783 254.033 69.7077 253.486 69.4397C252.94 69.1718 252.344 69.0118 251.733 68.9692C251.122 68.9266 250.508 69.0021 249.928 69.1914C249.347 69.3807 248.811 69.68 248.351 70.0719C247.891 70.4638 247.516 70.9405 247.247 71.4743C246.978 72.0081 246.822 72.5883 246.786 73.1813C246.751 73.7743 246.837 74.3681 247.041 74.9284C247.244 75.4887 247.56 76.0042 247.971 76.445Z" fill="#27B4EF"/>
<path d="M238.244 95.0479C239.579 97.1549 247.391 100.926 247.391 100.926C247.391 100.926 247.457 92.4645 246.132 90.3544C245.472 89.3801 244.447 88.6934 243.273 88.44C242.1 88.1865 240.871 88.3862 239.847 88.9967C238.823 89.6072 238.085 90.5805 237.789 91.7102C237.492 92.8398 237.661 94.037 238.26 95.0479H238.244Z" fill="#27B4EF"/>
<path d="M229.075 29.1348C229.598 27.2752 230.227 25.4063 230.668 23.5222C230.139 25.4063 229.506 27.2813 229.075 29.1348Z" fill="url(#paint0_linear)"/>
<path d="M226.732 47.0476C226.688 46.9743 226.657 46.901 226.622 46.8338C226.622 46.8033 226.59 46.7789 226.578 46.7483C226.509 46.7797 226.439 46.8073 226.367 46.8308C226.228 46.8827 226.087 46.9316 225.942 46.9713C225.797 47.011 225.737 47.0323 225.627 47.0568C225.535 47.0873 225.442 47.1108 225.347 47.127L225.372 47.182C225.488 47.1575 225.602 47.1362 225.718 47.1056L225.75 47.4843C225.882 47.4843 226.005 47.466 226.124 47.466C226.181 47.4629 226.238 47.4629 226.294 47.466C226.54 47.466 226.754 47.466 226.924 47.466C226.858 47.3285 226.789 47.185 226.732 47.0476ZM290.653 145.72C289.173 143.787 286.219 123.041 286.219 123.041C286.219 123.041 280.41 108.289 281.993 102.401C283.577 96.5137 277.667 81.45 277.667 81.45C277.667 81.45 273.762 79.8041 273.552 77.3612C273.552 77.3612 257.609 72.4753 256.863 68.811C256.258 65.8062 246.371 63.6503 242.819 62.9693C241.736 58.7309 240.647 54.7764 239.844 52.6175C239.626 51.9457 239.422 51.3655 239.233 50.9074C237.876 47.5484 233.681 47.243 230.64 47.5118C230.508 46.9393 230.263 46.3969 229.919 45.9147C229.868 45.7489 229.769 45.6012 229.632 45.4902C229.567 45.4363 229.497 45.3873 229.424 45.3437C229.369 45.2447 229.297 45.1558 229.21 45.081C229.124 45.0056 229.029 44.94 228.927 44.8856C228.854 44.8472 228.778 44.8136 228.7 44.7848C228.518 44.7175 228.329 44.6673 228.136 44.6352C227.912 44.5905 227.685 44.5619 227.456 44.5497C228.012 44.3139 228.508 43.9626 228.908 43.5206C229.18 43.2103 229.383 42.8484 229.503 42.458C229.603 42.1333 229.647 41.795 229.635 41.4564C229.554 41.5959 229.459 41.7278 229.352 41.8503C229.484 40.4975 228.747 39.1234 228.325 37.7767C227.814 36.0236 227.719 34.1808 228.048 32.387C228.47 29.6815 229.516 26.9454 230.224 24.191C230.226 24.1758 230.226 24.1604 230.224 24.1452C230.596 22.7773 230.826 21.3769 230.911 19.9648C231.033 17.1157 230.281 14.2728 229.072 11.6772C227.998 9.37777 226.414 7.11502 223.989 6.1806C222.188 5.47521 220.17 5.58819 218.23 5.47215C213.879 5.20954 209.729 3.72547 205.591 2.37575C201.454 1.02604 197.196 -0.201529 192.842 0.0336025C188.487 0.268734 184.006 2.30552 182.019 6.04318C181.389 7.20968 181.027 8.50748 180.275 9.60374C178.864 11.6711 176.339 12.7063 174.232 14.1323C172.126 15.5584 170.271 17.5829 169.509 19.9984C169.093 21.2997 169.034 22.6839 169.339 24.0139C169.408 24.3143 169.496 24.6101 169.604 24.8995C169.902 25.7063 170.369 26.4452 170.973 27.0706C171.429 27.5328 171.954 27.927 172.529 28.2402C173.251 28.6285 174.024 28.9202 174.827 29.1074C174.799 29.199 174.771 29.2967 174.739 29.3914C174.689 29.5471 174.645 29.6968 174.597 29.8647C174.494 30.2403 174.396 30.622 174.314 31.0068C174.311 31.0342 174.311 31.0618 174.314 31.0892C173.927 32.8261 173.733 34.5981 173.735 36.3751C173.734 37.2155 173.778 38.0553 173.867 38.8913C175.126 51.283 185.675 61.0577 198.708 61.6929C199.155 61.7143 199.605 61.7265 200.062 61.7265C200.27 61.7265 200.474 61.7265 200.692 61.7265C200.896 61.9891 201.098 62.2578 201.29 62.5204C201.482 62.7831 201.658 63.0518 201.825 63.3144L201.369 62.8563L200.912 62.4502C200.788 62.615 200.65 62.7692 200.499 62.9113C200.202 62.8097 199.898 62.7261 199.589 62.6609C198.283 62.38 196.293 62.2761 193.673 63.0426C191.264 63.7419 188.32 65.1802 184.875 67.9132L168.089 77.6849L159.008 83.041L155.736 90.7972C155.736 90.7972 153.277 100.013 150.541 110.573C150.434 110.603 150.33 110.634 150.226 110.67C150.004 110.646 149.781 110.634 149.558 110.634C147.971 110.63 146.443 111.223 145.297 112.289C144.151 113.354 143.475 114.809 143.412 116.347C137.971 122.76 137.662 129.172 138.941 132.116C139.056 132.392 139.202 132.655 139.375 132.901C140.213 134.074 141.778 137.097 143.365 140.318C143.324 140.584 143.298 140.807 143.286 140.975C143.283 141.03 143.283 141.085 143.286 141.14C143.286 141.14 144.231 154.976 141.082 158.942C140.392 159.807 140.496 160.943 141.082 162.201C143.191 166.726 151.533 172.769 151.533 172.769C151.533 172.769 161.536 172.718 167.11 172.128C167.094 172.672 167.081 173.212 167.069 173.74C166.943 179.078 166.943 183.552 166.943 183.552L166.735 189.149C166.735 189.149 164.846 200.945 163.901 204.198C163.306 206.237 163.992 225.124 164.591 239.009H263.154C264.313 230.795 262.679 205.837 262.679 205.837C262.679 205.837 261.126 199.385 261.07 193.76C261.067 193.754 261.065 193.747 261.065 193.74C261.065 193.733 261.067 193.727 261.07 193.721C261.07 193.229 261.07 192.749 261.089 192.279L261.803 192.255L263.088 192.212H263.205C263.205 192.212 263.236 192.096 263.308 191.907C263.478 191.435 263.71 190.987 263.998 190.572C264.546 189.787 265.402 189.018 266.69 188.966C267.402 188.938 268.504 188.38 269.748 187.555C269.756 187.557 269.765 187.557 269.773 187.555C273.12 185.36 277.544 181.307 278.618 180.642C280.095 179.726 287.167 173.618 287.167 173.618C287.167 173.618 288.222 172.324 289.346 170.763L289.387 170.708C290.785 168.754 292.271 166.418 291.906 165.682C291.276 164.363 292.328 161.208 292.328 161.208C295.612 155.379 292.133 147.653 290.653 145.72ZM229.764 51.796C229.795 51.8872 229.814 51.9815 229.821 52.077C229.742 51.9762 229.664 51.8693 229.585 51.7716L229.509 51.6739L229.456 51.6006L229.575 51.4418C229.575 51.4418 229.575 51.4418 229.575 51.4632C229.659 51.5622 229.723 51.6749 229.764 51.796ZM228.706 49.0905C228.363 49.1577 228.092 49.2187 227.916 49.2645C227.692 48.8798 227.478 48.495 227.286 48.1042C227.791 48.3882 228.267 48.7185 228.706 49.0905ZM228.114 49.573C228.113 49.5669 228.113 49.5607 228.114 49.5546L228.14 49.573C228.269 49.6554 228.395 49.7348 228.511 49.8173C228.615 49.8905 228.71 49.9608 228.804 50.0341C228.741 50.1409 228.672 50.2509 228.602 50.3394C228.492 50.1715 228.388 50.0096 228.288 49.8417C228.225 49.7745 228.168 49.6829 228.114 49.573ZM226.225 45.8048C226.833 45.7466 227.446 45.7466 228.055 45.8048C228.14 45.8048 228.215 45.82 228.291 45.8322C228.461 45.8578 228.629 45.8998 228.791 45.9574C229.164 46.4623 229.393 47.053 229.456 47.6705L229.286 47.695L229.119 47.7255C228.804 47.7774 228.489 47.8293 228.243 47.8782L227.929 47.9423C227.51 48.0309 227.267 48.0981 227.258 48.1011C227.217 48.0187 227.176 47.9423 227.132 47.8629C227.063 47.7316 226.99 47.5973 226.927 47.466C226.864 47.3346 226.782 47.185 226.716 47.0476C226.672 46.9743 226.641 46.901 226.606 46.8338C226.606 46.8033 226.575 46.7789 226.562 46.7483C226.544 46.716 226.528 46.6823 226.515 46.6476C226.323 46.2689 226.146 45.8903 225.976 45.5177C225.957 45.4811 225.942 45.4414 225.926 45.4047L226.165 45.3895V45.4689L226.225 45.8048ZM151.098 235.235C151.073 230.688 150.733 225.769 149.788 221.151C149.385 219.188 148.969 217.224 148.548 215.295C148.44 214.812 148.337 214.336 148.233 213.859L147.263 213.985H147.175C144.53 201.889 141.765 191.232 141.765 191.232C141.765 191.232 136.274 170.898 136.91 169.276C136.991 169.065 136.888 168.497 136.655 167.664C135.326 163.04 129.778 150.301 127.838 145.946C127.838 145.928 127.822 145.906 127.816 145.891C127.501 145.161 127.274 144.67 127.205 144.526L127.662 138.028L127.687 137.637L127.747 136.807L127.721 136.785L127.747 136.4C127.747 136.4 122.954 132.589 114.837 129.838C114.522 129.728 114.188 129.621 113.857 129.518C114.263 126.888 114.802 123.92 115.504 121.028C115.57 120.738 115.643 120.457 115.718 120.173C115.784 119.889 115.86 119.615 115.935 119.337C116.055 118.885 116.184 118.439 116.316 117.999C116.754 117.865 117.186 117.715 117.611 117.556L117.774 117.495C123.011 115.519 127.332 111.77 129.937 106.941C132.542 102.113 133.255 96.5328 131.944 91.2339C131.196 88.2287 129.815 85.4059 127.888 82.9433C127.743 82.7539 127.589 82.5646 127.435 82.3783C127.281 82.1921 127.095 81.9844 126.922 81.7951C127.832 79.7888 128.905 77.8803 128.993 75.929C129.009 75.6819 129.009 75.4341 128.993 75.187V75.1564C128.877 73.9014 128.304 72.6311 126.969 71.2966C125.02 69.3392 122.246 68.3468 119.472 67.8704C116.697 67.3941 113.87 67.3819 111.08 67.0612C106.454 66.5238 101.948 65.1405 97.3229 64.716C91.6254 64.2044 85.8893 65.152 80.6878 67.4643C77.2462 68.9911 73.7605 71.66 73.5527 75.3214C73.3826 78.3475 75.5553 81.2485 75.0074 84.238C74.4627 87.1756 71.3769 89.4872 71.6477 92.4584C71.7516 93.6188 72.3656 94.6571 73.1339 95.5823C73.3984 95.8877 73.6786 96.193 73.9683 96.4984C75.0893 97.6496 76.3236 98.7551 76.9502 100.206C76.9754 100.267 77.0006 100.328 77.0226 100.389C77.5548 101.821 77.3155 103.632 75.9993 104.453C76.0066 104.459 76.012 104.466 76.015 104.475C76.0339 104.499 76.0528 104.517 76.0686 104.542C76.0705 104.537 76.0705 104.531 76.0686 104.526C76.5352 105.063 77.1643 105.443 77.8665 105.614L78.1342 105.693C77.9169 105.922 77.7122 106.16 77.5044 106.411L77.369 106.585C77.022 107.037 76.7064 107.511 76.4244 108.005C76.2638 108.279 76.1095 108.554 75.9804 108.829C75.5488 109.667 75.2363 110.557 75.0515 111.477C74.7146 113.498 75.19 115.605 74.6799 117.584C74.0502 120.027 72.057 121.902 70.9329 124.171C68.8043 128.446 70.0103 133.463 70.4385 138.184C71.021 144.596 70.0764 151.037 69.1349 157.407C68.6353 160.794 68.1357 164.185 67.6361 167.578C66.3766 176.096 65.117 184.614 63.8575 193.131C63.3978 196.252 62.8531 199.544 60.7087 201.953H60.7308C60.7308 201.953 60.7308 201.971 60.7087 201.978C61.3525 202.25 62.0371 202.422 62.7366 202.484C65.5358 202.756 68.502 201.443 71.021 200.008C73.0159 198.89 74.9052 197.604 76.6668 196.163C76.4086 197.08 76.1315 198.078 75.8355 199.153C75.8365 199.163 75.8365 199.173 75.8355 199.184C72.2806 212.314 66.5623 236.386 66.5623 236.386C66.5623 236.386 66.0428 237.434 65.369 238.994H154.165C153.126 237.772 152.159 236.603 151.403 235.659L151.098 235.235ZM85.3512 113.822C85.3732 113.785 85.389 113.752 85.411 113.718C85.411 113.816 85.411 113.91 85.411 114.002C85.411 114.094 85.411 114.176 85.411 114.261C85.411 114.347 85.411 114.338 85.411 114.381C85.411 114.423 85.411 114.381 85.411 114.381C85.411 114.506 85.3827 114.631 85.3606 114.756C85.3606 114.756 85.3606 114.771 85.3606 114.784L85.6755 114.897L86.0408 115.043C88.1988 115.87 90.384 116.618 92.5966 117.288C92.8233 117.358 93.0532 117.425 93.283 117.489L93.3302 117.868C93.3869 118.256 93.4405 118.65 93.4908 119.044C93.4908 119.044 93.4908 119.062 93.4908 119.074C93.6325 120.164 93.7711 121.251 93.8939 122.314C93.8939 122.314 88.1127 120.176 88.1851 123.422C88.1818 123.48 88.1818 123.539 88.1851 123.596C88.1787 123.674 88.1787 123.751 88.1851 123.829C88.2386 126.357 89.0542 127.856 89.2179 128.626C89.2081 128.658 89.1909 128.687 89.1675 128.711C89.0278 129.006 88.9797 129.334 89.029 129.655C89.0235 130.201 89.0678 130.747 89.1612 131.286C88.9912 131.386 88.8243 131.487 88.6574 131.591C88.5315 131.667 88.4118 131.753 88.289 131.838C87.5166 129.24 86.506 126.714 85.2693 124.29C84.4034 122.561 83.4304 120.76 83.4399 118.863C83.4399 118.741 83.4399 118.616 83.4556 118.491C83.4907 117.941 83.5987 117.398 83.7768 116.875C83.8492 116.677 83.928 116.481 84.0161 116.289C84.2219 115.832 84.4521 115.386 84.7057 114.952C84.8694 114.665 85.0426 114.381 85.2095 114.094C85.263 114.008 85.3134 113.919 85.3638 113.834L85.3512 113.822ZM226.732 47.0476C226.688 46.9743 226.657 46.901 226.622 46.8338C226.622 46.8033 226.59 46.7789 226.578 46.7483C226.509 46.7797 226.439 46.8073 226.367 46.8308C226.228 46.8827 226.087 46.9316 225.942 46.9713C225.797 47.011 225.737 47.0323 225.627 47.0568L225.347 47.127L225.372 47.182C225.488 47.1575 225.602 47.1362 225.718 47.1056L225.75 47.4843C225.882 47.4843 226.005 47.466 226.124 47.466H226.294C226.54 47.466 226.754 47.466 226.924 47.466C226.858 47.3285 226.789 47.185 226.732 47.0476Z" fill="url(#paint1_linear)"/>
<path d="M157.931 91.8996L156.042 92.7089C156.042 92.7089 143.727 139.106 143.727 142.856C143.727 146.606 169.84 167.471 169.84 167.471L173.914 140.801C173.914 140.801 168.064 79.6392 157.931 91.8996Z" fill="#ACE7FF"/>
<path d="M215.211 77.1413L204.3 71.6203C203.689 69.0938 202.605 66.6977 201.101 64.5511C199.504 62.3158 197.382 60.1202 194.737 58.9751C188.052 56.068 223.013 40.809 223.013 40.809C223.564 42.642 224.213 44.4461 224.956 46.2139C226.757 50.5257 229.745 56.1016 233.596 57.6895C240.143 60.392 215.211 77.1413 215.211 77.1413Z" fill="#FFC1C7"/>
<path opacity="0.1" d="M224.956 46.2139C223.462 51.3089 220.356 55.8201 216.075 59.1104C211.795 62.4007 206.557 64.3038 201.101 64.5511C199.504 62.3158 197.382 60.1202 194.737 58.9751C188.052 56.068 223.013 40.809 223.013 40.809C223.564 42.642 224.212 44.4461 224.956 46.2139Z" fill="black"/>
<path d="M225.939 38.5096C225.94 43.5065 224.413 48.3915 221.551 52.5468C218.689 56.7022 214.621 59.9411 209.861 61.854C205.101 63.767 199.863 64.268 194.809 63.2936C189.756 62.3193 185.113 59.9134 181.47 56.3803C177.826 52.8472 175.345 48.3455 174.339 43.4446C173.334 38.5437 173.85 33.4638 175.822 28.8473C177.794 24.2308 181.133 20.2851 185.418 17.5093C189.702 14.7335 194.739 13.2522 199.892 13.2528C203.316 13.2375 206.71 13.8802 209.877 15.144C213.045 16.4078 215.922 18.2676 218.344 20.6159C220.766 22.9643 222.684 25.7546 223.987 28.8259C225.291 31.8971 225.954 35.1884 225.939 38.5096Z" fill="#FFC1C7"/>
<path d="M229.698 73.8983L222.595 89.9727L216.328 100.642H196.271L190.42 86.0549L192.791 70.9271H208.11L218 70.3867L221.341 69.3057L223.495 70.4905L229.698 73.8983Z" fill="#575A89"/>
<path opacity="0.1" d="M227.252 52.4709C227.252 52.4709 231.682 53.3869 227.714 56.5414C223.747 59.6958 210.059 69.727 210.059 69.727C210.059 69.727 214.867 73.88 213.872 78.7444L229.802 70.1331L232.636 56.3551C232.636 56.3551 232.954 52.2143 227.252 52.4709Z" fill="black"/>
<path opacity="0.1" d="M213.192 69.7271L203.059 71.3485C203.059 71.3485 205.15 78.8452 204.105 80.9736C204.073 81.0398 204.047 81.1082 204.026 81.1782L199.892 92.0156L202.99 100.526L213.715 86.342L210.059 80.9736C210.059 80.9736 213.923 76.0084 216.221 74.2861C218.52 72.5639 213.192 69.7271 213.192 69.7271Z" fill="black"/>
<path d="M213.192 69.3087L203.059 70.9271C203.059 70.9271 205.15 78.4239 204.105 80.5523C204.073 80.6184 204.047 80.6868 204.026 80.7568L199.892 91.5942L202.99 100.105L213.715 85.9114L210.059 80.5431C210.059 80.5431 213.923 75.5779 216.221 73.8556C218.52 72.1333 213.192 69.3087 213.192 69.3087Z" fill="#DCE6F2"/>
<path d="M227.677 51.6617C227.677 51.6617 232.107 52.5777 228.136 55.7322C224.166 58.8866 210.059 69.727 210.059 69.727C210.059 69.727 215.283 73.0708 214.291 77.9322L230.221 69.324L233.055 55.5459C233.055 55.5459 233.37 51.4051 227.677 51.6617Z" fill="#575A89"/>
<path opacity="0.1" d="M201.797 65.5069C201.797 65.5069 202.763 67.2597 207.03 70.4202C207.03 70.4202 199.926 74.0846 202.644 79.2361L191.777 76.4878L190.105 71.4218L201.797 65.5069Z" fill="black"/>
<path d="M201.378 65.1038C201.378 65.1038 202.345 66.8566 206.611 70.0172C206.611 70.0172 199.508 73.6632 202.225 78.83L191.362 76.0817L189.69 71.0187L201.378 65.1038Z" fill="#575A89"/>
<path opacity="0.1" d="M229.698 73.8984L222.595 89.9728L216.341 100.642H196.271L190.42 86.0549L192.788 70.9271H197.048C196.979 74.4572 198.308 78.604 198.223 80.1461C198.078 82.6806 202.121 96.3549 202.121 96.3549C202.121 96.3549 210.582 83.0837 213.923 81.902C216.023 81.1599 220.472 74.9854 223.492 70.4905L229.698 73.8984Z" fill="black"/>
<path d="M257.682 158.487L256.961 159.367C256.961 159.367 262.184 184.795 260.739 190.569C260.493 191.61 260.353 192.672 260.32 193.739V193.785C260.065 199.66 261.895 207.285 261.895 207.285C261.895 207.285 263.356 229.76 262.524 239.003H164.717C164.144 225.335 163.526 207.627 164.087 205.663C165.031 202.423 166.921 190.67 166.921 190.67L167.129 185.1C167.129 185.1 167.129 179.716 167.299 173.719C167.371 171.023 167.478 168.192 167.632 165.682C167.831 162.524 168.108 159.865 168.489 158.558C168.724 157.567 168.859 156.557 168.892 155.541C168.892 155.446 168.892 155.348 168.911 155.251C168.911 154.945 168.942 154.615 168.955 154.277C168.955 154.182 168.955 154.087 168.955 153.971C169.015 152.005 168.993 149.672 168.927 147.253C168.927 147.122 168.927 146.987 168.927 146.853C168.873 145.039 168.794 143.189 168.706 141.43C168.432 135.933 168.076 131.286 168.076 131.286L156.064 92.6875L159.301 84.9556L168.284 79.6178L184.894 69.892C192.996 63.4335 198.33 64.2091 200.364 64.9176C200.562 64.9829 200.755 65.0594 200.943 65.1466C201.006 65.1771 201.057 65.2015 201.104 65.229C201.169 65.2587 201.231 65.2935 201.29 65.3328C200.733 65.5927 200.249 65.9793 199.879 66.4596C199.463 67.0063 199.166 67.6298 199.007 68.2918C198.901 68.7022 198.826 69.1197 198.783 69.5408C198.742 69.9836 198.727 70.4416 198.727 70.9027C198.749 71.9139 198.839 72.9227 198.994 73.9228C198.994 73.9411 198.994 73.9655 198.994 73.9899C199.098 74.7045 199.227 75.4038 199.353 76.0603C199.352 76.0715 199.352 76.0828 199.353 76.0939C199.498 76.8604 199.643 77.5688 199.741 78.1796C199.76 78.2895 199.775 78.3903 199.791 78.4849C199.86 78.8885 199.893 79.2972 199.889 79.7064C199.924 80.6943 200.061 81.6764 200.298 82.6379C200.38 83.041 200.474 83.4715 200.578 83.9204C200.72 84.5312 200.874 85.1968 201.041 85.8748C201.132 86.2473 201.23 86.6321 201.331 87.0138C201.369 87.1664 201.41 87.3191 201.447 87.4749L201.51 87.7161C202.181 90.3026 202.908 92.8768 203.355 94.4341C203.62 95.3502 203.787 95.9152 203.787 95.9152C203.787 95.9152 208.529 88.4795 212.314 84.2472C212.37 84.1861 212.421 84.1281 212.474 84.0731C212.849 83.6548 213.217 83.2731 213.57 82.9371C214.342 82.1921 215.034 81.6607 215.592 81.4653C215.71 81.423 215.825 81.3709 215.935 81.3095C217.484 80.4576 219.984 77.3642 222.324 74.1243C222.554 73.8189 222.777 73.4861 223.004 73.1716C223.523 72.4448 224.027 71.715 224.503 71.0157C224.868 70.4813 225.218 69.9622 225.548 69.4675C227.123 67.0918 228.231 65.3206 228.231 65.3206L230.416 65.226L230.797 65.2077H231.052L240.974 64.7618C240.974 64.7618 241.402 64.8321 242.108 64.9695C242.145 64.9695 242.183 64.9695 242.224 64.9939C245.745 65.6718 255.525 67.8185 256.123 70.7958C256.853 74.4419 272.629 79.3064 272.629 79.3064C272.837 81.7493 276.7 83.3586 276.7 83.3586C276.7 83.3586 282.551 98.352 280.986 104.227C279.44 110.029 285.01 124.381 285.158 124.784L284.091 126.091L257.682 158.487Z" fill="#ACE7FF"/>
<path opacity="0.1" d="M227.249 51.4051C227.249 51.4051 236.906 48.7485 239.101 54.2175C241.295 59.6866 246.204 81.7737 246.204 81.7737C246.204 81.7737 233.458 84.1036 230.117 81.7737C228.157 80.3909 225.732 79.7758 223.325 80.0514L216.118 84.812L213.989 84.2013C213.989 84.2013 225.52 67.5773 228.026 61.928C230.533 56.2788 231.38 53.7534 227.249 51.4051Z" fill="black"/>
<path d="M226.83 50.1837C226.83 50.1837 236.493 47.527 238.697 52.9961C240.902 58.4652 245.801 80.5522 245.801 80.5522C245.801 80.5522 233.058 82.8822 229.714 80.5522C227.756 79.1694 225.331 78.5543 222.925 78.83L215.711 83.5906L213.583 82.9799C213.583 82.9799 225.114 66.3558 227.62 60.7066C230.126 55.0573 230.961 52.5381 226.83 50.1837Z" fill="#ACE7FF"/>
<path opacity="0.1" d="M162.005 138.297C162.005 138.297 169.213 140.019 170.573 143.97C171.934 147.922 165.246 148.023 165.246 148.023C165.246 148.023 161.171 141.033 162.005 138.297Z" fill="black"/>
<path opacity="0.1" d="M188.852 167.471C188.852 167.471 171.2 202.524 175.275 205.868C179.349 209.212 188.852 167.471 188.852 167.471Z" fill="black"/>
<path opacity="0.1" d="M213.192 141.641C213.192 141.641 227.296 175.689 224.474 180.947C221.653 186.205 230.533 180.947 230.533 180.947L213.192 141.641Z" fill="black"/>
<path d="M232.831 175.273C232.831 175.273 185.196 177.503 199.092 191.888C212.988 206.274 241.503 192.499 241.503 192.499L232.831 175.273Z" fill="#FFC1C7"/>
<path opacity="0.1" d="M225.939 38.5096C225.943 41.8228 225.272 45.1042 223.964 48.1652C223.527 48.2141 223.089 48.2446 222.667 48.2629C222.037 46.9224 222.374 45.3742 222.387 43.8992C222.399 42.4243 221.839 40.6899 220.375 40.2929C217.456 39.4959 215.44 44.7879 212.562 43.8321C210.358 43.1053 210.935 39.8623 209.666 37.9904C208.661 36.5094 206.649 36.0911 205.084 35.1628C201.756 33.1809 201.857 30.0112 200.311 27.0126C198.692 23.8704 195.272 24.7987 192.303 26.6522C190.049 28.063 188.103 29.9532 185.691 31.077C183.603 32.0541 181.257 32.4084 178.943 32.4603C177.518 32.5138 176.093 32.3678 174.711 32.0267C176.336 26.1007 180.129 20.9504 185.381 17.5361C190.633 14.1218 196.987 12.6767 203.256 13.4702C209.526 14.2637 215.285 17.2417 219.457 21.8488C223.63 26.4559 225.933 32.3776 225.935 38.5096H225.939Z" fill="black"/>
<path d="M192.313 25.843C190.055 27.2538 188.112 29.141 185.7 30.2708C183.613 31.2449 181.267 31.5992 178.952 31.6511C176.118 31.7121 173.067 31.2297 171.131 29.2448C169.352 27.4126 168.927 24.5941 169.679 22.1909C170.432 19.7876 172.236 17.7936 174.355 16.3492C176.474 14.9049 178.933 13.9063 180.338 11.839C181.081 10.7458 181.44 9.45715 182.057 8.29371C184.031 4.57131 188.471 2.5559 192.763 2.3055C197.055 2.0551 201.309 3.29488 205.396 4.63849C209.483 5.9821 213.602 7.46006 217.915 7.73795C219.836 7.85398 221.833 7.73795 223.615 8.44334C226.011 9.38692 227.582 11.6436 228.653 13.9399C229.853 16.5294 230.599 19.3571 230.473 22.1848C230.208 28.2218 226.096 34.1459 227.903 39.9295C228.382 41.4716 229.279 43.0534 228.801 44.5955C228.102 46.846 225.107 47.3591 222.686 47.4659C222.056 46.1254 222.393 44.5741 222.406 43.1023C222.418 41.6304 221.858 39.8929 220.397 39.4959C217.475 38.705 215.459 43.9878 212.588 43.0351C210.399 42.3053 210.966 39.0653 209.694 37.1935C208.69 35.7094 206.674 35.2941 205.112 34.3658C201.784 32.3839 201.885 29.2143 200.339 26.2156C198.708 23.0581 195.285 23.9864 192.313 25.843Z" fill="#99607E"/>
<path d="M146.123 142.044L143.72 142.856C143.72 142.856 144.665 156.634 141.516 160.585C138.367 164.537 151.857 174.36 151.857 174.36C151.857 174.36 170.347 174.26 170.869 172.834C171.392 171.407 169.925 147.305 169.925 147.305C169.925 147.305 160 143.555 160.834 137.579C160.834 137.579 157.805 151.66 153.315 151.052C148.825 150.444 143.727 146.807 146.123 142.044Z" fill="#ACE7FF"/>
<path opacity="0.1" d="M154.137 155.315C157.637 155.315 160.475 152.798 160.475 149.693C160.475 146.588 157.637 144.071 154.137 144.071C150.636 144.071 147.798 146.588 147.798 149.693C147.798 152.798 150.636 155.315 154.137 155.315Z" fill="black"/>
<path d="M161.067 142.45C161.067 142.45 159.808 105.171 148.843 113.477C137.879 121.783 137.772 131.716 139.86 134.651C141.948 137.585 148.642 152.276 148.642 152.276C149.689 152.865 150.865 153.204 152.074 153.267C153.282 153.33 154.489 153.114 155.595 152.638C156.701 152.161 157.675 151.437 158.436 150.525C159.198 149.613 159.726 148.539 159.978 147.391L161.067 142.45Z" fill="#FFC1C7"/>
<path opacity="0.1" d="M229.462 48.0217C229.411 47.8579 229.313 47.7117 229.179 47.6003C228.637 47.1209 227.472 46.9529 225.715 47.0995L225.787 47.9057C228.13 47.7102 228.593 48.1622 228.653 48.2385V48.3148L228.725 48.4156C229.017 48.7963 229.224 49.232 229.333 49.6947C229.441 50.1575 229.449 50.6371 229.355 51.1028C228.842 53.5915 225.69 55.5734 225.658 55.5947L225.583 55.6375L225.535 55.7077C224.175 57.6651 216.483 63.1892 214.471 64.6183L214.294 64.4228C213.394 65.1802 205.478 71.9012 205.049 74.4755C204.772 76.0908 202.896 76.7168 202.216 76.8909C201.498 76.3626 199.168 74.564 197.955 72.5486C196.819 70.6523 201.394 66.9513 201.797 65.5069L201.167 64.8809C201.101 65.113 195.225 70.4385 196.859 73.1593C198.169 75.3427 200.562 77.2115 201.4 77.8284C201.132 80.1858 199.467 94.028 196.907 97.3076C193.726 101.384 191.053 121.929 191.349 129.102C191.61 135.475 189.894 147.513 184.164 152.682C183.171 153.617 181.974 154.322 180.662 154.745C179.35 155.168 177.956 155.298 176.584 155.125H176.515H176.446C176.364 155.125 168.051 155.95 161.067 150.24C155.352 145.577 152.115 137.967 151.441 127.615H151.303L151.246 124.601C152.796 124.367 154.191 123.559 155.139 122.347C156.088 121.136 156.515 119.615 156.331 118.105C156.147 116.594 155.367 115.212 154.154 114.247C152.941 113.283 151.39 112.812 149.827 112.934C148.264 113.055 146.81 113.76 145.771 114.899C144.732 116.038 144.189 117.524 144.255 119.043C144.322 120.563 144.994 121.998 146.129 123.048C147.264 124.097 148.774 124.679 150.342 124.671H150.412L150.468 127.667L150.191 127.685C150.884 138.373 154.285 146.279 160.267 151.162C164.815 154.816 170.623 156.659 176.518 156.319C176.937 156.364 177.357 156.386 177.778 156.387C180.48 156.4 183.08 155.386 185.02 153.562C191.056 148.111 192.892 135.631 192.605 129.041C192.291 121.441 195.096 101.635 197.911 98.0283C200.669 94.4891 202.341 80.6988 202.634 78.0269C203.632 77.7551 205.89 76.897 206.274 74.6678C206.551 73.0555 211.838 68.0872 215.091 65.3359L214.993 65.226C216.744 63.9862 222.188 60.0775 224.887 57.5674C225.724 56.7887 226.556 56.01 227.425 55.268C228.47 54.3702 229.799 52.9442 230.148 51.2586C230.268 50.7021 230.268 50.128 230.15 49.5713C230.032 49.0147 229.798 48.4873 229.462 48.0217Z" fill="black"/>
<path d="M201.293 77.636C201.161 77.5474 198.025 75.3701 196.453 72.7501C194.822 70.0293 200.698 64.7068 200.761 64.4747L201.391 65.1007C200.991 66.5421 196.415 70.2461 197.552 72.1394C198.985 74.5304 202.001 76.6221 202.033 76.6435L201.293 77.636Z" fill="#353146"/>
<path d="M214.061 65.2107L213.57 64.5542C213.671 64.4839 223.561 57.546 225.12 55.3016L225.17 55.2344L225.243 55.1886C225.274 55.1672 228.426 53.1885 228.939 50.6967C229.034 50.2315 229.027 49.7521 228.918 49.2898C228.81 48.8274 228.603 48.3922 228.31 48.0125L228.237 47.9087V47.8354C228.174 47.756 227.711 47.3071 225.369 47.5026L225.296 46.6934C227.056 46.5468 228.218 46.7147 228.76 47.1942C228.895 47.3067 228.994 47.4538 229.046 47.6186C229.387 48.0829 229.626 48.6099 229.748 49.1671C229.871 49.7244 229.874 50.3 229.758 50.8585C229.409 52.5472 228.083 53.9733 227.034 54.868C226.168 55.61 225.334 56.3948 224.5 57.1674C221.335 60.108 214.408 64.9695 214.061 65.2107Z" fill="#E8F5FF"/>
<path d="M150.84 123.538L150.005 123.553L150.098 128.471L150.933 128.457L150.84 123.538Z" fill="#E8F5FF"/>
<path d="M149.936 124.284C153.301 124.284 156.029 121.638 156.029 118.375C156.029 115.111 153.301 112.466 149.936 112.466C146.571 112.466 143.843 115.111 143.843 118.375C143.843 121.638 146.571 124.284 149.936 124.284Z" fill="#27B4EF"/>
<path d="M149.936 123.282C152.731 123.282 154.996 121.085 154.996 118.375C154.996 115.665 152.731 113.468 149.936 113.468C147.142 113.468 144.876 115.665 144.876 118.375C144.876 121.085 147.142 123.282 149.936 123.282Z" fill="#E8F5FF"/>
<path d="M177.381 155.993C176.96 155.993 176.54 155.972 176.122 155.929C170.227 156.265 164.42 154.422 159.871 150.771C153.888 145.885 150.493 137.988 149.794 127.291L151.054 127.215C151.728 137.567 154.965 145.18 160.683 149.84C167.667 155.535 175.977 154.725 176.059 154.725H176.128H176.197C177.569 154.897 178.963 154.766 180.276 154.343C181.589 153.921 182.786 153.216 183.779 152.282C189.507 147.113 191.223 135.075 190.962 128.702C190.647 121.523 193.32 100.978 196.504 96.9045C199.29 93.3348 201.019 77.2451 201.038 77.0833L201.085 76.6252L201.551 76.5458C201.58 76.5458 204.3 76.0451 204.64 74.0724C205.081 71.5012 212.984 64.7801 213.882 64.0198L214.704 64.9359C211.438 67.6842 206.152 72.6555 205.887 74.2709C205.503 76.5062 203.245 77.3612 202.25 77.6299C201.935 80.3049 200.276 94.0921 197.527 97.6313C194.712 101.238 191.906 121.044 192.221 128.644C192.492 135.234 190.675 147.717 184.639 153.165C182.695 154.994 180.089 156.009 177.381 155.993Z" fill="#353146"/>
<g opacity="0.1">
<path opacity="0.1" d="M228.621 31.2908C229.138 29.4402 229.761 27.5775 230.196 25.7026C229.676 27.5867 229.05 29.4402 228.621 31.2908Z" fill="black"/>
<path opacity="0.1" d="M223.353 45.8322C222.724 44.4917 223.061 42.9404 223.073 41.4686C223.086 39.9967 222.525 38.2745 221.064 37.8622C218.142 37.0713 216.127 42.3572 213.255 41.4014C211.051 40.6716 211.634 37.4316 210.361 35.5598C209.357 34.0757 207.345 33.6604 205.783 32.7321C202.452 30.7503 202.552 27.5806 201.01 24.5819C199.388 21.4366 195.971 22.3649 192.999 24.2216C190.741 25.6323 188.799 27.5226 186.387 28.6493C184.299 29.6235 181.953 29.9777 179.639 30.0296C176.821 30.0937 173.754 29.6082 171.817 27.6233C170.325 26.0965 169.786 23.8582 170.095 21.7603C170.041 21.9038 169.994 22.0474 169.947 22.1909C169.191 24.5941 169.632 27.4187 171.398 29.2448C173.335 31.2297 176.402 31.7122 179.22 31.6511C181.537 31.5992 183.88 31.2449 185.971 30.2708C188.389 29.141 190.332 27.2538 192.583 25.843C195.556 23.9864 198.975 23.0581 200.594 26.2034C202.137 29.2021 202.039 32.3717 205.368 34.3536C206.942 35.2697 208.941 35.6972 209.949 37.1812C211.209 39.0592 210.651 42.2931 212.843 43.0229C215.711 43.9756 217.727 38.6928 220.649 39.4837C222.11 39.8807 222.673 41.6213 222.658 43.0901C222.642 44.5589 222.314 46.1132 222.938 47.4537C225.359 47.3468 228.354 46.843 229.056 44.5833C229.153 44.259 229.197 43.9222 229.188 43.5847C228.165 45.2978 225.532 45.7376 223.353 45.8322Z" fill="black"/>
</g>
<path opacity="0.1" d="M280.262 121.074L283.917 124.824C283.917 124.824 286.843 145.488 288.304 147.421C289.765 149.354 293.216 157.043 289.976 162.818C289.976 162.818 288.93 165.96 289.557 167.276C290.184 168.592 284.859 175.179 284.859 175.179C284.859 175.179 277.859 181.255 276.395 182.168C274.931 183.082 267.204 190.374 264.593 190.474C261.983 190.575 261.13 193.717 261.13 193.717L246.4 194.224C246.4 194.224 238.263 193.812 236.493 194.927C236.493 194.927 237.438 182.871 228.347 174.968L239.941 170.916C239.941 170.916 244.331 169.084 245.688 167.169C246.542 165.995 247.753 165.11 249.152 164.638C249.152 164.638 252.389 162.408 252.492 161.193C252.596 159.978 256.45 158.487 256.45 158.487L254.268 140.425L255.418 110.438C255.418 110.438 259.073 85.3129 266.804 86.7328C274.534 88.1527 280.262 121.074 280.262 121.074Z" fill="black"/>
<path d="M281.521 121.074L285.177 124.824C285.177 124.824 288.102 145.488 289.563 147.421C291.024 149.354 294.475 157.043 291.235 162.818C291.235 162.818 290.193 165.96 290.82 167.276C291.446 168.592 286.118 175.179 286.118 175.179C286.118 175.179 279.119 181.255 277.654 182.168C276.19 183.082 268.463 190.374 265.853 190.474C263.242 190.575 262.389 193.717 262.389 193.717L247.659 194.224C247.659 194.224 239.516 193.812 237.753 194.927C237.753 194.927 238.698 182.871 229.607 174.968L241.201 170.916C241.201 170.916 245.59 169.084 246.947 167.169C247.801 165.995 249.012 165.11 250.411 164.638C250.411 164.638 253.648 162.408 253.752 161.193C253.856 159.978 257.71 158.487 257.71 158.487L255.528 140.425L256.677 110.438C256.677 110.438 260.333 85.3129 268.063 86.7328C275.794 88.1527 281.521 121.074 281.521 121.074Z" fill="#ACE7FF"/>
<path opacity="0.1" d="M267.931 151.366C267.931 151.366 278.69 148.618 281.512 151.977C284.333 155.336 267.931 151.366 267.931 151.366Z" fill="black"/>
<path opacity="0.1" d="M265.424 155.974C269.08 158.457 280.362 158.558 280.362 158.558L265.424 155.974Z" fill="black"/>
<path opacity="0.1" d="M270.96 168.384C271.275 168.485 278.716 176.186 281.839 173.857C284.963 171.527 270.96 168.384 270.96 168.384Z" fill="black"/>
<path opacity="0.1" d="M170.753 103.751C170.753 103.751 172.938 118.341 171.861 124.284C170.784 130.226 174.714 137.588 174.714 137.588L170.753 103.751Z" fill="black"/>
<path d="M122.375 109.684C119.856 111.599 118.017 116.13 116.685 121.111C114.361 129.798 113.602 139.872 113.602 139.872C113.602 139.872 93.5444 135.414 95.0054 133.39C95.9248 132.116 94.6905 122.522 93.6609 115.565C93.0469 111.455 92.499 108.264 92.499 108.264C92.499 108.264 129.271 104.413 122.375 109.684Z" fill="#FFCCD0"/>
<path opacity="0.1" d="M122.375 109.278C119.856 111.196 118.017 115.724 116.685 120.705C112.689 121.881 108.438 121.988 104.385 121.012C100.331 120.036 96.6258 118.015 93.6609 115.162C93.0469 111.049 92.499 107.858 92.499 107.858C92.499 107.858 129.271 104.01 122.375 109.278Z" fill="black"/>
<path d="M133.156 98.3642C133.158 103.675 131.223 108.816 127.692 112.877C124.162 116.937 119.264 119.655 113.865 120.55C108.467 121.445 102.916 120.459 98.1951 117.767C93.4742 115.075 89.8877 110.849 88.0702 105.839C86.2528 100.829 86.3217 95.3564 88.2647 90.3907C90.2077 85.4249 93.8995 81.2858 98.6868 78.7059C103.474 76.1261 109.048 75.2718 114.422 76.2943C119.797 77.3169 124.625 80.1502 128.052 84.293C131.355 88.2836 133.155 93.2472 133.156 98.3642Z" fill="#FFCCD0"/>
<path opacity="0.1" d="M151.444 239.003H144.832L144.275 227.677L143.692 215.954C143.692 215.954 145.194 215.737 147.587 215.414L148.554 215.288H148.633C149.155 217.667 149.672 220.11 150.169 222.55C150.997 226.881 151.428 231.276 151.457 235.681C151.457 235.986 151.457 236.291 151.457 236.579C151.476 237.394 151.457 238.209 151.444 239.003Z" fill="black"/>
<path d="M150.175 239.003H67.2488C67.6077 238.212 67.847 237.733 67.847 237.733C67.847 237.733 74.4816 209.584 77.8539 197.675C77.8549 197.665 77.8549 197.655 77.8539 197.644C78.2753 196.027 78.784 194.432 79.3779 192.866C79.4163 192.759 79.4659 192.657 79.5259 192.56C81.1948 189.928 83.2856 187.091 80.3604 183.039C77.4351 178.987 78.4711 161.156 78.4711 161.156C78.4711 161.156 82.0229 145.958 85.7826 137.854C86.3531 136.599 87.1629 135.459 88.1694 134.495C88.4966 134.185 88.8459 133.897 89.2148 133.634C89.4952 133.429 89.7874 133.241 90.0901 133.069L90.15 133.032C91.7293 132.164 93.4831 131.636 95.2919 131.484C96.5768 131.354 97.8738 131.389 99.1492 131.588C105.245 132.455 110.126 133.906 114.005 135.558C124.519 140.037 127.702 146.041 127.765 146.166L127.791 146.218C128.213 147.174 134.384 161.147 136.607 167.667C137.184 169.365 137.498 170.559 137.372 170.885C136.743 172.504 142.177 192.765 142.177 192.765C142.177 192.765 144.697 202.536 147.216 213.991C147.326 214.467 147.43 214.943 147.53 215.426C147.981 217.505 148.428 219.625 148.859 221.741C149.695 226.102 150.126 230.527 150.147 234.963C150.193 236.345 150.203 237.692 150.175 239.003Z" fill="#FF748E"/>
<path opacity="0.1" d="M94.7976 124.516C94.7976 124.516 89.0762 122.378 89.1455 125.621C89.2147 128.864 90.5404 130.415 90.1216 130.889C89.7028 131.362 90.3294 134.199 90.3294 134.199C90.3294 134.199 98.0597 134.199 101.612 135.75C105.163 137.301 118.256 140.41 119.928 141.357C121.6 142.303 127.8 146.548 127.8 146.548L128.357 138.511C128.357 138.511 121.95 133.377 111.436 130.745C100.922 128.113 94.7976 124.516 94.7976 124.516Z" fill="black"/>
<path d="M94.7976 124.109C94.7976 124.109 89.0762 121.972 89.1455 125.215C89.2147 128.458 90.5404 130.009 90.1216 130.482C89.7028 130.956 90.3294 133.793 90.3294 133.793C90.3294 133.793 98.0597 133.793 101.612 135.347C105.163 136.901 118.256 140.007 119.928 140.95C121.6 141.894 127.8 146.142 127.8 146.142L128.364 138.129C128.364 138.129 121.956 132.996 111.442 130.363C100.928 127.731 94.7976 124.109 94.7976 124.109Z" fill="#FF748E"/>
<path opacity="0.1" d="M112.069 143.451C112.069 143.451 123.001 154.93 122.444 158.109C121.887 161.288 112.069 143.451 112.069 143.451Z" fill="black"/>
<path opacity="0.1" d="M94.3095 184.917C94.3095 184.917 86.2958 192.078 83.9342 192.484C81.5726 192.89 85.7448 194.24 88.459 193.162C91.1733 192.084 96.9608 189.247 96.9608 189.247L94.3095 184.917Z" fill="black"/>
<path d="M153.431 239.003H134.743C132.13 236.804 129.658 234.768 128.083 233.543C125.564 231.583 123.748 228.697 122.589 226.376C122.327 225.848 122.101 225.353 121.909 224.904C121.565 224.131 121.262 223.341 121.002 222.538L134.841 214.568C135.606 215.198 136.324 215.88 136.991 216.608L137.158 216.794C137.927 217.673 138.604 218.672 138.663 219.49C138.733 220.443 141.466 224.129 144.259 227.668C147.093 231.268 149.996 234.71 150.188 234.942C150.188 234.942 150.667 235.574 151.448 236.545C151.999 237.247 152.679 238.09 153.431 239.003Z" fill="#FFCCD0"/>
<path opacity="0.1" d="M128.052 84.2929C127.388 85.7464 126.792 87.2549 126.704 88.8734C126.456 93.5455 126.859 103.992 121.525 106.337C118.883 107.491 116.055 104.957 113.158 104.896C111.074 104.853 109.162 106.136 107.89 107.739C106.618 109.342 105.828 111.244 104.905 113.058C104.065 114.705 103.098 116.287 102.011 117.791C101.687 118.252 101.329 118.69 100.941 119.101C97.6884 117.77 94.7921 115.737 92.4727 113.156C90.1533 110.575 88.4719 107.515 87.5568 104.208C86.6417 100.902 86.517 97.4364 87.1921 94.076C87.8673 90.7157 89.3245 87.5491 91.4527 84.8176C93.5809 82.0861 96.3239 79.8618 99.4728 78.3141C102.622 76.7665 106.093 75.9363 109.623 75.8869C113.153 75.8374 116.648 76.5701 119.842 78.0289C123.035 79.4878 125.843 81.6344 128.052 84.3051V84.2929Z" fill="black"/>
<path d="M126.286 88.0489C126.034 92.721 126.44 103.168 121.103 105.51C118.461 106.664 115.633 104.133 112.736 104.071C110.652 104.026 108.744 105.311 107.468 106.911C106.193 108.511 105.409 110.417 104.483 112.234C103.643 113.88 102.676 115.462 101.59 116.967C100.941 117.859 100.223 118.753 99.2248 119.254C97.4867 120.134 95.3801 119.639 93.516 119.074C91.0978 118.335 88.7152 117.502 86.3683 116.576C86.4221 116.233 86.4495 115.885 86.4501 115.538C86.3809 115.666 86.3053 115.785 86.2297 115.913L86.0817 116.164C85.8141 116.622 85.5527 117.08 85.3134 117.55C85.2221 117.73 85.1339 117.917 85.0552 118.103C84.7386 118.796 84.5397 119.535 84.4664 120.289C84.3058 122.326 85.3418 124.259 86.2612 126.091C89.7973 133.179 91.9826 141.466 89.3218 148.902C88.1694 152.136 86.1731 155.009 84.7152 158.133C82.1666 163.666 81.4165 169.821 82.5645 175.777C83.2919 179.478 84.7498 183.143 84.3908 186.896C83.7611 193.354 78.0177 198.16 72.2648 201.465C69.157 203.242 65.3532 204.824 62.0533 203.419C64.1567 201.037 64.6983 197.742 65.1517 194.634C66.3923 186.155 67.6361 177.672 68.883 169.184C69.3805 165.807 69.877 162.43 70.3724 159.052C71.2981 152.707 72.2365 146.291 71.6571 139.906C71.2352 135.2 70.0449 130.205 72.1483 125.945C73.2598 123.688 75.2404 121.819 75.8576 119.389C76.3646 117.413 75.8922 115.312 76.226 113.3C76.4087 112.384 76.718 111.497 77.1455 110.661C77.6898 109.528 78.4004 108.477 79.2552 107.54C78.4113 107.302 77.6241 106.975 77.1455 106.291C78.4994 105.436 78.7041 103.51 78.0901 102.062C77.4761 100.615 76.248 99.5123 75.1428 98.3703C74.0376 97.2282 72.9733 95.8968 72.8348 94.3395C72.5671 91.3744 75.6214 89.078 76.1599 86.1526C76.7046 83.1753 74.5509 80.2805 74.724 77.2665C74.9256 73.6235 78.3766 70.976 81.7836 69.44C86.9249 67.1319 92.6043 66.1837 98.2455 66.6917C102.836 67.1131 107.279 68.4903 111.858 69.0247C114.619 69.3301 117.419 69.3606 120.161 69.8309C122.904 70.3011 125.653 71.2936 127.583 73.2448C132.671 78.3902 126.575 82.6257 126.286 88.0489Z" fill="#FFE0D0"/>
<path opacity="0.1" d="M122.028 226.379C120.422 225.704 117.5 226.107 112.484 224.626C107.468 223.145 106.502 216.452 106.502 216.452V216.43C106.442 216.278 105.976 215.282 102.821 211.795C99.335 207.944 91.7999 188.496 91.7999 188.496C91.7999 188.496 85.1182 181.536 85.3292 178.971C85.5401 176.406 84.1421 169.581 84.2806 161.947C84.4192 154.313 99.3224 149.25 99.3224 149.25C128.017 144.319 121.26 176.4 120.495 178.831C119.73 181.262 123.7 187.827 123.7 187.827C123.14 190.685 125.999 195.11 125.999 195.11C125.999 195.11 126.692 199.025 126.833 200.512C126.841 200.58 126.857 200.648 126.881 200.713C127.34 202.115 131.087 203.385 132.611 204.158C134.214 204.97 139.369 212.061 139.369 212.061C140.48 217.267 123.628 227.063 122.028 226.379Z" fill="black"/>
<path d="M122.863 225.158C121.26 224.48 118.335 224.886 113.322 223.402C108.309 221.918 107.339 215.23 107.339 215.23V215.209C107.283 215.053 106.813 214.061 103.658 210.574C100.173 206.723 92.6375 187.271 92.6375 187.271C92.6375 187.271 85.9558 180.315 86.1636 177.75C86.3714 175.185 84.9796 168.36 85.1182 160.732C85.2567 153.104 100.151 148.044 100.151 148.044C128.845 143.112 122.088 175.194 121.323 177.625C120.558 180.055 124.528 186.621 124.528 186.621C123.968 189.479 126.827 193.904 126.827 193.904C126.827 193.904 127.52 197.818 127.665 199.306C127.67 199.374 127.685 199.442 127.709 199.507C128.168 200.909 131.916 202.179 133.443 202.952C135.042 203.761 140.2 210.855 140.2 210.855C141.318 216.052 124.466 225.848 122.863 225.158Z" fill="#FF748E"/>
<path opacity="0.1" d="M100.717 164.793C100.717 164.793 113.253 177.619 116.524 177.619C119.796 177.619 100.717 164.793 100.717 164.793Z" fill="black"/>
<path d="M122.863 225.158C121.26 224.48 118.335 224.886 113.322 223.402C108.309 221.918 107.339 215.23 107.339 215.23V215.209C110.661 213.071 119.075 207.034 122.39 204.827C124.724 203.278 126.629 201.003 127.743 199.495C128.203 200.897 131.95 202.167 133.477 202.939C135.077 203.749 140.235 210.842 140.235 210.842C141.318 216.052 124.466 225.848 122.863 225.158Z" fill="#FF748E"/>
<g opacity="0.1">
<path opacity="0.1" d="M77.1644 106.325C77.1801 106.349 77.2022 106.371 77.221 106.395C77.3155 106.279 77.4131 106.163 77.5139 106.053C77.4066 106.154 77.2895 106.245 77.1644 106.325Z" fill="black"/>
<path opacity="0.1" d="M84.4696 120.323C84.6018 118.628 85.537 117.135 86.4124 115.645C85.8393 115.431 85.2662 115.214 84.6994 114.988C84.7534 114.646 84.7808 114.3 84.7813 113.953C83.8965 115.48 82.9329 116.982 82.7976 118.701C82.637 120.741 83.6729 122.671 84.5924 124.503C88.1316 131.588 90.3137 139.875 87.653 147.314C86.4974 150.545 84.5042 153.421 83.0463 156.545C80.4987 162.077 79.7496 168.231 80.8988 174.186C81.6199 177.89 83.0809 181.552 82.722 185.305C82.0922 191.763 76.352 196.569 70.596 199.87C68.2438 201.22 65.4949 202.457 62.8657 202.368C62.6223 202.748 62.3508 203.111 62.0533 203.452C65.3564 204.866 69.157 203.275 72.2648 201.492C78.024 198.194 83.7768 193.4 84.4066 186.929C84.7655 183.176 83.3045 179.515 82.5803 175.811C81.4307 169.856 82.1776 163.703 84.7215 158.17C86.1699 155.049 88.1851 152.169 89.3281 148.939C91.9889 141.5 89.8036 133.212 86.2675 126.128C85.3512 124.284 84.309 122.363 84.4696 120.323Z" fill="black"/>
<path opacity="0.1" d="M127.577 73.2815C127.267 72.9733 126.934 72.6875 126.582 72.4265C130.398 77.2268 124.887 81.3065 124.614 86.4732C124.368 91.1453 124.771 101.595 119.434 103.934C116.795 105.091 113.964 102.557 111.071 102.496C108.983 102.453 107.075 103.739 105.799 105.339C104.524 106.939 103.74 108.844 102.818 110.658C101.976 112.304 101.008 113.886 99.9207 115.391C99.2909 116.286 98.5541 117.178 97.5528 117.682C95.821 118.558 93.7144 118.066 91.8472 117.498C90.0314 116.945 88.2324 116.334 86.4501 115.666C86.4465 115.984 86.4191 116.302 86.3683 116.616C88.7173 117.544 91.1009 118.377 93.5192 119.114C95.3833 119.682 97.4898 120.173 99.2248 119.297C100.223 118.793 100.947 117.898 101.593 117.004C102.68 115.501 103.648 113.92 104.486 112.273C105.412 110.46 106.193 108.551 107.472 106.951C108.75 105.351 110.655 104.068 112.739 104.111C115.636 104.172 118.467 106.707 121.106 105.549C126.443 103.21 126.037 92.7607 126.286 88.0886C126.575 82.6562 132.671 78.4238 127.577 73.2815Z" fill="black"/>
</g>
<path opacity="0.1" d="M86.0849 116.167C85.8172 116.625 85.5559 117.083 85.3166 117.553C85.2253 117.733 85.1371 117.92 85.0584 118.106C83.4084 116.494 79.3906 112.661 77.1486 111.473C77.6937 110.34 78.4042 109.289 79.2583 108.353C79.2583 108.353 84.6018 111.092 86.0849 116.167Z" fill="black"/>
<path d="M86.2329 115.917C84.9954 110.484 79.2583 107.543 79.2583 107.543C78.4035 108.48 77.693 109.531 77.1486 110.664C79.5134 111.919 83.8713 116.127 85.3166 117.553L86.2329 115.917Z" fill="#FF748E"/>
</g>
<defs>
<linearGradient id="paint0_linear" x1="229.871" y1="29.1348" x2="229.871" y2="23.5222" gradientUnits="userSpaceOnUse">
<stop stop-color="#808080" stop-opacity="0.25"/>
<stop offset="0.54" stop-color="#808080" stop-opacity="0.12"/>
<stop offset="1" stop-color="#808080" stop-opacity="0.1"/>
</linearGradient>
<linearGradient id="paint1_linear" x1="144458" y1="201084" x2="144458" y2="14020" gradientUnits="userSpaceOnUse">
<stop stop-color="#808080" stop-opacity="0.25"/>
<stop offset="0.54" stop-color="#808080" stop-opacity="0.12"/>
<stop offset="1" stop-color="#808080" stop-opacity="0.1"/>
</linearGradient>
<clipPath id="clip0">
<rect width="342" height="239" fill="white"/>
</clipPath>
</defs>
</svg>
