<svg width="19" height="21" viewBox="0 0 19 21" fill="none" xmlns="http://www.w3.org/2000/svg">
<path fill-rule="evenodd" clip-rule="evenodd" d="M9.30746 0C8.42869 0 6.96027 0.337496 5.57844 0.713199C4.16478 1.09527 2.73965 1.54739 1.90164 1.82121C1.55127 1.93691 1.24065 2.14911 1.00545 2.43341C0.770259 2.71772 0.620034 3.06261 0.572036 3.42845C-0.187012 9.13023 1.57434 13.3559 3.71139 16.1514C4.61764 17.3473 5.69819 18.4003 6.91696 19.2755C7.40856 19.6232 7.8645 19.8893 8.25167 20.0715C8.60827 20.2396 8.99161 20.3771 9.30746 20.3771C9.6233 20.3771 10.0054 20.2396 10.3632 20.0715C10.83 19.8446 11.2765 19.5783 11.6979 19.2755C12.9167 18.4004 13.9973 17.3473 14.9035 16.1514C17.0406 13.3559 18.8019 9.13023 18.0429 3.42845C17.995 3.06243 17.8448 2.71734 17.6096 2.43282C17.3744 2.14829 17.0637 1.93587 16.7133 1.81993C15.4968 1.42107 14.2708 1.05162 13.0365 0.711926C11.6546 0.33877 10.1862 0 9.30746 0ZM9.30746 6.36785C9.7586 6.36718 10.1954 6.5262 10.5406 6.81674C10.8857 7.10728 11.1169 7.51059 11.1932 7.95525C11.2694 8.3999 11.1859 8.8572 10.9573 9.24615C10.7287 9.6351 10.3698 9.9306 9.94424 10.0803L10.4346 12.6147C10.4524 12.7069 10.4496 12.8019 10.4265 12.8929C10.4033 12.9839 10.3603 13.0686 10.3005 13.141C10.2408 13.2134 10.1657 13.2717 10.0808 13.3117C9.99587 13.3518 9.90313 13.3725 9.80924 13.3725H8.80567C8.71189 13.3723 8.6193 13.3514 8.53452 13.3113C8.44974 13.2712 8.37487 13.2129 8.31525 13.1405C8.25563 13.0681 8.21274 12.9835 8.18964 12.8926C8.16654 12.8017 8.1638 12.7068 8.18162 12.6147L8.67067 10.0803C8.24509 9.9306 7.88622 9.6351 7.65763 9.24615C7.42904 8.8572 7.34548 8.3999 7.42175 7.95525C7.49802 7.51059 7.7292 7.10728 8.07434 6.81674C8.41948 6.5262 8.85631 6.36718 9.30746 6.36785Z" fill="#27B4EF"/>
</svg>
