<svg width="19" height="19" viewBox="0 0 19 19" fill="none" xmlns="http://www.w3.org/2000/svg">
<path d="M17.8296 18.67C7.87501 18.684 0.319496 11.0386 0.329998 1.17037C0.329998 0.525093 0.852757 0 1.49687 0H4.57742C5.15502 0 5.64628 0.424742 5.73146 0.996511C5.93462 2.36765 6.33347 3.70255 6.91584 4.96038L7.03602 5.21943C7.11676 5.39375 7.13413 5.59078 7.08513 5.77653C7.03614 5.96229 6.92385 6.12512 6.76764 6.23694C5.81314 6.9184 5.44908 8.28947 6.19237 9.35833C7.12471 10.7002 8.29975 11.8764 9.64165 12.8088C10.7117 13.5509 12.0828 13.1868 12.763 12.2335C12.8748 12.0768 13.0377 11.9641 13.2237 11.9149C13.4098 11.8657 13.6071 11.883 13.7817 11.964L14.0396 12.083C15.2975 12.6664 16.6324 13.0655 18.0035 13.2685C18.5752 13.3537 19 13.845 19 14.4237V17.5031C19 17.6564 18.9698 17.8083 18.9111 17.9499C18.8523 18.0916 18.7663 18.2203 18.6578 18.3286C18.5493 18.437 18.4206 18.5229 18.2788 18.5815C18.1371 18.6401 17.9853 18.6701 17.8319 18.67H17.8296Z" fill="#27B4EF"/>
</svg>
