<svg width="309" height="361" viewBox="0 0 309 361" fill="none" xmlns="http://www.w3.org/2000/svg">
<path fill-rule="evenodd" clip-rule="evenodd" d="M87.2215 352.215C123.104 340.237 158.176 316.02 219.843 325.742C281.509 335.465 324.102 256.202 301.306 217.317C291.181 204.759 283.993 188.207 301.306 161.732C317.489 111.8 286.358 80.4496 257.654 65.6869C228.951 50.9242 159.033 20.2537 100.452 41.7508C41.8703 63.248 18.1108 97.0154 14.2249 120.453C10.3389 143.891 25.8653 146.183 28.6432 183.255C31.4211 220.327 -6.83495 281.436 8.72092 315.058C24.2768 348.681 51.339 364.194 87.2215 352.215Z" fill="#27B4EF"/>
<path fill-rule="evenodd" clip-rule="evenodd" d="M248.984 319.323C247.709 317.477 245.601 316.382 243.662 315.206C238.692 312.19 234.401 308.24 230.167 304.301C221.345 296.093 212.602 287.805 203.94 279.437C201.759 277.33 199.57 275.203 197.813 272.749C193.787 267.129 188.655 262.263 182.779 258.494C181.941 257.957 181.037 257.425 180.035 257.385C178.842 257.337 177.751 257.989 176.76 258.637C169.056 263.67 162.186 269.912 156.496 277.048C155.794 277.93 155.072 278.946 155.203 280.055C155.3 280.875 155.849 281.567 156.38 282.209C163.054 290.286 170.242 297.96 177.887 305.173C179.962 307.131 182.077 309.062 183.916 311.232C186.458 314.23 188.433 317.637 190.715 320.827C201.253 335.553 218.093 345.147 235.754 350.278C237.934 350.911 240.209 351.488 242.459 351.162C247.47 350.436 250.888 344.519 248.923 339.97C247.516 336.714 248.568 333.009 249.465 329.585C250.361 326.162 251.009 322.255 248.984 319.323Z" fill="white"/>
<path fill-rule="evenodd" clip-rule="evenodd" d="M252.315 231.798C254.144 227.849 258.451 225.113 262.899 225.076C265.068 225.058 267.193 225.623 269.284 226.185C278.481 228.653 287.679 231.122 296.876 233.59C299.27 234.232 301.71 234.895 303.772 236.243C305.833 237.591 307.487 239.767 307.52 242.185C307.541 243.771 306.878 245.286 306.139 246.699C305.13 248.626 303.897 250.53 302.047 251.727C298.306 254.148 293.333 253.023 289.017 251.812C278.979 248.996 268.928 246.175 259.172 242.54C256.008 241.361 252.483 239.672 251.675 236.469C251.283 234.915 251.639 233.257 252.315 231.798Z" fill="white"/>
<path fill-rule="evenodd" clip-rule="evenodd" d="M126.939 311.439C131.049 309.305 136.832 311.287 138.664 315.458C139.864 318.19 139.465 321.306 139.045 324.25C137.925 332.084 136.806 339.919 135.686 347.754C135.457 349.361 135.225 350.977 134.732 352.527C133.788 355.496 131.79 358.23 128.953 359.652C126.116 361.075 122.419 360.99 119.913 359.065C118.037 357.623 116.994 355.342 116.621 353.042C116.249 350.742 116.478 348.394 116.739 346.08C117.591 338.507 118.766 330.969 120.259 323.491C121.186 318.849 122.656 313.664 126.939 311.439Z" fill="white"/>
<path fill-rule="evenodd" clip-rule="evenodd" d="M28.5876 155.504C28.1291 154.916 28.9129 154.175 29.5866 153.835C37.3083 149.939 45.1168 146.207 53.0049 142.641C55.0664 141.709 57.167 140.779 59.4135 140.444C61.6601 140.109 64.1093 140.44 65.8863 141.82C67.9922 143.455 68.7864 146.237 68.9173 148.857C69.0254 151.022 68.6958 153.359 67.2058 154.968C66.5214 155.708 65.6391 156.242 64.7661 156.759C56.7143 161.536 48.368 165.841 39.7873 169.645C37.1915 170.796 34.1974 171.909 31.5782 170.81C30.5953 170.397 29.7619 169.699 29.0629 168.91C25.8226 165.251 25.6142 159.372 28.5876 155.504Z" fill="white"/>
<path fill-rule="evenodd" clip-rule="evenodd" d="M105.635 79.9149C105.153 83.6479 106.923 87.5763 110.07 89.7581C111.555 90.7881 112.102 92.7559 111.867 94.5171C111.631 96.2782 110.744 97.8858 109.839 99.4277C109.161 100.584 108.431 101.764 107.318 102.538C106.205 103.312 104.603 103.576 103.481 102.815C99.1764 99.8933 93.3443 101.035 88.2596 102.293C86.574 102.71 84.9346 101.584 83.5785 100.523C81.8573 99.1773 80.1361 97.8315 78.415 96.4857C77.7971 96.0025 77.1614 95.4986 76.799 94.8123C76.3493 93.9609 76.3829 92.9499 76.4942 91.9986C77.0513 87.2369 79.2588 82.8169 81.6637 78.6359C84.148 74.3166 87.6229 69.671 92.6919 69.3047C94.0138 69.2092 95.4764 69.4962 96.3137 70.4972C97.8004 72.2747 100.096 73.1663 102.078 74.4024C104.061 75.6384 105.929 77.6401 105.635 79.9149Z" fill="white"/>
<path fill-rule="evenodd" clip-rule="evenodd" d="M75.7675 90.3287C74.2741 91.6167 72.11 91.9585 70.1388 91.6605C68.1677 91.3625 66.3395 90.4993 64.5657 89.6105C55.2414 84.9387 46.4533 79.2524 38.4175 72.6913C37.8008 72.1878 37.1771 71.6661 36.7672 70.9917C36.2857 70.1993 36.1381 69.2601 36.0451 68.3437C35.0533 58.5677 39.6205 48.4287 47.6775 42.5199C50.9629 40.1105 55.6564 38.4179 59.0587 40.6682C66.8236 45.8038 74.4305 51.1661 81.8657 56.7454C85.1159 59.1842 88.4045 61.7416 90.5255 65.1625C91.2544 66.3383 91.7794 67.9899 90.7919 68.9704C89.5649 65.2652 70.7696 90.6534 75.7675 90.3287Z" fill="white"/>
<path fill-rule="evenodd" clip-rule="evenodd" d="M20.1299 331.122C16.0313 332.567 10.5038 330.907 9.39314 326.802C7.5361 319.937 17.7711 316.429 21.5947 310.386C26.1329 303.213 20.6929 294.154 15.3476 287.53C11.5544 290.618 6.02975 293.792 2.12324 290.841C-2.6073 287.268 1.37334 279.797 6.19743 276.345C14.8497 270.152 25.9147 267.243 36.5908 268.356C39.3086 248.638 49.7077 230.017 65.2256 217.082C80.7435 204.146 101.237 197.014 121.657 197.444C119.375 158.879 142.33 119.987 177.694 102.502C181.533 100.604 185.643 98.9101 189.948 98.9353C194.253 98.9605 198.798 101.095 200.432 104.975C202.065 108.854 199.532 114.179 195.243 114.533C193.245 114.698 175.909 120.709 177.694 120.329C200.432 115.486 254.857 154.12 284.159 154.12C286.79 154.12 293.618 144.672 295.468 143.408C297.168 142.248 301.847 141.592 303.892 141.934C309.224 142.827 308.85 150.496 306.556 155.268C292.878 183.735 262.232 201.648 230.729 208.452C199.225 215.256 166.481 212.566 134.334 209.843C132.11 232.237 128.968 256.591 112.519 272.386C96.8802 287.402 72.1441 290.704 50.9728 285.023C50.9728 281.928 50.9728 281.928 51.1539 273.453C47.4815 291.044 40.0985 307.893 29.5975 322.645C27.114 326.134 24.2286 329.678 20.1299 331.122Z" fill="white"/>
<path d="M242.072 58.3179C240.772 59.967 239.472 61.6162 238.171 63.2653C237.47 64.1556 236.095 65.0909 235.348 64.2362C234.04 62.7401 231.622 63.1616 229.646 62.7635C228.366 62.5057 227.209 61.8632 226.075 61.2299C209.689 52.0739 193.302 42.9179 176.916 33.7619C175.621 33.0385 174.218 32.1878 173.789 30.7953C177.53 24.4174 183.846 15.6316 184.207 15.8439C188.137 18.6025 192.138 21.2652 196.205 23.8285C209.109 31.9607 222.652 39.0791 235.827 46.787C237.109 47.537 238.514 48.4678 238.753 49.9058C238.937 51.0131 238.103 53.7553 238.89 53.2245C239.314 52.9386 239.887 53.1955 240.33 53.4531C241.667 54.232 243.203 55.4177 242.878 56.9026C242.762 57.4351 242.412 57.8862 242.072 58.3179Z" fill="white"/>
<path fill-rule="evenodd" clip-rule="evenodd" d="M174.004 121.906C174.933 121.757 175.774 121.152 176.191 120.329C183.104 120.994 189.957 122.253 196.644 124.085C211.779 128.231 225.903 135.258 239.643 142.701C253.716 150.324 269.528 154.882 285.593 155.947C285.715 156.803 284.974 157.593 284.131 157.859C283.287 158.125 282.373 157.996 281.497 157.864C268.177 155.867 254.443 153.725 243.012 146.773C231.348 139.679 218.958 133.717 206.085 129.005C202.765 127.789 199.411 126.656 196.004 125.692C188.839 123.665 181.449 122.393 174.004 121.906Z" fill="#00160A"/>
<path fill-rule="evenodd" clip-rule="evenodd" d="M252.315 231.798C254.144 227.849 258.451 225.113 262.899 225.076C265.068 225.058 267.193 225.623 269.284 226.185C278.481 228.653 287.679 231.122 296.876 233.59C299.27 234.232 301.71 234.895 303.772 236.243C305.833 237.591 307.487 239.767 307.52 242.185C307.541 243.771 306.878 245.286 306.139 246.699C305.13 248.626 303.897 250.53 302.047 251.727C298.306 254.148 293.333 253.023 289.017 251.812C278.979 248.996 268.928 246.175 259.172 242.54C256.008 241.361 252.483 239.672 251.675 236.469C251.283 234.915 251.639 233.257 252.315 231.798ZM275.895 242.728C275.622 244.562 276.011 246.998 277.876 247.363C282.41 248.25 286.9 249.346 291.327 250.646C294.153 251.476 297.245 252.382 299.969 251.277C302.014 250.447 303.437 248.628 304.646 246.82C306.023 244.761 307.274 242.102 306.047 239.954C305.226 238.518 303.543 237.805 301.968 237.217C295.926 234.962 289.729 233.099 283.433 231.645C281.559 231.212 279.895 232.877 278.906 234.486C277.357 237.004 276.327 239.823 275.895 242.728Z" fill="#00160A"/>
<path fill-rule="evenodd" clip-rule="evenodd" d="M83.4516 60.0616C82.9857 59.7956 82.4823 59.5457 81.9423 59.5415C81.3603 59.5369 80.8204 59.8172 80.3166 60.101C70.6313 65.5569 63.6368 75.3384 61.7407 86.0787C65.6676 89.1076 70.7696 90.6534 75.7675 90.3287C74.2741 91.6167 72.11 91.9585 70.1388 91.6605C68.1677 91.3625 66.3395 90.4993 64.5657 89.6105C55.2414 84.9387 46.4533 79.2524 38.4175 72.6913C37.8008 72.1878 37.1771 71.6661 36.7672 70.9917C36.2857 70.1993 36.1381 69.2601 36.0451 68.3437C35.0533 58.5677 39.6205 48.4287 47.6775 42.5199C50.9629 40.1105 55.6564 38.4179 59.0587 40.6682C66.8236 45.8038 74.4305 51.1661 81.8657 56.7454C85.1159 59.1842 88.4045 61.7416 90.5255 65.1625C91.2544 66.3383 91.7794 67.9899 90.7919 68.9704C89.5649 65.2652 86.8998 62.0305 83.4516 60.0616ZM42.2465 49.9258C41.1416 51.3487 40.0482 52.8051 39.3386 54.4498C38.5284 56.3279 38.2503 58.3762 37.9799 60.3963C37.4923 64.0396 37.1197 68.1249 39.4455 71.0175C40.2778 72.0526 41.3905 72.8335 42.4874 73.5999C47.389 77.0245 52.2907 80.449 57.1923 83.8736C57.7782 84.283 58.3958 84.705 59.1105 84.7979C59.8252 84.8907 60.6576 84.5311 60.8252 83.848C63.3772 73.4448 70.4607 64.1728 79.9581 58.8036C80.5651 58.4605 80.054 57.5624 79.5185 57.1206C74.7397 53.1781 69.6634 49.5777 64.3441 46.3582C64.0472 46.1785 63.7337 45.9949 63.3849 45.9736C62.935 45.9461 62.5207 46.1917 62.1423 46.4303C57.4649 49.3801 52.9718 52.7309 49.5185 56.9905C46.0653 61.25 43.7024 66.5109 43.7328 71.9383C43.4823 72.3753 42.8598 71.7836 42.777 71.2896C42.1023 67.2685 43.8491 63.2299 46.0489 59.7643C49.8712 53.7426 55.2015 48.6363 61.4463 45.0137C59.5828 41.6001 54.6415 40.7753 50.9699 42.2442C47.2982 43.713 44.6408 46.8423 42.2465 49.9258V49.9258Z" fill="#00160A"/>
<path fill-rule="evenodd" clip-rule="evenodd" d="M138.664 315.458C139.864 318.19 139.465 321.306 139.045 324.25L135.686 347.754C135.457 349.361 135.225 350.977 134.732 352.527C133.788 355.496 131.79 358.23 128.953 359.652C126.116 361.075 122.419 360.99 119.913 359.065C118.037 357.623 116.994 355.342 116.621 353.042C116.249 350.742 116.478 348.394 116.739 346.08C117.591 338.507 118.766 330.969 120.259 323.491L120.356 323.017C121.289 318.501 122.801 313.588 126.939 311.439C131.049 309.305 136.832 311.287 138.664 315.458ZM120.906 335.964L120.906 335.953C120.624 336.094 120.334 336.247 120.037 336.412C119.699 338.488 119.399 340.569 119.154 342.657C118.82 345.5 118.589 348.355 118.506 351.215L118.497 351.6C118.483 352.566 118.542 353.554 119.022 354.39C119.75 355.658 121.265 356.273 122.71 356.632C125.015 357.205 127.617 357.312 129.621 356.063C132.041 354.553 132.904 351.555 133.45 348.807C133.953 346.273 134.348 343.717 134.634 341.151L134.67 340.808C134.746 340.003 134.76 339.174 134.392 338.459C134.055 337.801 133.435 337.326 132.799 336.929C132.595 336.802 132.388 336.681 132.177 336.566C130.547 336.003 130.547 335.136 127.257 335.063C125.1 335.016 122.897 335.136 120.906 335.964Z" fill="#00160A"/>
<path fill-rule="evenodd" clip-rule="evenodd" d="M28.5876 155.504C28.1291 154.916 28.9129 154.175 29.5866 153.835C37.3083 149.939 45.1168 146.207 53.0049 142.641C55.0664 141.709 57.167 140.779 59.4135 140.444C61.6601 140.109 64.1093 140.44 65.8863 141.82C67.9922 143.455 68.7864 146.237 68.9173 148.857C69.0254 151.022 68.6958 153.359 67.2058 154.968C66.5214 155.708 65.6391 156.242 64.7661 156.759C56.7143 161.536 48.368 165.841 39.7873 169.645C37.1915 170.796 34.1974 171.909 31.5782 170.81C30.5953 170.397 29.7619 169.699 29.0629 168.91C25.8226 165.251 25.6142 159.372 28.5876 155.504ZM66.5858 145.123C66.0071 143.571 64.4961 142.458 62.8534 142.05C61.2108 141.642 59.4582 141.866 57.8478 142.382C56.6375 142.769 55.4884 143.316 54.3438 143.861C52.3629 144.804 50.382 145.747 48.4011 146.69C47.7953 146.978 47.1636 147.288 46.7748 147.824C46.4992 148.205 46.3718 148.665 46.2494 149.115C45.775 150.858 45.2971 152.669 45.6238 154.444C46.1069 157.069 48.2246 159.073 50.2311 160.887C50.6116 161.231 51.0178 161.588 51.5249 161.697C52.1984 161.841 52.874 161.515 53.4825 161.199C56.3142 159.729 59.1458 158.259 61.9774 156.789C64.1595 155.657 66.511 154.343 67.3908 152.092C68.2643 149.858 67.4239 147.371 66.5858 145.123Z" fill="#00160A"/>
<path fill-rule="evenodd" clip-rule="evenodd" d="M161.436 4.5985C161.728 4.17445 162.331 4.04249 162.843 4.1495C163.356 4.25652 163.801 4.55479 164.232 4.84653C167.267 6.90408 170.302 8.96162 173.337 11.0192C173.844 11.3634 174.395 11.7704 174.497 12.3647C174.275 12.8476 173.528 12.6189 173.079 12.3211C169.198 9.74691 165.317 7.1727 161.436 4.5985Z" fill="#00160A"/>
<path fill-rule="evenodd" clip-rule="evenodd" d="M199.169 36.1424C198.705 36.0815 198.826 35.3921 199.074 35.0057C200.003 33.5604 200.932 32.1151 201.862 30.6697C202.187 30.7288 202.144 31.1975 202.01 31.4925C201.258 33.1455 200.302 34.7103 199.169 36.1424Z" fill="#00160A"/>
<path fill-rule="evenodd" clip-rule="evenodd" d="M155.934 275.895C161.553 269.563 167.864 263.815 174.726 258.779C176.313 257.614 178.043 256.445 180.025 256.312C183.171 256.101 185.789 258.498 187.968 260.718C193.701 266.561 199.434 272.404 205.168 278.247C211.929 285.138 218.695 292.033 225.794 298.594C233.399 305.622 241.413 312.285 250.248 317.78C252.954 319.463 253.163 323.285 252.287 326.294C251.412 329.304 249.756 332.179 249.785 335.307C249.797 336.631 250.114 337.931 250.323 339.239C250.927 343.036 250.534 347.155 248.285 350.312C246.037 353.47 241.626 355.323 237.96 353.903C223.706 348.381 209.064 342.62 198.011 332.26C195.265 329.686 192.781 326.862 190.302 324.043C178.653 310.797 167.004 297.552 155.355 284.306C154.592 283.438 153.804 282.521 153.556 281.405C153.109 279.382 154.545 277.46 155.934 275.895M248.984 319.323C247.709 317.477 245.601 316.382 243.662 315.205C238.692 312.189 234.401 308.24 230.167 304.301C221.345 296.093 212.602 287.805 203.94 279.437C201.759 277.33 199.57 275.203 197.813 272.749C193.787 267.128 188.655 262.262 182.779 258.494C181.941 257.956 181.037 257.425 180.035 257.384C178.842 257.336 177.751 257.988 176.76 258.636C169.056 263.669 162.186 269.911 156.496 277.048C155.794 277.929 155.072 278.946 155.203 280.055C155.3 280.874 155.849 281.566 156.38 282.209C163.054 290.285 170.242 297.959 177.887 305.173C179.962 307.131 182.077 309.061 183.916 311.231C186.458 314.229 188.433 317.637 190.715 320.826C201.253 335.553 218.093 345.147 235.754 350.277C237.934 350.91 240.209 351.488 242.459 351.162C247.47 350.435 250.888 344.518 248.923 339.97C247.516 336.713 248.568 333.008 249.465 329.585C250.361 326.162 251.009 322.254 248.984 319.323Z" fill="#00160A"/>
<path fill-rule="evenodd" clip-rule="evenodd" d="M191.804 25.5042C191.151 26.6864 190.499 27.8687 189.846 29.0509C189.591 27.3422 190.754 25.772 191.854 24.4175C192.165 24.6701 191.996 25.1568 191.804 25.5042L191.804 25.5042Z" fill="#00160A"/>
<path fill-rule="evenodd" clip-rule="evenodd" d="M195.391 29.4587C195.527 30.6962 194.975 31.9852 193.977 32.762C193.863 31.526 194.409 30.2496 195.391 29.4587L195.391 29.4587Z" fill="#00160A"/>
<path fill-rule="evenodd" clip-rule="evenodd" d="M212.228 36.9486C212.018 38.2381 211.349 39.4523 210.361 40.3355C209.954 40.7001 209.487 41.013 208.961 41.1814C208.757 40.926 208.983 40.5647 209.202 40.3208C210.211 39.1967 211.219 38.0727 212.228 36.9486Z" fill="#00160A"/>
<path fill-rule="evenodd" clip-rule="evenodd" d="M204.759 37.3764C204.931 36.8163 205.233 36.2946 205.636 35.8618C206.042 35.8029 205.999 36.4582 205.771 36.7901C205.405 37.3234 205.039 37.8567 204.673 38.39C204.283 38.1997 204.285 37.5479 204.677 37.3603L204.759 37.3764Z" fill="#00160A"/>
<path fill-rule="evenodd" clip-rule="evenodd" d="M223.042 43.9476C222.773 44.5982 222.166 45.1061 221.465 45.2667C222.003 44.4295 222.54 43.5922 223.077 42.755C223.325 43.1064 223.31 43.6133 223.042 43.9503L223.042 43.9476Z" fill="#00160A"/>
<path fill-rule="evenodd" clip-rule="evenodd" d="M230.801 49.3882C230.891 49.0646 231.274 48.8496 231.607 48.9353C231.377 49.5803 231.048 50.1918 230.634 50.7433C230.232 50.3992 230.307 49.6701 230.772 49.4109L230.801 49.3882Z" fill="#00160A"/>
<path fill-rule="evenodd" clip-rule="evenodd" d="M105.635 79.9149C105.153 83.6479 106.923 87.5763 110.07 89.7581C111.555 90.7881 112.102 92.7559 111.867 94.5171C111.631 96.2782 110.744 97.8858 109.839 99.4277C109.161 100.584 108.431 101.764 107.318 102.538C106.205 103.312 104.603 103.576 103.481 102.815C99.1764 99.8933 93.3443 101.035 88.2596 102.293C86.574 102.71 84.9346 101.584 83.5785 100.523C81.8573 99.1773 80.1361 97.8315 78.415 96.4857C77.7971 96.0025 77.1614 95.4986 76.799 94.8123C76.3493 93.9609 76.3829 92.9499 76.4942 91.9986C77.0513 87.2369 79.2588 82.8169 81.6637 78.6359C84.148 74.3166 87.6229 69.671 92.6919 69.3047C94.0138 69.2092 95.4764 69.4962 96.3137 70.4972C97.8004 72.2747 100.096 73.1663 102.078 74.4024C104.061 75.6384 105.929 77.6401 105.635 79.9149ZM84.9482 79.5696C84.5406 79.3588 84.0697 79.1426 83.6362 79.2967C83.3531 79.3974 83.1505 79.6376 82.9665 79.8702C80.7298 82.6962 79.0778 85.9594 78.1378 89.4082C77.8448 90.4831 77.6254 91.6502 78.0425 92.6855C78.3722 93.5039 79.0567 94.1293 79.7202 94.7254C81.2169 96.0701 82.7136 97.4148 84.2102 98.7595C85.2407 99.6854 86.5164 100.681 87.8842 100.382C92.8493 99.2947 98.2789 98.2545 102.838 100.456C104.725 101.367 107.11 100.403 108.429 98.8039C109.748 97.2047 110.254 95.13 110.725 93.1306C107.035 90.3981 104.234 86.5432 102.815 82.2448C102.617 81.6442 101.681 82.0195 101.236 82.478C98.7563 85.033 96.2765 87.5881 93.7967 90.1432C92.1523 91.8375 90.3802 93.9366 90.8724 96.2183C91.0069 96.8418 89.9184 97.1096 89.5002 96.6197C89.082 96.1298 89.2008 95.4014 89.3907 94.7917C91.1596 89.1119 96.7076 85.5201 100.731 81.0621C101.516 80.1922 102.291 79.1531 102.19 77.999C102.084 76.7864 101.055 75.8727 100.096 75.0922C98.246 73.5858 96.3025 72.0463 93.9634 71.475C91.6244 70.9037 88.774 71.601 87.6461 73.6771C91.2277 75.2868 94.6942 77.1394 98.0121 79.2171C98.4824 79.5115 98.97 80.1951 98.5038 80.4956C95.6803 78.9613 92.8568 77.4269 90.0333 75.8926C89.1544 75.415 88.2441 74.9275 87.2431 74.8267C86.242 74.726 85.1173 75.1141 84.6742 75.9942C84.104 77.1267 84.9049 78.5188 85.9936 79.2018C87.0822 79.8848 88.4017 80.104 89.6007 80.5804C91.3561 81.2778 92.862 82.5556 93.812 84.1536C90.8574 82.6256 87.9028 81.0976 84.9482 79.5696Z" fill="#00160A"/>
<path fill-rule="evenodd" clip-rule="evenodd" d="M225.484 49.2675C225.371 49.6553 225.037 49.9746 224.638 50.0787C224.778 48.9677 225.449 47.9312 226.417 47.3286C226.44 48.0517 226.049 48.7742 225.424 49.1655L225.484 49.2675Z" fill="#00160A"/>
<path fill-rule="evenodd" clip-rule="evenodd" d="M216.113 43.5009C215.937 43.8876 215.534 44.167 215.101 44.2032C215.198 43.4842 215.498 42.7922 215.96 42.2238C216.141 42.0013 216.372 41.7849 216.661 41.7535C216.951 41.7222 217.276 41.9775 217.199 42.2514C216.823 42.6489 216.446 43.0465 216.07 43.444L216.113 43.5009Z" fill="#00160A"/>
<path fill-rule="evenodd" clip-rule="evenodd" d="M155.835 136.137C155.911 136.342 155.547 136.518 155.426 136.335C155.354 136.143 155.407 135.914 155.555 135.77C155.664 135.876 155.772 135.982 155.881 136.088L155.835 136.137Z" fill="#00160A"/>
<path fill-rule="evenodd" clip-rule="evenodd" d="M242.585 63.5047C243.142 63.1577 243.714 62.7971 244.092 62.2686C244.469 61.7401 244.608 60.9957 244.25 60.4544C243.568 60.3682 242.934 59.9673 242.576 59.3949C242.56 59.0518 242.919 58.7417 243.267 58.7971C243.939 59.0833 244.638 59.3898 245.094 59.9496C245.55 60.5094 245.662 61.404 245.139 61.9044C250.231 65.3145 255.323 68.7246 260.415 72.1348C260.108 72.3537 259.679 72.2148 259.333 72.0618C254.786 70.0497 250.957 66.8026 246.799 64.1068C245.834 63.4811 244.391 62.9404 243.659 63.8154C242.678 64.9867 240.395 64.5865 239.895 63.1556C239.802 62.6211 240.726 62.5909 241.152 62.9406C241.577 63.2903 242.116 63.7969 242.585 63.5047Z" fill="#00160A"/>
<path fill-rule="evenodd" clip-rule="evenodd" d="M233.754 319.237C234.665 318.082 235.601 316.945 236.562 315.829C236.845 315.5 237.136 315.168 237.505 314.933C238.91 314.037 240.774 314.847 242.178 315.745C243.727 316.735 245.204 317.832 246.594 319.025C247.746 320.013 248.89 321.159 249.205 322.622C249.519 324.085 248.615 325.881 247.086 326.009C246.149 327.665 244.811 329.105 243.213 330.178C242.305 330.787 241.064 330.412 240.079 329.932C237.256 328.555 234.818 326.436 233.092 323.861C232.817 323.45 232.555 323.017 232.455 322.535C232.209 321.343 232.994 320.202 233.754 319.237ZM243.013 329.496C243.853 328.331 244.693 327.165 245.534 326C244.725 325.068 243.249 325.066 242.191 324.413C241.612 324.056 241.18 323.517 240.761 322.989C239.532 321.442 238.303 319.895 237.075 318.348C236.05 319.392 235.099 320.503 234.23 321.673C234.103 321.843 233.974 322.025 233.951 322.235C233.926 322.474 234.044 322.704 234.164 322.914C236.023 326.162 239.307 328.604 243.013 329.496ZM241.448 316.526C240.661 315.999 239.446 315.531 238.893 316.289C238.557 316.749 238.731 317.385 238.954 317.906C240.187 320.793 242.587 323.188 245.52 324.459C246.362 324.823 247.641 324.925 247.927 324.072C248.033 323.756 247.944 323.411 247.832 323.097C246.802 320.195 244.047 318.264 241.448 316.526Z" fill="#00160A"/>
<path fill-rule="evenodd" clip-rule="evenodd" d="M169.096 278.439C168.599 279.14 168.102 279.841 167.605 280.543C167.134 281.207 166.647 281.914 166.586 282.72C166.531 283.44 166.826 284.139 167.154 284.786C168.593 287.632 170.788 290.112 173.467 291.916C172.729 292.803 171.253 292.284 170.318 291.596C167.844 289.778 165.98 287.187 165.07 284.302C164.847 283.597 164.679 282.858 164.761 282.125C164.933 280.598 166.129 279.397 167.257 278.324C168.626 277.024 170.209 275.635 172.121 275.662C173.378 275.68 174.535 276.324 175.536 277.064C178.426 279.196 180.628 282.669 179.987 286.145C179.83 286.999 179.171 288.008 178.315 287.77C175.199 286.905 172.433 284.899 170.689 282.24C170.322 281.68 169.97 281.065 169.373 280.744C169.356 279.969 169.263 279.196 169.096 278.439ZM172.028 278.007C171.216 278.505 171.12 279.652 171.427 280.537C172.253 282.914 174.988 284.047 176.672 285.946C176.89 286.192 177.113 286.466 177.434 286.555C177.922 286.69 178.435 286.312 178.61 285.849C178.786 285.386 178.71 284.873 178.615 284.388C178.343 282.992 177.922 281.601 177.137 280.403C176.351 279.205 175.166 278.211 173.751 277.863C173.177 277.722 172.53 277.7 172.028 278.007Z" fill="#00160A"/>
<path fill-rule="evenodd" clip-rule="evenodd" d="M226.914 301.074C227.488 301.346 227.792 301.956 228.054 302.523C228.448 303.378 228.843 304.232 229.237 305.086C229.402 305.443 229.57 305.812 229.584 306.203C229.606 306.788 229.298 307.437 229.636 307.922C228.051 309.144 226.563 310.486 225.189 311.931C224.815 312.324 224.43 312.738 223.917 312.934C222.957 313.3 221.89 312.792 221.047 312.214C219.062 310.853 217.426 309.015 216.325 306.909C215.764 305.835 215.421 304.343 216.373 303.574C216.68 303.326 216.779 302.917 216.892 302.545C217.419 300.808 218.648 299.283 220.256 298.372C220.488 298.24 220.739 298.118 221.008 298.108C221.242 298.099 221.47 298.176 221.69 298.253C222.866 298.658 224.041 299.064 225.216 299.469C225.708 299.639 226.302 299.961 226.23 300.464C226.184 300.786 226.614 300.932 226.914 301.074M218.065 302.059C217.515 303.202 216.963 304.465 217.287 305.687C217.413 306.162 217.666 306.596 217.944 307.006C218.957 308.502 220.341 309.758 221.945 310.638C222.977 311.204 224.361 311.582 225.274 310.846C225.976 310.281 226.203 309.183 227.063 308.89C227.519 308.735 227.547 308.06 227.234 307.701C226.921 307.342 226.423 307.208 225.966 307.053C223.419 306.189 221.365 304.056 220.641 301.525C220.577 301.299 220.518 301.061 220.364 300.881C220.032 300.49 219.369 300.528 218.948 300.825C218.526 301.122 218.286 301.6 218.065 302.059M228.041 306.175C228.71 304.947 227.66 303.529 226.68 302.519C226.082 301.902 225.484 301.286 224.885 300.67C224.432 300.202 223.945 299.715 223.308 299.547C222.671 299.378 221.855 299.68 221.73 300.312C221.676 300.583 221.756 300.862 221.85 301.124C222.781 303.723 225.251 305.738 228.041 306.175Z" fill="#00160A"/>
<path fill-rule="evenodd" clip-rule="evenodd" d="M214.122 314.932C216.186 315.282 217.772 316.85 219.208 318.337C219.787 318.936 220.373 319.545 220.77 320.27C221.711 321.985 221.454 324.134 220.592 325.888C219.73 327.642 218.334 329.083 216.96 330.494C216.146 331.329 215.146 332.235 213.972 332.098C213.536 332.047 213.132 331.852 212.748 331.646C209.311 329.805 206.556 326.785 205.081 323.245C204.887 322.78 204.712 322.283 204.786 321.786C204.859 321.298 205.161 320.877 205.454 320.476C206.516 319.026 207.597 317.555 209.03 316.448C210.463 315.341 212.32 314.627 214.122 314.932M207.275 321.105C206.729 321.645 206.09 322.223 206.064 322.98C206.052 323.323 206.172 323.656 206.31 323.971C207.597 326.902 210.444 328.847 213.154 330.635C213.331 330.752 213.519 330.872 213.732 330.885C213.968 330.9 214.189 330.78 214.387 330.655C215.368 330.036 216.175 329.192 216.97 328.357C217.368 327.939 217.785 327.485 217.87 326.921C217.955 326.357 217.528 325.688 216.945 325.739C215.724 325.845 214.545 325.234 213.621 324.448C211.995 323.066 210.927 321.078 210.688 318.989C210.605 318.268 210.586 317.465 210.065 316.948C209.43 318.495 208.476 319.918 207.275 321.105ZM213.582 316.666C213.068 316.627 212.514 316.707 212.123 317.036C211.226 317.79 211.713 319.223 212.369 320.185C213.364 321.646 214.61 322.944 216.038 324.011C216.579 324.415 217.165 324.794 217.831 324.933C218.498 325.072 219.264 324.927 219.706 324.422C220.15 323.914 220.174 323.155 219.951 322.524C219.728 321.894 219.296 321.358 218.886 320.823C217.481 318.993 215.921 316.842 213.582 316.666L213.582 316.666Z" fill="#00160A"/>
<path fill-rule="evenodd" clip-rule="evenodd" d="M194.097 312.549C193.331 313.12 192.26 313.189 191.336 312.919C190.412 312.65 189.611 312.082 188.88 311.468C187.101 309.974 185.624 308.14 184.555 306.102C183.985 305.016 183.523 303.824 183.614 302.608C183.751 300.789 185.078 299.283 186.418 298.009C187.047 297.41 187.737 296.807 188.595 296.618C189.433 296.434 190.305 296.674 191.102 296.984C195.141 298.555 198.324 302.072 199.418 306.172C198.821 308.912 196.381 310.847 194.097 312.549ZM190.995 310.806C191.865 311.307 192.905 311.735 193.863 311.421C194.811 311.11 195.376 310.17 195.732 309.26C194.634 308.007 192.984 307.353 191.708 306.272C189.44 304.351 188.591 301.329 187.854 298.491C186.605 299.5 185.608 300.803 184.973 302.258C184.79 302.676 184.634 303.124 184.684 303.575C184.72 303.9 184.86 304.204 185.007 304.497C186.321 307.105 188.429 309.326 190.995 310.806ZM188.872 299.602C188.824 300.046 189.049 300.472 189.28 300.859C190.682 303.205 192.554 305.285 194.759 306.946C195.432 307.453 196.357 307.934 197.081 307.499C197.513 307.24 197.712 306.723 197.754 306.231C197.869 304.907 197.083 303.681 196.279 302.607C195.081 301.007 193.69 299.43 191.808 298.682C191.254 298.462 190.642 298.318 190.059 298.444C189.475 298.57 188.936 299.023 188.872 299.602V299.602Z" fill="#00160A"/>
<path fill-rule="evenodd" clip-rule="evenodd" d="M150.277 10.4063C149.444 11.4756 148.754 13.2931 149.984 13.8992C150.948 14.3744 151.992 13.4521 152.659 12.624C155.277 9.37589 157.894 6.12778 160.512 2.87968C161.151 3.98774 160.419 5.34409 159.706 6.40804C157.727 9.36027 155.633 12.42 152.496 14.1799C157.899 16.7687 163.052 19.8525 167.864 23.3773C169.923 22.617 171.633 21.0027 172.478 19.0217C171.892 19.5657 170.937 19.1565 170.258 18.7273C165.982 16.0227 161.795 13.1841 157.706 10.2175C157.993 9.46084 159.162 9.78887 159.845 10.2443C163.635 12.7681 167.424 15.2919 171.213 17.8157C172.139 18.4325 173.285 17.4336 173.932 16.5411C175.352 14.5824 176.772 12.6238 178.193 10.6652C178.714 9.94554 179.284 9.18841 180.127 8.86919C181.566 8.32428 183.113 9.25255 184.362 10.1363C184.728 10.3955 185.113 10.6772 185.276 11.0886C185.559 11.8002 185.079 12.5643 184.622 13.1837C180.172 19.2093 175.722 25.2349 171.273 31.2605C171.07 31.5343 170.859 31.8163 170.558 31.9836C169.79 32.411 168.822 31.9201 168.182 31.325C167.277 30.4838 165.909 29.0808 166.706 27.67C167.503 26.2593 167.536 26.1959 168.206 25.1197C162.56 20.9426 156.675 16.6553 149.752 15.1636C148.572 14.9095 147.93 13.5609 148.071 12.392C148.211 11.2232 148.92 10.2037 149.608 9.23654C151.243 6.93936 152.877 4.64218 154.512 2.345C154.933 1.7542 155.362 1.15347 155.947 0.714653C157.011 -0.0838249 158.55 -0.228315 159.75 0.357595C160.951 0.943505 161.753 2.23076 161.734 3.53861C161.009 2.84834 160.254 2.13894 159.302 1.80012C158.35 1.4613 157.141 1.59811 156.528 2.38445C154.444 5.0584 152.361 7.73235 150.277 10.4063ZM167.315 28.1443C167.315 29.3535 168.278 30.0122 169.01 30.2874C169.741 30.5626 170.689 30.4532 171.144 29.8307C175.156 24.3391 179.169 18.8475 183.182 13.356C183.357 13.1164 183.535 12.8699 183.612 12.5856C183.777 11.9772 183.428 11.3251 182.923 10.9334C182.417 10.5417 181.78 10.3555 181.161 10.1778C180.881 10.0977 180.573 10.0191 180.308 10.1377C180.13 10.2178 180.003 10.3753 179.883 10.5273C176.527 14.7957 173.326 19.1799 170.288 23.6689C170.169 23.4423 168.133 26.3099 167.315 28.1443Z" fill="#00160A"/>
<path fill-rule="evenodd" clip-rule="evenodd" d="M107.559 93.0561C107.427 93.8947 106.716 94.51 106.152 95.1566C104.917 96.5725 104.27 98.3743 103.649 100.131C102.918 99.3556 102.801 98.1735 103.079 97.1566C103.358 96.1396 103.973 95.2466 104.579 94.3749C104.927 93.8737 105.29 93.3575 105.819 93.0398C106.348 92.7221 107.091 92.6585 107.559 93.0561L107.559 93.0561Z" fill="#00160A"/>
<path fill-rule="evenodd" clip-rule="evenodd" d="M242.072 58.3178C240.772 59.967 239.472 61.6161 238.171 63.2652C237.47 64.1555 236.095 65.0908 235.348 64.2362C234.04 62.74 231.622 63.1616 229.646 62.7635C228.366 62.5056 227.209 61.8631 226.075 61.2298C209.689 52.0738 193.302 42.9178 176.916 33.7619C175.621 33.0384 174.218 32.1877 173.789 30.7952C191.318 39.9552 208.553 49.6482 225.461 59.8555C227.535 61.1074 230.395 62.319 232.188 60.7081C232.703 60.2456 233.021 59.6162 233.327 59.0023C234.903 55.8372 236.479 52.6722 238.056 49.5071C220.354 38.419 201.034 29.7741 184.223 17.4405C183.886 17.1935 183.525 16.9054 183.457 16.5001C183.39 16.0949 183.846 15.6315 184.207 15.8439C188.137 18.6025 192.138 21.2651 196.205 23.8285C209.109 31.9606 222.652 39.079 235.827 46.7869C237.109 47.5369 238.514 48.4678 238.753 49.9057C238.937 51.013 238.36 52.091 237.802 53.0723C236.654 55.0913 235.507 57.1104 234.359 59.1294C233.955 59.8406 233.537 60.6393 233.733 61.4293C234.04 62.6638 235.75 63.112 236.946 62.6063C238.142 62.1007 238.924 60.9829 239.639 59.9207C240.293 58.9495 240.947 57.9783 241.601 57.0071C242.126 56.2272 240.932 55.4584 240.022 55.1697C239.111 54.8809 238.103 53.7553 238.89 53.2244C239.314 52.9385 239.887 53.1954 240.33 53.453C241.667 54.2319 243.203 55.4176 242.878 56.9026C242.762 57.435 242.412 57.8861 242.072 58.3178Z" fill="#00160A"/>
<path fill-rule="evenodd" clip-rule="evenodd" d="M99.746 77.6065C100.019 77.759 100.312 77.9332 100.422 78.2202C100.532 78.5072 100.321 78.9128 100.01 78.8684C97.1245 77.2521 94.239 75.6358 91.3535 74.0194C91.4058 73.6996 91.7715 73.5029 92.1038 73.5149C92.436 73.527 92.7391 73.6924 93.0275 73.8535C95.267 75.1045 97.5065 76.3555 99.746 77.6065Z" fill="#00160A"/>
<path fill-rule="evenodd" clip-rule="evenodd" d="M58.5372 61.899C57.9305 60.3783 58.8146 58.6972 59.8035 57.3805C61.3113 55.3729 63.1357 53.5913 65.1928 52.1174C65.7048 51.7505 66.4896 51.4261 66.9022 51.8971C67.402 52.4676 66.6393 53.2474 66.0032 53.6701C63.318 55.4545 61.4462 58.1527 59.62 60.7721C59.3204 61.2018 59.0034 61.6466 58.5372 61.899L58.5372 61.899Z" fill="#FFB61D"/>
<path fill-rule="evenodd" clip-rule="evenodd" d="M211.692 291.788C209.72 293.154 207.748 294.521 205.776 295.888C205.06 296.384 204.183 296.905 203.359 296.609C200.414 295.55 198.352 292.921 196.982 290.171C196.446 289.094 195.983 287.862 196.36 286.723C196.55 286.152 196.934 285.665 197.312 285.19C198.478 283.724 199.856 282.138 201.75 281.947C202.59 281.862 203.434 282.072 204.223 282.364C206.716 283.285 208.868 285.056 210.215 287.297C209.692 287.101 209.138 286.985 208.578 286.952C207.201 284.77 204.708 283.296 202.086 283.112C202.789 284.707 203.655 286.234 204.666 287.664C205.583 288.962 206.721 290.245 208.278 290.672C209.46 290.995 210.917 290.861 211.692 291.788ZM201.7 293.8C202.658 294.566 203.891 295.208 205.094 294.917C206.77 294.511 207.64 292.493 209.324 292.122C207.079 291.876 205.101 290.482 203.698 288.758C202.295 287.033 201.384 284.986 200.489 282.965C200.365 284.889 197.812 286.124 197.929 288.049C197.951 288.404 198.067 288.746 198.198 289.078C198.924 290.91 200.143 292.554 201.7 293.8H201.7Z" fill="#00160A"/>
<path fill-rule="evenodd" clip-rule="evenodd" d="M88.8545 77.3807C89.3011 77.1227 89.8656 77.3665 90.3182 77.6143C91.7076 78.3749 93.0701 79.1823 94.4025 80.0344C94.6657 80.2027 94.9646 80.4742 94.8505 80.7601C94.7043 81.1262 94.1423 80.9891 93.7951 80.7893C92.4038 79.9888 91.0125 79.1883 89.6212 78.3878C89.2266 78.1607 88.7743 77.8203 88.8545 77.3807L88.8545 77.3807Z" fill="#00160A"/>
<path fill-rule="evenodd" clip-rule="evenodd" d="M61.6802 65.8753C62.4974 63.6321 63.7647 61.5455 65.3896 59.7677C65.9599 59.1437 66.5728 58.5583 67.1851 57.9735C68.0749 57.1237 68.9646 56.2739 69.8543 55.4242C70.1019 55.1877 70.3928 54.9343 70.739 54.9518C71.1802 54.974 71.4749 55.4571 71.4397 55.8861C71.4045 56.315 71.1364 56.6886 70.8656 57.0286C69.4837 58.7636 67.794 60.2404 66.298 61.8832C64.802 63.5259 63.4686 65.4043 63.0161 67.5555C62.8949 68.1319 61.9183 68.0903 61.6146 67.5817C61.3108 67.0731 61.4782 66.4299 61.6802 65.8753Z" fill="#FFB61D"/>
<path fill-rule="evenodd" clip-rule="evenodd" d="M227.292 337.049C227.753 335.106 228.719 333.277 230.074 331.782C230.669 332.53 229.986 333.562 229.478 334.368C229.068 335.02 228.767 335.737 228.591 336.483C228.539 336.702 228.498 336.934 228.56 337.152C228.611 337.334 228.73 337.49 228.846 337.642C230.851 340.251 233.151 343.048 236.432 343.686C237.077 343.811 237.743 343.479 238.179 342.999C238.614 342.519 238.864 341.91 239.105 341.314C235.11 339.767 232.03 336.158 231.199 332.05C231.166 331.884 231.136 331.708 231.198 331.55C231.285 331.331 231.52 331.209 231.743 331.119C233.328 330.482 235.207 330.586 236.708 331.394C237.29 331.707 237.811 332.115 238.328 332.522C239.13 333.152 239.932 333.782 240.734 334.412C242.053 335.448 243.506 336.778 243.324 338.419C243.224 339.322 242.633 340.09 242.064 340.809C240.822 342.377 239.58 343.945 238.338 345.512C233.991 344.962 229.95 342.445 227.613 338.833C227.436 338.56 227.265 338.272 227.213 337.953C227.163 337.653 227.222 337.346 227.292 337.049ZM236.61 332.964C235.244 332.196 233.622 331.865 232.053 332.036C233.232 335.146 235.546 337.835 238.485 339.509C239.204 339.918 240.082 340.274 240.846 339.951C241.83 339.534 242.057 338.257 242.852 337.556C241.317 336.4 239.782 335.243 238.247 334.087C237.719 333.689 237.188 333.29 236.61 332.964Z" fill="#00160A"/>
<path fill-rule="evenodd" clip-rule="evenodd" d="M185.028 264.827C187.118 263.619 189.917 264.666 191.566 266.405C193.216 268.144 194.089 270.429 195.31 272.476C195.078 272.568 194.846 272.66 194.614 272.752C193.447 269.715 191.413 266.998 188.802 264.985C188.374 264.656 187.573 264.449 187.433 264.962C187.393 265.109 187.438 265.264 187.483 265.409C187.746 266.257 188.009 267.104 188.272 267.952C188.433 268.473 188.596 268.996 188.838 269.485C189.723 271.27 191.546 272.401 193.279 273.438C193.679 273.677 193.427 274.303 193.048 274.573C192.67 274.843 192.163 275.047 192.049 275.491C191.895 273.677 189.844 272.696 188.732 271.234C188.327 270.702 188.044 270.094 187.764 269.491C187.172 268.214 186.579 266.938 185.987 265.661C185.255 266.347 184.523 267.033 183.791 267.719C183.451 268.037 183.101 268.371 182.939 268.802C182.71 269.413 182.904 270.094 183.159 270.695C183.633 271.816 184.318 272.852 185.169 273.736C185.689 274.276 186.276 274.768 186.675 275.397C187.075 276.027 187.258 276.853 186.902 277.507C184.957 275.937 183.316 274.01 182.091 271.857C181.612 271.017 181.187 270.097 181.233 269.137C181.329 267.162 183.282 265.835 185.028 264.827V264.827Z" fill="#00160A"/>
<path fill-rule="evenodd" clip-rule="evenodd" d="M29.5975 322.645C27.114 326.134 24.2286 329.678 20.1299 331.122C16.0313 332.567 10.5038 330.907 9.39314 326.802C7.5361 319.937 17.7711 316.429 21.5947 310.386C26.1329 303.213 20.6929 294.154 15.3476 287.53C11.5544 290.618 6.02975 293.792 2.12324 290.841C-2.6073 287.268 1.37334 279.797 6.19743 276.344C14.8497 270.152 25.9147 267.243 36.5908 268.356C39.3086 248.638 49.7077 230.017 65.2256 217.081C80.7435 204.146 101.237 197.014 121.657 197.444C119.375 158.879 142.33 119.986 177.694 102.502C181.533 100.604 185.643 98.9099 189.948 98.9351C194.253 98.9603 198.798 101.095 200.432 104.974C202.065 108.854 199.532 114.178 195.243 114.533C178.725 115.897 163.037 124.861 153.754 138.239C175.724 136.591 196.513 147.081 215.91 157.265C223.814 161.415 231.719 165.565 239.623 169.715C247.298 173.744 255.812 177.905 264.341 176.147C280.115 172.896 284.92 152.766 298.124 143.754C299.823 142.594 301.847 141.592 303.892 141.934C309.224 142.826 308.85 150.495 306.556 155.268C292.878 183.735 262.232 201.648 230.729 208.452C199.225 215.255 166.481 212.566 134.334 209.843C132.11 232.237 128.968 256.591 112.519 272.385C96.8802 287.402 72.1441 290.704 50.9728 285.023C62.2355 285.831 73.6424 286.453 84.7521 284.478C95.8619 282.504 106.795 277.674 114.014 269.215C118.335 264.151 121.144 258.036 123.503 251.866C128.603 238.527 131.848 224.516 133.123 210.336C129.189 210.596 125.255 210.856 121.321 211.116C122.317 229.999 117.49 249.963 104.151 263.7C90.8109 277.437 67.8839 283.043 51.1539 273.452C47.4815 291.044 40.0985 307.893 29.5975 322.645ZM72.4176 276.586C78.9214 275.597 85.2799 273.706 91.2419 270.988C87.5483 268.117 83.9818 265.026 81.1687 261.328C75.1784 253.452 72.9091 243.243 66.3847 235.781C58.5496 246.364 53.414 258.829 51.5639 271.752C51.5223 272.043 51.488 272.362 51.6497 272.61C51.8176 272.868 52.1452 272.971 52.4466 273.054C57.4323 274.432 62.4997 275.528 67.6152 276.336C64.7778 273.33 61.9196 270.297 59.7612 266.796C57.6029 263.295 56.1672 259.248 56.4482 255.173C59.1068 261.955 62.909 268.31 67.6561 273.906C68.8806 275.349 70.5182 276.875 72.4176 276.586ZM307.77 149.424C309.242 145.883 304.222 142.502 300.474 143.629C296.726 144.757 294.404 148.286 292.219 151.459C279.968 169.255 262.113 183.337 241.694 191.308C210.243 203.586 175.1 201.14 141.245 199.795C125.327 199.162 109.082 198.854 93.8162 203.292C71.5895 209.754 52.8153 226.616 44.4035 247.671C39.5468 259.828 38.0525 272.974 34.7302 285.611C31.408 298.248 25.7352 311.055 14.9217 318.751C12.9601 320.147 10.6861 321.582 10.1407 323.888C9.32982 327.316 13.2457 330.428 16.8499 330.203C20.4541 329.977 23.479 327.528 25.9524 324.965C51.096 298.907 45.3266 253.842 71.283 228.552C83.5219 216.627 101.095 211.197 118.339 209.708C135.582 208.219 152.911 210.249 170.2 211.096C197.134 212.414 224.712 210.746 249.871 201.287C275.029 191.828 297.647 173.771 307.77 149.424ZM145.047 156.628C144.491 156.957 144.158 157.542 143.858 158.103C137.507 169.97 134.367 183.449 134.837 196.823C134.156 196.792 133.889 195.957 133.818 195.296C132.141 179.721 138.789 164.565 145.291 150.242C147.261 145.903 149.245 141.538 151.963 137.601C157.026 130.266 164.393 124.755 171.896 119.783C174.394 118.128 176.957 116.499 179.819 115.556C181.722 114.929 183.718 114.618 185.703 114.31C188.174 113.927 190.645 113.543 193.116 113.16C195.682 112.762 198.621 112.111 199.791 109.851C201.434 106.677 198.125 102.98 194.611 102.022C190.178 100.814 185.454 102.051 181.118 103.555C174.473 105.86 168.024 108.829 162.336 112.892C157.796 116.134 153.789 120.038 150.111 124.189C132.765 143.772 122.68 169.331 122.094 195.188C122.081 195.778 122.079 196.395 122.356 196.919C123.019 198.176 124.804 198.241 126.252 198.152C136.585 197.52 146.983 197.907 157.236 199.306C152.23 194.705 147.14 190.045 141.044 186.931C139.114 185.946 136.967 185.009 135.904 183.156C140.095 183.815 144.099 185.571 147.384 188.19C150.03 190.3 152.19 192.933 154.764 195.126C157.339 197.319 160.535 199.115 163.954 199.01C173.538 198.717 183.138 198.885 192.705 199.513C185.072 194.566 178.779 187.934 171.876 182.057C164.972 176.179 157.058 170.881 148.001 169.49C145.473 169.101 142.293 168.558 141.66 166.143C151.223 166.639 160.187 170.986 167.915 176.495C175.642 182.004 182.385 188.699 189.661 194.762C192.26 196.928 195.342 199.139 198.737 198.742C209.373 197.498 220.092 196.236 230.271 192.983C205.508 184.409 185.951 163.878 160.304 158.29C156.061 157.366 151.734 156.876 147.416 156.387C146.612 156.296 145.739 156.218 145.047 156.628ZM242.596 173.009C239.775 171.677 236.954 170.345 234.132 169.013C230.103 167.11 226.072 165.207 222.101 163.191C212.853 158.496 203.931 153.192 194.517 148.822C185.103 144.452 175.074 141.003 164.669 140.324C162.023 140.151 159.333 140.154 156.777 139.463C155.178 139.031 153.438 139.757 152.259 140.895C151.079 142.032 150.35 143.528 149.643 144.99C148.067 148.251 146.492 151.512 144.916 154.773C157.057 153.669 168.999 158.097 179.911 163.398C190.248 168.419 200.131 174.289 209.745 180.526C214.108 183.356 218.45 186.28 223.249 188.334C228.049 190.389 233.406 191.539 238.564 190.631C247.405 189.075 254.073 181.92 262.478 178.829C255.489 179.019 248.887 175.98 242.596 173.009ZM83.0749 222.224C85.7185 228.591 89.4664 234.577 94.4786 239.407C99.4909 244.236 105.807 247.873 112.703 249.301C114.309 243.578 115.846 237.837 117.313 232.079C117.452 231.533 117.514 230.809 116.999 230.554C109.63 226.904 102.999 221.848 97.5911 215.758C97.6376 215.126 98.4174 214.748 99.0569 214.866C99.6964 214.984 100.209 215.436 100.682 215.871C105.955 220.717 111.142 225.997 117.872 228.623C119.401 223.733 120.441 218.697 120.974 213.612C121.072 212.676 120.836 211.371 119.87 211.367C100.823 211.298 81.8712 219.023 68.5513 232.285C67.6278 233.205 67.5734 234.701 68.0388 235.905C68.5041 237.108 69.3934 238.101 70.2154 239.108C74.2225 244.016 76.9378 249.778 80.1037 255.239C83.2695 260.699 87.075 266.051 92.5343 269.375C93.0971 269.717 93.7208 270.048 94.3825 269.998C94.9266 269.958 95.4128 269.666 95.8691 269.374C102.38 265.216 107.82 259.481 111.561 252.831C111.967 252.11 112.153 250.908 111.328 250.734C106.322 249.676 101.569 247.499 97.5389 244.418C94.4263 242.038 91.7674 239.153 89.126 236.283C87.5102 234.528 85.8841 232.759 84.6365 230.738C83.136 228.308 82.2145 225.542 81.9648 222.716C82.3348 222.552 82.7049 222.388 83.0749 222.224ZM4.82079 290.543C7.52442 291.091 10.0929 289.304 12.198 287.563C14.6397 285.543 17.032 283.428 19.8071 281.87C22.5821 280.312 25.8293 279.336 28.9932 279.822C30.0671 279.987 31.1324 280.318 32.2166 280.239C33.3008 280.161 34.4528 279.517 34.6403 278.474C35.0857 275.997 35.4366 273.504 35.6923 271.001C35.7288 270.644 35.7498 270.242 35.5088 269.971C35.2758 269.708 34.8816 269.663 34.5259 269.641C23.2314 268.931 11.7052 273.228 3.7823 281.1C2.58115 282.294 1.41347 283.656 1.13385 285.305C0.742656 287.612 2.47051 290.067 4.82079 290.543ZM27.6092 283.264C29.1268 284.968 30.6444 286.673 32.1621 288.377C32.5611 286.285 33.1927 284.236 34.0422 282.276C29.5133 280.421 24.0257 280.992 20.0004 283.735C19.1245 284.332 18.3189 285.02 17.5154 285.707C17.1965 285.98 16.8645 286.271 16.7289 286.662C16.5934 287.054 16.7414 287.571 17.144 287.701C18.6415 288.185 19.7039 289.469 20.5603 290.759C23.3712 294.995 24.9132 300.019 24.9501 305.063C27.1045 300.648 29.2589 296.233 31.4132 291.819C30.5579 291.585 30.338 290.538 30.1238 289.699C29.3634 286.718 26.9094 284.476 24.5706 282.416C24.9357 281.942 25.6763 281.882 26.2344 282.118C26.7924 282.355 27.2104 282.816 27.6092 283.264V283.264Z" fill="#00160A"/>
</svg>
