<svg width="22" height="22" viewBox="0 0 22 22" fill="none" xmlns="http://www.w3.org/2000/svg">
<path d="M12.443 0.598088C11.6455 -0.199363 10.3531 -0.199363 9.55565 0.598088L5.56428 4.59084L10.9993 10.0272L16.4357 4.59084L12.4416 0.598088H12.443ZM17.4064 5.5629L11.9728 10.9993L17.4092 16.4357L21.4019 12.4416C22.1994 11.6441 22.1994 10.3531 21.4019 9.55703L17.4092 5.5629H17.4064ZM16.4357 17.4064L10.9993 11.9728L5.5629 17.4092L9.55703 21.4019C10.3545 22.1994 11.6455 22.1994 12.4416 21.4019L16.4357 17.4092V17.4064ZM4.59221 16.4357L10.0259 10.9993L4.59084 5.5629L0.598088 9.55703C-0.199363 10.3545 -0.199363 11.6455 0.598088 12.4416L4.59084 16.4357H4.59221Z" fill="#27B4EF"/>
</svg>
